<svg width="187" height="218" viewBox="0 0 187 218" fill="none" xmlns="http://www.w3.org/2000/svg">
<path d="M0.788818 5.82756C0.788818 3.04586 3.04704 0.790527 5.8323 0.790527H181.724C184.509 0.790527 186.767 3.04586 186.767 5.82756V212.346C186.767 215.128 184.509 217.383 181.724 217.383H5.8323C3.04704 217.383 0.788818 215.128 0.788818 212.346V5.82756Z" fill="white"/>
<path d="M5.83226 1.10522H181.724C184.335 1.10522 186.452 3.21952 186.452 5.82745V212.346C186.452 214.955 184.335 217.068 181.724 217.068H5.83226C3.221 217.068 1.104 214.955 1.104 212.346V5.82745C1.104 3.21952 3.221 1.10522 5.83226 1.10522Z" stroke="#E1E1E1"/>
<path d="M13.3974 11.1794H28.5279C29.7465 11.1794 30.7344 12.1661 30.7344 13.3831V28.4943C30.7344 29.7113 29.7465 30.698 28.5279 30.698H13.3974C12.1788 30.698 11.1909 29.7113 11.1909 28.4943V13.3831C11.1909 12.1661 12.1788 11.1794 13.3974 11.1794Z" fill="white"/>
<path d="M13.3974 11.1794H28.5279C29.7465 11.1794 30.7344 12.1661 30.7344 13.3831V28.4943C30.7344 29.7113 29.7465 30.698 28.5279 30.698H13.3974C12.1788 30.698 11.1909 29.7113 11.1909 28.4943V13.3831C11.1909 12.1661 12.1788 11.1794 13.3974 11.1794Z" stroke="#E1E1E1"/>
<path d="M22.2237 24.0868L19.0715 20.9387L22.2237 17.7905" stroke="#222D39" stroke-width="1.5" stroke-linecap="round" stroke-linejoin="round"/>
<path d="M61.7777 19.7538C61.7481 19.4799 61.6251 19.2671 61.4076 19.1147C61.1927 18.963 60.9121 18.8868 60.5679 18.8868C60.3252 18.8868 60.1171 18.9233 59.9438 18.9964C59.7704 19.0694 59.638 19.1683 59.546 19.2935C59.4539 19.4188 59.4066 19.5618 59.4048 19.7223C59.4048 19.8558 59.435 19.9717 59.4955 20.0699C59.5586 20.1681 59.6431 20.2512 59.7496 20.3205C59.8561 20.3872 59.974 20.4433 60.1039 20.4892C60.2332 20.5352 60.3636 20.5736 60.4954 20.6051L61.0975 20.7556C61.3396 20.8116 61.5728 20.8878 61.796 20.9841C62.0217 21.0798 62.2234 21.2007 62.4012 21.3468C62.5809 21.4928 62.7227 21.6691 62.8274 21.8757C62.932 22.0828 62.9844 22.3246 62.9844 22.6023C62.9844 22.9775 62.8879 23.3087 62.6956 23.5945C62.5034 23.8785 62.226 24.1008 61.8622 24.2613C61.5003 24.42 61.0628 24.4993 60.549 24.4993C60.0497 24.4993 59.616 24.4219 59.2484 24.2676C58.8821 24.1127 58.5959 23.8873 58.3891 23.5914C58.1842 23.2948 58.0739 22.9341 58.0569 22.5084H59.2011C59.2175 22.7313 59.2869 22.9171 59.4079 23.0657C59.529 23.2136 59.6872 23.3244 59.8814 23.3975C60.0774 23.4705 60.2968 23.507 60.5395 23.507C60.7923 23.507 61.0136 23.4693 61.204 23.3943C61.3963 23.3169 61.5463 23.2105 61.6554 23.0751C61.7638 22.9372 61.8193 22.7767 61.8212 22.5928C61.8193 22.426 61.7701 22.2881 61.6743 22.1798C61.5778 22.069 61.443 21.977 61.2696 21.904C61.0981 21.8291 60.8976 21.7623 60.6682 21.7038L59.9375 21.5161C59.4092 21.3801 58.9912 21.1749 58.6842 20.8991C58.379 20.6214 58.2265 20.2531 58.2265 19.7941C58.2265 19.4163 58.3286 19.0858 58.5335 18.8018C58.7403 18.5185 59.0215 18.2981 59.3764 18.1413C59.732 17.9827 60.1342 17.9033 60.583 17.9033C61.0389 17.9033 61.4379 17.9827 61.7809 18.1413C62.1251 18.2981 62.3962 18.516 62.5923 18.7955C62.7889 19.0732 62.8904 19.3924 62.8961 19.7538H61.7777ZM66.1019 24.4962C65.6196 24.4962 65.2022 24.3961 64.8511 24.1952C64.5024 23.9931 64.2339 23.7073 64.046 23.3377C63.8575 22.9662 63.7636 22.5292 63.7636 22.0261C63.7636 21.5319 63.8575 21.0974 64.046 20.7241C64.2358 20.3482 64.5012 20.056 64.8423 19.8476C65.1827 19.6367 65.583 19.5316 66.0426 19.5316C66.3389 19.5316 66.6188 19.5794 66.8824 19.6751C67.1478 19.7695 67.3816 19.9156 67.5846 20.1133C67.7895 20.3117 67.9503 20.5641 68.0669 20.8714C68.1842 21.1755 68.2428 21.5388 68.2428 21.9607V22.3076H64.2969V21.5438H67.1553C67.1528 21.3273 67.1062 21.134 67.0141 20.9652C66.9221 20.794 66.7935 20.6592 66.6283 20.561C66.4656 20.4634 66.2752 20.4143 66.0584 20.4143C65.8264 20.4143 65.6221 20.4703 65.4468 20.583C65.2716 20.6938 65.1348 20.8399 65.0364 21.0213C64.94 21.2007 64.8908 21.3978 64.8889 21.6131V22.2799C64.8889 22.5594 64.94 22.7993 65.0427 22.9995C65.1449 23.1979 65.288 23.3503 65.4721 23.4567C65.6562 23.5612 65.8711 23.6134 66.1176 23.6134C66.2828 23.6134 66.4322 23.5901 66.5659 23.5442C66.6995 23.4963 66.8155 23.4264 66.9139 23.3345C67.0122 23.2426 67.086 23.1292 67.1364 22.9932L68.1956 23.1123C68.1287 23.3918 68.0014 23.6361 67.8135 23.8451C67.6275 24.0517 67.3892 24.2122 67.0986 24.3268C66.8079 24.4395 66.4757 24.4962 66.1019 24.4962ZM69.2024 26.205V19.5939H70.3182V20.3891H70.3844C70.4424 20.272 70.525 20.148 70.6315 20.0164C70.7381 19.8829 70.8825 19.7695 71.064 19.6751C71.2462 19.5794 71.4782 19.5316 71.76 19.5316C72.132 19.5316 72.4674 19.626 72.7662 19.8161C73.0669 20.0038 73.3052 20.2827 73.4811 20.6523C73.6583 21.0194 73.7471 21.4702 73.7471 22.0041C73.7471 22.5324 73.6608 22.9807 73.4868 23.3502C73.3134 23.7198 73.0776 24.0013 72.7788 24.1952C72.48 24.3898 72.1414 24.4867 71.7632 24.4867C71.4877 24.4867 71.2588 24.4408 71.0766 24.3488C70.895 24.2569 70.7488 24.1461 70.6378 24.017C70.5294 23.8854 70.4449 23.7614 70.3844 23.6443H70.3371V26.205H69.2024ZM70.3151 21.9978C70.3151 22.3088 70.3592 22.5815 70.4468 22.8151C70.537 23.0487 70.665 23.2312 70.8327 23.3628C71.0016 23.4919 71.2065 23.5568 71.4467 23.5568C71.6976 23.5568 71.9075 23.49 72.0765 23.3565C72.2461 23.2212 72.3734 23.0361 72.4592 22.8025C72.5468 22.5664 72.5909 22.2988 72.5909 21.9978C72.5909 21.6994 72.548 21.4343 72.4623 21.2032C72.3766 20.9715 72.2492 20.7895 72.0796 20.6579C71.9107 20.527 71.6995 20.4609 71.4467 20.4609C71.204 20.4609 70.9985 20.5245 70.8295 20.6523C70.6599 20.7795 70.5313 20.9577 70.4437 21.1875C70.3579 21.4167 70.3151 21.6868 70.3151 21.9978ZM77.1231 19.5939V20.4703H74.3555V19.5939H77.1231ZM75.0383 18.4423H76.1731V22.9561C76.1731 23.1085 76.1964 23.225 76.2418 23.3062C76.2903 23.3855 76.3527 23.4403 76.4303 23.4693C76.5072 23.4982 76.5929 23.5133 76.6869 23.5133C76.7581 23.5133 76.823 23.5077 76.8817 23.4976C76.9422 23.4869 76.9882 23.4774 77.0191 23.4693L77.2108 24.3551C77.1502 24.3759 77.0632 24.3992 76.9504 24.4238C76.8394 24.449 76.7039 24.4634 76.5431 24.4678C76.2588 24.476 76.0028 24.4332 75.7752 24.3394C75.547 24.2437 75.3667 24.0951 75.2331 23.8949C75.1013 23.6947 75.0364 23.4441 75.0383 23.1437V18.4423ZM80.1511 24.4962C79.6688 24.4962 79.2515 24.3961 78.9009 24.1952C78.5517 23.9931 78.2831 23.7073 78.0952 23.3377C77.9074 22.9662 77.8128 22.5292 77.8128 22.0261C77.8128 21.5319 77.9074 21.0974 78.0952 20.7241C78.2856 20.3482 78.5504 20.056 78.8915 19.8476C79.2319 19.6367 79.6323 19.5316 80.0919 19.5316C80.3882 19.5316 80.6687 19.5794 80.9316 19.6751C81.197 19.7695 81.4309 19.9156 81.6339 20.1133C81.8388 20.3117 81.9996 20.5641 82.1162 20.8714C82.2334 21.1755 82.2921 21.5388 82.2921 21.9607V22.3076H78.3462V21.5438H81.2045C81.202 21.3273 81.1554 21.134 81.0633 20.9652C80.9713 20.794 80.8427 20.6592 80.6782 20.561C80.5149 20.4634 80.3245 20.4143 80.1076 20.4143C79.8756 20.4143 79.672 20.4703 79.4961 20.583C79.3208 20.6938 79.184 20.8399 79.0857 21.0213C78.9892 21.2007 78.9407 21.3978 78.9382 21.6131V22.2799C78.9382 22.5594 78.9892 22.7993 79.092 22.9995C79.1941 23.1979 79.3372 23.3503 79.5213 23.4567C79.7054 23.5612 79.9204 23.6134 80.1669 23.6134C80.332 23.6134 80.4814 23.5901 80.6151 23.5442C80.7487 23.4963 80.8647 23.4264 80.9631 23.3345C81.0614 23.2426 81.1352 23.1292 81.1857 22.9932L82.2448 23.1123C82.178 23.3918 82.0506 23.6361 81.8627 23.8451C81.6767 24.0517 81.4385 24.2122 81.1478 24.3268C80.8578 24.4395 80.5256 24.4962 80.1511 24.4962ZM83.2516 24.4017V19.5939H84.3366V20.4111H84.3927C84.4929 20.1354 84.6593 19.9207 84.8913 19.7664C85.1227 19.6096 85.4001 19.5316 85.7216 19.5316C86.0476 19.5316 86.3224 19.6109 86.5462 19.7695C86.7719 19.9257 86.9302 20.1398 87.0222 20.4111H87.0727C87.1792 20.1435 87.3589 19.9307 87.6117 19.7721C87.8664 19.6115 88.1684 19.5316 88.5176 19.5316C88.9602 19.5316 89.322 19.6713 89.6019 19.9509C89.8819 20.2304 90.0218 20.6384 90.0218 21.1749V24.4017H88.8839V21.3499C88.8839 21.0515 88.8044 20.8336 88.6462 20.6957C88.4873 20.556 88.2925 20.4861 88.0631 20.4861C87.7895 20.4861 87.5751 20.5717 87.4207 20.743C87.2681 20.9117 87.1918 21.1321 87.1918 21.4034V24.4017H86.0791V21.3033C86.0791 21.0546 86.0041 20.8563 85.8534 20.7083C85.7052 20.5604 85.5104 20.4861 85.2702 20.4861C85.1076 20.4861 84.9588 20.5276 84.8252 20.6114C84.6915 20.6926 84.585 20.8084 84.5055 20.9589C84.4261 21.1069 84.3864 21.28 84.3864 21.4784V24.4017H83.2516ZM91.2228 24.4017V17.9915H92.3576V20.3891H92.4049C92.4635 20.272 92.5455 20.148 92.652 20.0164C92.7592 19.8829 92.9029 19.7695 93.0851 19.6751C93.2667 19.5794 93.4987 19.5316 93.7805 19.5316C94.1524 19.5316 94.4878 19.626 94.7866 19.8161C95.0874 20.0038 95.3257 20.2827 95.5016 20.6523C95.6787 21.0194 95.7676 21.4702 95.7676 22.0041C95.7676 22.5324 95.6813 22.9807 95.5079 23.3502C95.3345 23.7198 95.0981 24.0013 94.7993 24.1952C94.5004 24.3898 94.1619 24.4867 93.7836 24.4867C93.5081 24.4867 93.2793 24.4408 93.0971 24.3488C92.9155 24.2569 92.7693 24.1461 92.6583 24.017C92.5499 23.8854 92.4654 23.7614 92.4049 23.6443H92.3387V24.4017H91.2228ZM92.3355 21.9978C92.3355 22.3088 92.3797 22.5815 92.4673 22.8151C92.5574 23.0487 92.6861 23.2312 92.8531 23.3628C93.0221 23.4919 93.227 23.5568 93.4672 23.5568C93.7181 23.5568 93.928 23.49 94.0969 23.3565C94.2665 23.2212 94.3939 23.0361 94.4796 22.8025C94.5672 22.5664 94.6114 22.2988 94.6114 21.9978C94.6114 21.6994 94.5685 21.4343 94.4828 21.2032C94.397 20.9715 94.2697 20.7895 94.1001 20.6579C93.9311 20.527 93.72 20.4609 93.4672 20.4609C93.2251 20.4609 93.0189 20.5245 92.85 20.6523C92.6804 20.7795 92.5518 20.9577 92.4641 21.1875C92.3784 21.4167 92.3355 21.6868 92.3355 21.9978ZM96.7322 24.4017V19.5939H97.8323V20.3954H97.8827C97.9703 20.1177 98.121 19.9037 98.3341 19.7538C98.5491 19.6014 98.795 19.5252 99.0705 19.5252C99.1329 19.5252 99.2035 19.5284 99.2804 19.5347C99.3598 19.5385 99.426 19.546 99.4777 19.5561V20.5988C99.4298 20.5818 99.3535 20.5673 99.2489 20.5547C99.1467 20.5402 99.0478 20.5333 98.9513 20.5333C98.7445 20.5333 98.5585 20.578 98.3934 20.6674C98.2307 20.7555 98.1021 20.8771 98.0082 21.0338C97.9143 21.1906 97.867 21.3707 97.867 21.5753V24.4017H96.7322ZM102.165 24.4962C101.682 24.4962 101.265 24.3961 100.914 24.1952C100.565 23.9931 100.297 23.7073 100.109 23.3377C99.9209 22.9662 99.8263 22.5292 99.8263 22.0261C99.8263 21.5319 99.9209 21.0974 100.109 20.7241C100.299 20.3482 100.564 20.056 100.905 19.8476C101.245 19.6367 101.646 19.5316 102.105 19.5316C102.402 19.5316 102.682 19.5794 102.945 19.6751C103.211 19.7695 103.444 19.9156 103.647 20.1133C103.852 20.3117 104.013 20.5641 104.13 20.8714C104.247 21.1755 104.306 21.5388 104.306 21.9607V22.3076H100.36V21.5438H103.218C103.216 21.3273 103.169 21.134 103.077 20.9652C102.985 20.794 102.856 20.6592 102.691 20.561C102.528 20.4634 102.338 20.4143 102.121 20.4143C101.889 20.4143 101.685 20.4703 101.51 20.583C101.334 20.6938 101.198 20.8399 101.099 21.0213C101.003 21.2007 100.954 21.3978 100.952 21.6131V22.2799C100.952 22.5594 101.003 22.7993 101.105 22.9995C101.208 23.1979 101.351 23.3503 101.535 23.4567C101.719 23.5612 101.934 23.6134 102.18 23.6134C102.346 23.6134 102.495 23.5901 102.629 23.5442C102.762 23.4963 102.878 23.4264 102.977 23.3345C103.075 23.2426 103.149 23.1292 103.199 22.9932L104.258 23.1123C104.191 23.3918 104.064 23.6361 103.876 23.8451C103.69 24.0517 103.452 24.2122 103.161 24.3268C102.871 24.4395 102.539 24.4962 102.165 24.4962Z" fill="#222D39"/>
<path d="M107.951 24.4017V23.5631L110.179 21.3814C110.393 21.1667 110.57 20.9753 110.712 20.8084C110.854 20.6416 110.961 20.4798 111.032 20.323C111.103 20.1668 111.138 20 111.138 19.8224C111.138 19.6203 111.092 19.4465 111 19.303C110.908 19.1569 110.782 19.0442 110.621 18.9649C110.46 18.8855 110.277 18.8459 110.073 18.8459C109.862 18.8459 109.677 18.89 109.518 18.9775C109.359 19.0631 109.236 19.1846 109.148 19.3433C109.062 19.502 109.019 19.6908 109.019 19.91H107.913C107.913 19.5032 108.006 19.1494 108.192 18.849C108.378 18.5487 108.634 18.3157 108.96 18.1508C109.288 17.9858 109.664 17.9033 110.088 17.9033C110.519 17.9033 110.897 17.9839 111.223 18.1445C111.549 18.305 111.802 18.5254 111.981 18.805C112.163 19.0845 112.254 19.4044 112.254 19.7633C112.254 20.0031 112.208 20.2386 112.116 20.4703C112.024 20.702 111.862 20.9589 111.63 21.2404C111.401 21.5224 111.078 21.8637 110.662 22.2641L109.555 23.388V23.4315H112.351V24.4017H107.951ZM115.805 24.5239C115.289 24.5239 114.846 24.3936 114.477 24.1329C114.108 23.8697 113.825 23.4913 113.627 22.9964C113.431 22.4996 113.332 21.9021 113.332 21.2032C113.334 20.5037 113.434 19.9093 113.63 19.4188C113.828 18.9265 114.111 18.5506 114.48 18.2918C114.849 18.033 115.291 17.9033 115.805 17.9033C116.319 17.9033 116.761 18.033 117.131 18.2918C117.501 18.5506 117.784 18.9265 117.98 19.4188C118.179 19.9112 118.278 20.5062 118.278 21.2032C118.278 21.904 118.179 22.5028 117.98 22.9995C117.784 23.4944 117.501 23.8722 117.131 24.1329C116.763 24.3936 116.321 24.5239 115.805 24.5239ZM115.805 23.5442C116.206 23.5442 116.523 23.3471 116.755 22.953C116.989 22.5563 117.106 21.9733 117.106 21.2032C117.106 20.6938 117.052 20.2657 116.946 19.9194C116.839 19.5731 116.689 19.3124 116.495 19.1368C116.3 18.9598 116.071 18.8711 115.805 18.8711C115.406 18.8711 115.091 19.0694 114.859 19.4654C114.627 19.8602 114.51 20.4388 114.507 21.2032C114.506 21.7145 114.557 22.1439 114.661 22.4927C114.768 22.8409 114.918 23.1041 115.113 23.2816C115.307 23.4567 115.538 23.5442 115.805 23.5442ZM119.32 24.4017V23.5631L121.548 21.3814C121.761 21.1667 121.939 20.9753 122.081 20.8084C122.223 20.6416 122.329 20.4798 122.4 20.323C122.472 20.1668 122.507 20 122.507 19.8224C122.507 19.6203 122.461 19.4465 122.369 19.303C122.278 19.1569 122.151 19.0442 121.99 18.9649C121.829 18.8855 121.646 18.8459 121.442 18.8459C121.23 18.8459 121.046 18.89 120.887 18.9775C120.728 19.0631 120.604 19.1846 120.517 19.3433C120.431 19.502 120.388 19.6908 120.388 19.91H119.282C119.282 19.5032 119.375 19.1494 119.561 18.849C119.747 18.5487 120.003 18.3157 120.329 18.1508C120.657 17.9858 121.033 17.9033 121.457 17.9033C121.887 17.9033 122.266 17.9839 122.591 18.1445C122.917 18.305 123.17 18.5254 123.35 18.805C123.532 19.0845 123.623 19.4044 123.623 19.7633C123.623 20.0031 123.577 20.2386 123.485 20.4703C123.393 20.702 123.231 20.9589 122.999 21.2404C122.769 21.5224 122.446 21.8637 122.03 22.2641L120.924 23.388V23.4315H123.72V24.4017H119.32ZM127.105 24.4899C126.654 24.4899 126.252 24.4124 125.901 24.2582C125.553 24.1039 125.276 23.8886 125.074 23.6134C124.871 23.3377 124.764 23.0197 124.751 22.6583H125.93C125.94 22.8314 125.998 22.9832 126.102 23.1123C126.206 23.2394 126.346 23.3389 126.519 23.4094C126.692 23.4806 126.887 23.5165 127.102 23.5165C127.332 23.5165 127.535 23.4768 127.713 23.3975C127.891 23.3156 128.03 23.2029 128.13 23.0594C128.23 22.9152 128.279 22.749 128.277 22.5613C128.279 22.3674 128.229 22.1961 128.127 22.0482C128.025 21.9002 127.876 21.7844 127.682 21.7006C127.489 21.6169 127.257 21.5753 126.986 21.5753H126.419V20.68H126.986C127.209 20.68 127.405 20.6416 127.572 20.5641C127.742 20.4873 127.874 20.3784 127.97 20.2386C128.066 20.0969 128.113 19.9332 128.111 19.7475C128.113 19.5655 128.072 19.4081 127.989 19.2747C127.907 19.1393 127.791 19.0335 127.641 18.9586C127.492 18.8837 127.318 18.8459 127.117 18.8459C126.921 18.8459 126.739 18.8811 126.572 18.9523C126.405 19.0234 126.27 19.1242 126.168 19.2558C126.066 19.3855 126.011 19.5397 126.005 19.7192H124.886C124.894 19.3603 124.998 19.0448 125.196 18.7741C125.397 18.5002 125.664 18.2874 125.998 18.135C126.333 17.9808 126.708 17.9033 127.124 17.9033C127.552 17.9033 127.924 17.9839 128.24 18.1445C128.557 18.3031 128.803 18.5172 128.977 18.7861C129.15 19.0555 129.236 19.3527 129.236 19.6782C129.238 20.0397 129.132 20.3419 128.917 20.5862C128.704 20.8305 128.424 20.9898 128.077 21.0653V21.1151C128.528 21.178 128.874 21.3449 129.114 21.6162C129.357 21.8851 129.476 22.2201 129.475 22.6211C129.475 22.98 129.372 23.3011 129.168 23.5851C128.965 23.8665 128.685 24.0882 128.327 24.2487C127.972 24.4093 127.565 24.4899 127.105 24.4899Z" fill="#222D39"/>
<path d="M159.028 11.1794H174.158C175.377 11.1794 176.365 12.1661 176.365 13.3831V28.4943C176.365 29.7113 175.377 30.698 174.158 30.698H159.028C157.809 30.698 156.822 29.7113 156.822 28.4943V13.3831C156.822 12.1661 157.809 11.1794 159.028 11.1794Z" fill="white"/>
<path d="M159.028 11.1794H174.158C175.377 11.1794 176.365 12.1661 176.365 13.3831V28.4943C176.365 29.7113 175.377 30.698 174.158 30.698H159.028C157.809 30.698 156.822 29.7113 156.822 28.4943V13.3831C156.822 12.1661 157.809 11.1794 159.028 11.1794Z" stroke="#E1E1E1"/>
<path d="M165.332 17.7905L168.484 20.9387L165.332 24.0868" stroke="#222D39" stroke-width="1.5" stroke-linecap="round" stroke-linejoin="round"/>
<path d="M14.0354 54.6238V50.0452H14.8663V53.9287H16.8856V54.6238H14.0354ZM20.4967 50.0452H21.327V53.0365C21.327 53.3646 21.2495 53.6529 21.0944 53.9016C20.9406 54.151 20.7243 54.3455 20.4451 54.4853C20.1658 54.6238 19.8398 54.6937 19.4666 54.6937C19.0922 54.6937 18.765 54.6238 18.4863 54.4853C18.207 54.3455 17.9908 54.151 17.8369 53.9016C17.6831 53.6529 17.6062 53.3646 17.6062 53.0365V50.0452H18.4371V52.9673C18.4371 53.158 18.4787 53.328 18.562 53.4773C18.6471 53.6259 18.7668 53.743 18.9207 53.828C19.0739 53.9117 19.2561 53.9533 19.4666 53.9533C19.6772 53.9533 19.8594 53.9117 20.0132 53.828C20.1683 53.743 20.2875 53.6259 20.3713 53.4773C20.4545 53.328 20.4967 53.158 20.4967 52.9673V50.0452ZM25.9979 50.0452V54.6238H25.2591L23.0986 51.5053H23.0607V54.6238H22.2298V50.0452H22.9731L25.1311 53.1662H25.1714V50.0452H25.9979Z" fill="#B6BABE"/>
<path d="M38.1836 50.0452H39.1999L40.561 53.3633H40.6146L41.9757 50.0452H42.9925V54.6238H42.1951V51.4782H42.1528L40.8856 54.6106H40.2899L39.0227 51.4713H38.9805V54.6238H38.1836V50.0452ZM44.4854 54.6238H43.599L45.213 50.0452H46.2387L47.8551 54.6238H46.9681L45.7438 50.9839H45.7078L44.4854 54.6238ZM44.5144 52.8288H46.9328V53.4949H44.5144V52.8288ZM48.4591 54.6238V50.0452H50.1782C50.5307 50.0452 50.8257 50.1062 51.0646 50.2284C51.3048 50.3505 51.4864 50.5218 51.6087 50.7428C51.7329 50.9619 51.7947 51.2175 51.7947 51.5097C51.7947 51.8031 51.7316 52.0581 51.6068 52.2741C51.4826 52.4888 51.2998 52.655 51.0577 52.7727C50.8163 52.8892 50.5193 52.9471 50.1669 52.9471H48.9426V52.2583H50.0553C50.2608 52.2583 50.4298 52.23 50.5609 52.1733C50.692 52.1154 50.7892 52.031 50.8522 51.9208C50.9165 51.8094 50.948 51.6721 50.948 51.5097C50.948 51.3472 50.9165 51.2087 50.8522 51.0935C50.7879 50.9776 50.6902 50.8895 50.559 50.8297C50.4273 50.7686 50.2583 50.7384 50.0503 50.7384H49.2893V54.6238H48.4591ZM50.8276 52.5492L51.9624 54.6238H51.0356L49.9211 52.5492H50.8276Z" fill="#B6BABE"/>
<path d="M63.7673 50.0452H64.7836L66.1447 53.3633H66.1983L67.5594 50.0452H68.5763V54.6238H67.7788V51.4782H67.7366L66.4694 54.6106H65.8736L64.6071 51.4713H64.5642V54.6238H63.7673V50.0452ZM69.4803 54.6238V50.0452H72.4623V50.7403H70.3113V51.9838H72.3078V52.6789H70.3113V53.9287H72.4806V54.6238H69.4803ZM73.3102 54.6238V50.0452H75.0294C75.3818 50.0452 75.6769 50.1062 75.9158 50.2284C76.156 50.3505 76.3376 50.5218 76.4599 50.7428C76.5841 50.9619 76.6459 51.2175 76.6459 51.5097C76.6459 51.8031 76.5828 52.0581 76.4574 52.2741C76.3338 52.4888 76.151 52.655 75.9089 52.7727C75.6674 52.8892 75.3705 52.9471 75.0181 52.9471H73.7938V52.2583H74.9065C75.112 52.2583 75.281 52.23 75.4121 52.1733C75.5432 52.1154 75.6403 52.031 75.7034 51.9208C75.7677 51.8094 75.7992 51.6721 75.7992 51.5097C75.7992 51.3472 75.7677 51.2087 75.7034 51.0935C75.6391 50.9776 75.5413 50.8895 75.4102 50.8297C75.2785 50.7686 75.1089 50.7384 74.9015 50.7384H74.1405V54.6238H73.3102ZM75.6788 52.5492L76.8136 54.6238H75.8868L74.7716 52.5492H75.6788Z" fill="#B6BABE"/>
<path d="M90.6763 50.0452H91.4996V53.2645C91.4984 53.5598 91.436 53.8141 91.3118 54.0269C91.1882 54.2391 91.0148 54.4022 90.7923 54.5168C90.5716 54.6301 90.3144 54.6868 90.02 54.6868C89.7515 54.6868 89.5094 54.6389 89.295 54.5439C89.0813 54.4469 88.9117 54.3033 88.7862 54.1145C88.6614 53.9249 88.5984 53.6895 88.5984 53.408H89.4249C89.4261 53.5314 89.4533 53.6378 89.5049 53.7272C89.5592 53.8173 89.6329 53.8853 89.7269 53.9331C89.8208 53.981 89.9292 54.0049 90.0515 54.0049C90.1846 54.0049 90.2968 53.9772 90.3895 53.9218C90.4821 53.8651 90.5521 53.782 90.6 53.6718C90.6492 53.5616 90.6744 53.4256 90.6763 53.2645V50.0452ZM92.4012 54.6238V50.0452H95.3831V50.7403H93.2315V51.9838H95.2287V52.6789H93.2315V53.9287H95.4008V54.6238H92.4012ZM99.121 50.0452H99.9513V53.0365C99.9513 53.3646 99.8737 53.6529 99.7186 53.9016C99.5648 54.151 99.3486 54.3455 99.0693 54.4853C98.79 54.6238 98.4641 54.6937 98.0908 54.6937C97.7164 54.6937 97.3892 54.6238 97.1105 54.4853C96.8312 54.3455 96.615 54.151 96.4612 53.9016C96.3073 53.6529 96.2304 53.3646 96.2304 53.0365V50.0452H97.0607V52.9673C97.0607 53.158 97.103 53.328 97.1862 53.4773C97.2713 53.6259 97.391 53.743 97.5449 53.828C97.6981 53.9117 97.8803 53.9533 98.0908 53.9533C98.3014 53.9533 98.4836 53.9117 98.6368 53.828C98.7925 53.743 98.9117 53.6259 98.9955 53.4773C99.0787 53.328 99.121 53.158 99.121 52.9673V50.0452Z" fill="#B6BABE"/>
<path d="M112.899 50.0452L114.092 53.6492H114.139L115.329 50.0452H116.243L114.627 54.6238H113.601L111.988 50.0452H112.899ZM116.847 54.6238V50.0452H119.829V50.7403H117.678V51.9838H119.674V52.6789H117.678V53.9287H119.847V54.6238H116.847ZM124.444 50.0452V54.6238H123.705L121.545 51.5053H121.507V54.6238H120.676V50.0452H121.419L123.578 53.1662H123.618V50.0452H124.444Z" fill="#B6BABE"/>
<path d="M139.063 51.3038C139.043 51.1086 138.954 50.9562 138.799 50.8479C138.645 50.739 138.446 50.6842 138.199 50.6842C138.026 50.6842 137.878 50.7107 137.753 50.7629C137.63 50.8152 137.535 50.8857 137.469 50.9751C137.404 51.0645 137.37 51.1665 137.368 51.2817C137.368 51.3768 137.39 51.4593 137.433 51.5298C137.478 51.5997 137.538 51.6595 137.615 51.7086C137.691 51.7565 137.775 51.7961 137.868 51.8295C137.96 51.8623 138.053 51.8893 138.147 51.912L138.577 52.019C138.751 52.0593 138.917 52.1141 139.077 52.1827C139.238 52.2514 139.382 52.3376 139.509 52.4421C139.637 52.546 139.739 52.672 139.813 52.8199C139.888 52.9673 139.925 53.1404 139.925 53.3387C139.925 53.607 139.857 53.8431 139.719 54.0471C139.582 54.2498 139.383 54.4085 139.124 54.5237C138.865 54.637 138.553 54.6937 138.186 54.6937C137.829 54.6937 137.52 54.6383 137.257 54.5281C136.996 54.4179 136.791 54.2567 136.643 54.0452C136.497 53.8336 136.417 53.5755 136.406 53.2714H137.223C137.235 53.4307 137.284 53.5635 137.371 53.6693C137.457 53.7751 137.57 53.8544 137.709 53.9067C137.849 53.9583 138.006 53.9847 138.179 53.9847C138.359 53.9847 138.517 53.9577 138.654 53.9041C138.791 53.8487 138.898 53.7732 138.976 53.6762C139.053 53.578 139.093 53.4628 139.094 53.3318C139.093 53.2128 139.058 53.114 138.989 53.0365C138.921 52.9578 138.825 52.8923 138.7 52.8401C138.578 52.7859 138.435 52.7387 138.271 52.6965L137.749 52.5624C137.371 52.4654 137.073 52.3187 136.854 52.1223C136.636 51.924 136.527 51.6608 136.527 51.3327C136.527 51.0633 136.6 50.8265 136.746 50.6238C136.894 50.4217 137.095 50.2643 137.349 50.1522C137.602 50.0388 137.89 49.9822 138.21 49.9822C138.536 49.9822 138.821 50.0388 139.065 50.1522C139.312 50.2643 139.505 50.4198 139.645 50.6194C139.786 50.8177 139.858 51.0456 139.862 51.3038H139.063ZM141.18 54.6238H140.294L141.908 50.0451H142.934L144.55 54.6238H143.663L142.439 50.9839H142.403L141.18 54.6238ZM141.209 52.8287H143.628V53.4949H141.209V52.8287ZM145.154 50.0451H146.17L147.531 53.3633H147.585L148.946 50.0451H149.962V54.6238H149.166V51.4782H149.123L147.856 54.6106H147.26L145.993 51.4713H145.951V54.6238H145.154V50.0451Z" fill="#B6BABE"/>
<path d="M163.854 54.6238H162.301V50.0452H163.885C164.341 50.0452 164.731 50.1365 165.059 50.3203C165.387 50.5016 165.639 50.7636 165.815 51.1048C165.991 51.4461 166.079 51.8547 166.079 52.3301C166.079 52.8073 165.99 53.2172 165.813 53.5598C165.637 53.9029 165.383 54.1655 165.05 54.3493C164.718 54.5325 164.32 54.6238 163.854 54.6238ZM163.131 53.9067H163.814C164.133 53.9067 164.4 53.8481 164.613 53.7323C164.827 53.6145 164.987 53.4389 165.095 53.2065C165.202 52.9723 165.255 52.6802 165.255 52.3301C165.255 51.98 165.202 51.6891 165.095 51.4581C164.987 51.2257 164.828 51.0519 164.617 50.9373C164.409 50.8209 164.149 50.7629 163.838 50.7629H163.131V53.9067ZM167.699 50.0452V54.6238H166.869V50.0452H167.699ZM168.599 50.0452H169.615L170.976 53.3633H171.03L172.391 50.0452H173.408V54.6238H172.611V51.4782H172.568L171.301 54.6106H170.706L169.438 51.4713H169.395V54.6238H168.599V50.0452Z" fill="#B6BABE"/>
<path d="M18.199 75.792C17.8125 75.792 17.4683 75.7259 17.1676 75.593C16.8688 75.4608 16.6324 75.2769 16.4584 75.0408C16.285 74.8047 16.1924 74.5315 16.1816 74.2223H17.1916C17.201 74.3709 17.2502 74.5006 17.3397 74.6114C17.4293 74.7204 17.5484 74.8054 17.6972 74.8664C17.8454 74.9269 18.0124 74.9577 18.1965 74.9577C18.3938 74.9577 18.5685 74.9237 18.7204 74.8557C18.873 74.7858 18.9921 74.6889 19.0779 74.5655C19.1636 74.4421 19.2058 74.2998 19.2039 74.1392C19.2058 73.973 19.1629 73.8263 19.0753 73.6991C18.9871 73.5719 18.8603 73.4731 18.6939 73.4013C18.5287 73.3295 18.3302 73.2936 18.0975 73.2936H17.6108V72.5267H18.0975C18.2892 72.5267 18.4562 72.4934 18.5993 72.4272C18.745 72.3611 18.8584 72.268 18.941 72.1483C19.023 72.0268 19.0634 71.8864 19.0615 71.7271C19.0634 71.5716 19.0287 71.4362 18.9568 71.3216C18.8868 71.2058 18.7878 71.1151 18.6586 71.0509C18.5312 70.9867 18.3818 70.9545 18.2104 70.9545C18.0414 70.9545 17.8857 70.9848 17.7426 71.0452C17.5995 71.1063 17.4841 71.1932 17.3958 71.3059C17.3082 71.4167 17.2615 71.5489 17.2565 71.7025H16.297C16.3046 71.3953 16.3928 71.1252 16.563 70.8928C16.7352 70.658 16.9646 70.476 17.2508 70.3451C17.5377 70.2128 17.8592 70.1467 18.2154 70.1467C18.5823 70.1467 18.9013 70.2154 19.1718 70.3532C19.4441 70.4892 19.6547 70.6725 19.8035 70.9035C19.9516 71.134 20.026 71.389 20.026 71.6679C20.0279 71.9777 19.9365 72.2365 19.7524 72.4461C19.5696 72.6552 19.3294 72.7924 19.0324 72.8567V72.8995C19.4189 72.953 19.7152 73.0965 19.9214 73.3289C20.1294 73.5593 20.2322 73.8464 20.2303 74.1902C20.2303 74.4975 20.1426 74.7732 19.9668 75.0163C19.7934 75.2581 19.5532 75.4476 19.2468 75.5855C18.9423 75.7227 18.593 75.792 18.199 75.792ZM23.39 70.2217V75.7164H22.3939V71.1907H22.3612L21.0744 72.0117V71.0994L22.4419 70.2217H23.39Z" fill="#B6BABE"/>
<path d="M45.5131 70.2217V75.7165H44.5164V71.1907H44.4842L43.1975 72.0117V71.0994L44.5649 70.2217H45.5131Z" fill="#222D39"/>
<path d="M67.3305 75.7164V74.9974L69.2407 73.1274C69.4229 72.9435 69.5755 72.7798 69.6971 72.6363C69.8188 72.4934 69.9102 72.3548 69.9714 72.2207C70.0319 72.0866 70.0628 71.9437 70.0628 71.7913C70.0628 71.6182 70.0231 71.4696 69.9443 71.3462C69.8655 71.2209 69.757 71.1239 69.6196 71.0559C69.4815 70.9885 69.3246 70.9545 69.1493 70.9545C68.9684 70.9545 68.8095 70.9917 68.674 71.0673C68.5378 71.1403 68.4319 71.2448 68.3569 71.3808C68.2831 71.5168 68.2465 71.6786 68.2465 71.8662H67.2983C67.2983 71.5174 67.3778 71.2146 67.5373 70.9571C67.6968 70.6995 67.9162 70.5 68.1955 70.3589C68.4766 70.2173 68.7988 70.1467 69.1626 70.1467C69.5314 70.1467 69.856 70.2154 70.1353 70.3532C70.4146 70.4911 70.6315 70.6794 70.7853 70.9193C70.941 71.1592 71.0192 71.4331 71.0192 71.7403C71.0192 71.9462 70.9794 72.1483 70.9006 72.3467C70.8218 72.5456 70.6832 72.7654 70.4846 73.0071C70.2872 73.2483 70.0105 73.5411 69.6543 73.8842L68.7061 74.8475V74.8847H71.1024V75.7164H67.3305Z" fill="#222D39"/>
<path d="M93.7774 75.792C93.3909 75.792 93.0467 75.7259 92.746 75.593C92.4465 75.4608 92.2101 75.2769 92.0367 75.0408C91.8627 74.8047 91.7707 74.5315 91.76 74.2223H92.77C92.7788 74.3709 92.8286 74.5006 92.9181 74.6114C93.0076 74.7204 93.1268 74.8054 93.2749 74.8664C93.4237 74.9269 93.5902 74.9577 93.7749 74.9577C93.9722 74.9577 94.1468 74.9237 94.2988 74.8557C94.4507 74.7858 94.5699 74.6889 94.6562 74.5655C94.742 74.4421 94.7842 74.2998 94.7823 74.1392C94.7842 73.973 94.7413 73.8263 94.6531 73.6991C94.5654 73.5719 94.4387 73.4731 94.2717 73.4013C94.1071 73.3295 93.9085 73.2936 93.6752 73.2936H93.1892V72.5267H93.6752C93.8669 72.5267 94.0346 72.4934 94.1777 72.4272C94.3227 72.3611 94.4368 72.268 94.5188 72.1483C94.6014 72.0268 94.6417 71.8864 94.6398 71.7271C94.6417 71.5716 94.607 71.4362 94.5352 71.3216C94.4652 71.2058 94.3662 71.1151 94.237 71.0509C94.1096 70.9867 93.9602 70.9545 93.7881 70.9545C93.6198 70.9545 93.464 70.9848 93.3209 71.0452C93.1778 71.1063 93.0618 71.1932 92.9742 71.3059C92.8866 71.4167 92.8399 71.5489 92.8349 71.7025H91.8754C91.8829 71.3953 91.9712 71.1252 92.1414 70.8928C92.3135 70.658 92.5424 70.476 92.8292 70.3451C93.1161 70.2128 93.4376 70.1467 93.7938 70.1467C94.1607 70.1467 94.4797 70.2154 94.7501 70.3532C95.0225 70.4892 95.233 70.6725 95.3812 70.9035C95.53 71.134 95.6044 71.389 95.6044 71.6679C95.6063 71.9777 95.5149 72.2365 95.3301 72.4461C95.1479 72.6552 94.9078 72.7924 94.6102 72.8567V72.8995C94.9973 72.953 95.2936 73.0965 95.4998 73.3289C95.7072 73.5593 95.8106 73.8464 95.8087 74.1902C95.8087 74.4975 95.721 74.7732 95.5451 75.0163C95.3718 75.2581 95.1316 75.4476 94.8252 75.5855C94.5207 75.7227 94.1714 75.792 93.7774 75.792Z" fill="#222D39"/>
<path d="M109.224 66.2719C109.224 64.8811 110.353 63.7534 111.745 63.7534H124.985C126.377 63.7534 127.506 64.8811 127.506 66.2719V79.4941C127.506 80.8856 126.377 82.0127 124.985 82.0127H111.745C110.353 82.0127 109.224 80.8856 109.224 79.4941V66.2719Z" fill="#F2FAFF"/>
<path d="M116.235 74.6971V73.9056L118.57 70.2217H119.231V71.3487H118.828L117.256 73.8357V73.8786H120.515V74.6971H116.235ZM118.86 75.7165V74.4559L118.871 74.1015V70.2217H119.811V75.7165H118.86Z" fill="#0080CC"/>
<path d="M142.96 75.792C142.601 75.792 142.281 75.7246 141.998 75.5905C141.715 75.4545 141.49 75.2688 141.323 75.0327C141.159 74.7966 141.071 74.5265 141.061 74.2223H142.028C142.045 74.4478 142.143 74.6316 142.32 74.7752C142.498 74.9162 142.711 74.9867 142.96 74.9867C143.155 74.9867 143.329 74.942 143.481 74.8526C143.633 74.7632 143.753 74.6392 143.841 74.4799C143.929 74.3206 143.972 74.1392 143.97 73.9352C143.972 73.7275 143.928 73.5436 143.838 73.3824C143.749 73.2212 143.626 73.0953 143.47 73.004C143.314 72.9115 143.135 72.8649 142.933 72.8649C142.768 72.863 142.606 72.8932 142.447 72.9562C142.287 73.0185 142.161 73.101 142.068 73.203L141.168 73.055L141.455 70.2217H144.647V71.0534H142.28L142.122 72.5104H142.154C142.256 72.3908 142.4 72.2913 142.586 72.2126C142.773 72.132 142.977 72.0917 143.199 72.0917C143.532 72.0917 143.829 72.1704 144.091 72.3278C144.352 72.4839 144.558 72.698 144.709 72.9719C144.859 73.2458 144.935 73.5587 144.935 73.9113C144.935 74.274 144.85 74.5976 144.682 74.8822C144.515 75.1649 144.283 75.3878 143.986 75.5502C143.691 75.7114 143.348 75.792 142.96 75.792Z" fill="#222D39"/>
<path d="M167.59 75.792C167.326 75.7901 167.07 75.7448 166.819 75.6547C166.568 75.5641 166.342 75.4161 166.142 75.2121C165.941 75.0068 165.782 74.7336 165.663 74.3942C165.545 74.0523 165.487 73.6292 165.489 73.1249C165.489 72.6545 165.539 72.2352 165.639 71.8662C165.739 71.4979 165.884 71.1869 166.072 70.9325C166.26 70.6769 166.487 70.4823 166.751 70.3476C167.019 70.2135 167.317 70.1467 167.646 70.1467C167.992 70.1467 168.298 70.2147 168.565 70.3507C168.834 70.4867 169.051 70.6725 169.215 70.9086C169.38 71.1428 169.482 71.4079 169.521 71.7025H168.54C168.491 71.4916 168.387 71.3235 168.232 71.1982C168.078 71.0717 167.882 71.0081 167.646 71.0081C167.264 71.0081 166.971 71.1737 166.765 71.5042C166.561 71.8354 166.458 72.2894 166.456 72.8674H166.493C166.581 72.71 166.695 72.5746 166.835 72.4619C166.974 72.3492 167.132 72.2629 167.307 72.2018C167.485 72.1395 167.672 72.108 167.869 72.108C168.191 72.108 168.481 72.1848 168.737 72.3385C168.994 72.4927 169.199 72.7043 169.349 72.9744C169.5 73.2432 169.574 73.5505 169.573 73.8974C169.574 74.2588 169.492 74.5837 169.325 74.8715C169.158 75.1579 168.927 75.3834 168.629 75.5477C168.332 75.712 167.986 75.7939 167.59 75.792ZM167.584 74.9867C167.78 74.9867 167.954 74.9395 168.108 74.845C168.262 74.75 168.384 74.6221 168.474 74.461C168.563 74.2998 168.607 74.1197 168.605 73.9188C168.607 73.7224 168.564 73.5442 168.476 73.3849C168.39 73.2263 168.271 73.0997 168.119 73.0071C167.967 72.914 167.793 72.8674 167.598 72.8674C167.452 72.8674 167.317 72.8951 167.192 72.9505C167.067 73.0059 166.957 73.0827 166.864 73.1809C166.771 73.2779 166.698 73.3906 166.644 73.519C166.592 73.6462 166.565 73.7822 166.563 73.927C166.565 74.1184 166.61 74.2947 166.698 74.4559C166.785 74.6165 166.906 74.7455 167.06 74.8419C167.215 74.9388 167.389 74.9867 167.584 74.9867Z" fill="#222D39"/>
<path d="M18.4877 99.0128L20.8272 94.3876V94.3498H18.1113V93.5181H21.8593V94.3687L19.5216 99.0128H18.4877Z" fill="#222D39"/>
<path d="M44.6072 99.0884C44.2075 99.0884 43.8532 99.021 43.5431 98.8869C43.2348 98.7528 42.9933 98.5695 42.8181 98.3372C42.6441 98.1024 42.5583 97.8373 42.5596 97.5401C42.5583 97.3097 42.6081 97.0975 42.7102 96.9042C42.8124 96.7109 42.9504 96.5503 43.1238 96.4213C43.2997 96.2909 43.4945 96.2078 43.7095 96.1719V96.1341C43.4264 96.0718 43.1976 95.9276 43.0217 95.7022C42.8483 95.4749 42.7619 95.213 42.7638 94.9158C42.7619 94.6337 42.8408 94.3813 43.0003 94.1596C43.1598 93.9374 43.3785 93.763 43.6559 93.6364C43.9333 93.5073 44.2504 93.4431 44.6072 93.4431C44.9597 93.4431 45.2742 93.5073 45.5497 93.6364C45.8278 93.763 46.0459 93.9374 46.2054 94.1596C46.3668 94.3813 46.4475 94.6337 46.4475 94.9158C46.4475 95.213 46.3586 95.4749 46.1814 95.7022C46.0055 95.9276 45.7792 96.0718 45.5018 96.1341V96.1719C45.7168 96.2078 45.9097 96.2909 46.0818 96.4213C46.2558 96.5503 46.3933 96.7109 46.4954 96.9042C46.5994 97.0975 46.6517 97.3097 46.6517 97.5401C46.6517 97.8373 46.5635 98.1024 46.3882 98.3372C46.2123 98.5695 45.9709 98.7528 45.6626 98.8869C45.3568 99.021 45.0044 99.0884 44.6072 99.0884ZM44.6072 98.3208C44.8128 98.3208 44.9918 98.2862 45.1444 98.2163C45.2963 98.1446 45.4148 98.0444 45.4987 97.916C45.5832 97.7869 45.626 97.6383 45.6279 97.4702C45.626 97.2952 45.5806 97.1403 45.4911 97.0062C45.4028 96.8702 45.2824 96.7638 45.128 96.687C44.976 96.6101 44.802 96.5717 44.6072 96.5717C44.4099 96.5717 44.2347 96.6101 44.0802 96.687C43.9264 96.7638 43.8047 96.8702 43.7151 97.0062C43.6275 97.1403 43.584 97.2952 43.5859 97.4702C43.584 97.6383 43.6256 97.7869 43.7095 97.916C43.794 98.0425 43.9119 98.142 44.0644 98.2138C44.2182 98.285 44.3992 98.3208 44.6072 98.3208ZM44.6072 95.8174C44.7756 95.8174 44.9237 95.7834 45.0529 95.7154C45.1834 95.6474 45.2868 95.553 45.3618 95.4315C45.4369 95.3093 45.4753 95.1689 45.4772 95.0103C45.4753 94.8528 45.4381 94.715 45.3644 94.5966C45.2913 94.477 45.1891 94.385 45.0586 94.3202C44.9275 94.2541 44.7775 94.2213 44.6072 94.2213C44.4332 94.2213 44.28 94.2541 44.1476 94.3202C44.0171 94.385 43.915 94.477 43.8412 94.5966C43.7694 94.715 43.7347 94.8528 43.7366 95.0103C43.7347 95.1689 43.7707 95.3093 43.8438 95.4315C43.9194 95.5511 44.0222 95.6455 44.1527 95.7154C44.2857 95.7834 44.437 95.8174 44.6072 95.8174Z" fill="#222D39"/>
<path d="M69.1375 93.443C69.4003 93.4449 69.6563 93.4915 69.9053 93.5821C70.1563 93.6722 70.3819 93.8182 70.5824 94.0222C70.7829 94.2244 70.9424 94.4957 71.0609 94.8357C71.1788 95.1751 71.2381 95.5957 71.2381 96.0962C71.24 96.5685 71.1895 96.9909 71.0874 97.3631C70.9872 97.7333 70.8434 98.0462 70.6549 98.3018C70.4671 98.5575 70.2407 98.7527 69.9753 98.8868C69.7105 99.0209 69.4123 99.0882 69.0807 99.0882C68.7334 99.0882 68.4251 99.0203 68.1565 98.8843C67.8898 98.7483 67.6742 98.5625 67.509 98.3264C67.3445 98.0903 67.243 97.8202 67.2058 97.5161H68.1861C68.2366 97.7339 68.3387 97.9077 68.4925 98.0361C68.6482 98.1633 68.8443 98.2269 69.0807 98.2269C69.4622 98.2269 69.7559 98.0613 69.9621 97.7308C70.1682 97.3996 70.271 96.94 70.271 96.3512H70.2332C70.1455 96.5087 70.0321 96.6447 69.8921 96.7593C69.7521 96.872 69.5939 96.9588 69.4167 97.0193C69.2408 97.0804 69.0549 97.1106 68.8576 97.1106C68.5354 97.1106 68.2454 97.0338 67.9876 96.8801C67.731 96.7259 67.528 96.5149 67.3773 96.2467C67.2291 95.9785 67.1535 95.6719 67.1516 95.3262C67.1516 94.9686 67.2342 94.6475 67.3987 94.3635C67.5658 94.077 67.7978 93.8516 68.0947 93.6873C68.3923 93.5204 68.7397 93.4392 69.1375 93.443ZM69.14 94.2477C68.9465 94.2477 68.7718 94.2955 68.6161 94.39C68.4623 94.4831 68.34 94.6103 68.2504 94.7709C68.1628 94.9302 68.1193 95.1084 68.1193 95.3048C68.1206 95.5 68.1647 95.6769 68.2504 95.8362C68.3387 95.9955 68.4572 96.1214 68.6079 96.2146C68.7605 96.3078 68.9338 96.3538 69.1293 96.3538C69.2743 96.3538 69.4092 96.3261 69.5346 96.2707C69.6601 96.2153 69.7692 96.1384 69.8625 96.0402C69.9577 95.9401 70.0308 95.8261 70.0831 95.6996C70.1367 95.5724 70.1625 95.4383 70.1606 95.2966C70.1606 95.109 70.1159 94.9358 70.0264 94.7765C69.9388 94.6172 69.8177 94.4894 69.6639 94.3925C69.5113 94.2961 69.3367 94.2477 69.14 94.2477Z" fill="#222D39"/>
<path d="M92.164 93.518V99.0128H91.1673V94.487H91.1351L89.8484 95.3081V94.3957L91.2158 93.518H92.164ZM95.5948 99.118C95.1523 99.118 94.7727 99.0059 94.4556 98.7824C94.1404 98.557 93.8977 98.2321 93.7275 97.8083C93.5591 97.3827 93.4753 96.8702 93.4753 96.2708C93.4772 95.672 93.5623 95.162 93.7306 94.7414C93.9008 94.3195 94.1436 93.9978 94.4588 93.7756C94.7753 93.5539 95.1542 93.4431 95.5948 93.4431C96.0355 93.4431 96.4144 93.5539 96.7315 93.7756C97.0486 93.9978 97.2907 94.3195 97.459 94.7414C97.6292 95.1639 97.7144 95.6739 97.7144 96.2708C97.7144 96.8721 97.6292 97.3852 97.459 97.8108C97.2907 98.2352 97.0486 98.5588 96.7315 98.7824C96.4163 99.0059 96.0374 99.118 95.5948 99.118ZM95.5948 98.278C95.9391 98.278 96.2101 98.1087 96.4087 97.7706C96.6092 97.4312 96.7101 96.9313 96.7101 96.2708C96.7101 95.8344 96.664 95.468 96.5726 95.1708C96.4812 94.8743 96.3526 94.6507 96.1862 94.5003C96.0191 94.3479 95.8224 94.2723 95.5948 94.2723C95.2525 94.2723 94.9827 94.4423 94.7834 94.7817C94.5848 95.1198 94.4846 95.6166 94.4827 96.2708C94.4808 96.709 94.525 97.078 94.6145 97.3764C94.7059 97.6748 94.8345 97.9003 95.001 98.0526C95.168 98.2031 95.3654 98.278 95.5948 98.278Z" fill="#222D39"/>
<path d="M117.456 93.5181V99.0128H116.46V94.4871H116.428L115.141 95.3081V94.3958L116.508 93.5181H117.456ZM121.092 93.5181V99.0128H120.095V94.4871H120.063L118.776 95.3081V94.3958L120.143 93.5181H121.092Z" fill="#222D39"/>
<path d="M141.512 93.518V99.0128H140.515V94.487H140.483L139.196 95.3081V94.3957L140.563 93.518H141.512ZM142.909 99.0128V98.2938L144.819 96.4238C145.001 96.2399 145.154 96.0762 145.276 95.9327C145.397 95.7897 145.489 95.6512 145.55 95.5171C145.61 95.383 145.641 95.2401 145.641 95.0877C145.641 94.9146 145.602 94.766 145.523 94.6426C145.444 94.5173 145.336 94.4203 145.198 94.3523C145.06 94.2849 144.903 94.2509 144.728 94.2509C144.547 94.2509 144.388 94.2881 144.252 94.3636C144.116 94.4367 144.01 94.5412 143.935 94.6772C143.862 94.8132 143.825 94.975 143.825 95.1626H142.877C142.877 94.8138 142.956 94.511 143.116 94.2534C143.275 93.9959 143.495 93.7963 143.774 93.6553C144.055 93.5136 144.377 93.4431 144.741 93.4431C145.11 93.4431 145.434 93.5117 145.714 93.6496C145.993 93.7875 146.209 93.9758 146.364 94.2157C146.52 94.4556 146.597 94.7294 146.597 95.0367C146.597 95.2426 146.558 95.4447 146.479 95.643C146.4 95.842 146.262 96.0617 146.063 96.3035C145.866 96.5447 145.589 96.8374 145.233 97.1806L144.284 98.1439V98.1811H146.681V99.0128H142.909Z" fill="#B6BABE"/>
<path d="M165.984 93.518V99.0128H164.988V94.487H164.955L163.669 95.3081V94.3957L165.036 93.518H165.984ZM169.356 99.0884C168.969 99.0884 168.625 99.0223 168.324 98.8894C168.025 98.7572 167.789 98.5733 167.615 98.3372C167.441 98.1011 167.349 97.8279 167.338 97.5187H168.348C168.357 97.6673 168.406 97.797 168.496 97.9078C168.586 98.0167 168.705 98.1017 168.853 98.1628C169.002 98.2232 169.169 98.2541 169.353 98.2541C169.55 98.2541 169.725 98.2201 169.877 98.1521C170.029 98.0822 170.148 97.9852 170.235 97.8618C170.32 97.7384 170.363 97.5961 170.361 97.4356C170.363 97.2694 170.32 97.1227 170.232 96.9955C170.144 96.8683 170.017 96.7694 169.85 96.6977C169.686 96.6259 169.486 96.59 169.254 96.59H168.768V95.8231H169.254C169.445 95.8231 169.613 95.7897 169.756 95.7236C169.901 95.6575 170.015 95.5643 170.097 95.4447C170.18 95.3232 170.22 95.1828 170.218 95.0235C170.22 94.868 170.185 94.7326 170.114 94.618C170.044 94.5022 169.944 94.4115 169.815 94.3472C169.688 94.283 169.539 94.2509 169.367 94.2509C169.198 94.2509 169.043 94.2811 168.899 94.3416C168.756 94.4027 168.64 94.4895 168.553 94.6022C168.465 94.7131 168.418 94.8453 168.413 94.9989H167.454C167.461 94.6917 167.55 94.4216 167.72 94.1892C167.892 93.9544 168.121 93.7724 168.408 93.6414C168.694 93.5092 169.015 93.4431 169.372 93.4431C169.739 93.4431 170.058 93.5117 170.329 93.6496C170.601 93.7856 170.811 93.9689 170.96 94.1999C171.108 94.4304 171.183 94.6854 171.183 94.9643C171.185 95.2741 171.093 95.5328 170.909 95.7425C170.726 95.9515 170.486 96.0888 170.189 96.153V96.1958C170.576 96.2494 170.872 96.3929 171.078 96.6253C171.286 96.8557 171.389 97.1428 171.387 97.4866C171.387 97.7939 171.299 98.0696 171.124 98.3127C170.95 98.5544 170.71 98.744 170.404 98.8819C170.099 99.0191 169.75 99.0884 169.356 99.0884Z" fill="#222D39"/>
<path d="M18.4069 116.814V122.309H17.4102V117.783H17.378L16.0913 118.604V117.692L17.4587 116.814H18.4069ZM19.7043 121.29V120.498L22.0395 116.814H22.7001V117.941H22.2973L20.7256 120.428V120.471H23.9843V121.29H19.7043ZM22.3294 122.309V121.048L22.3402 120.694V116.814H23.2801V122.309H22.3294Z" fill="#222D39"/>
<path d="M43.1193 116.814V122.309H42.1226V117.783H42.0904L40.8037 118.604V117.692L42.1711 116.814H43.1193ZM46.4291 122.385C46.071 122.385 45.7507 122.317 45.4677 122.183C45.1846 122.047 44.9595 121.861 44.7931 121.625C44.6286 121.389 44.5409 121.119 44.5302 120.815H45.4973C45.515 121.04 45.6127 121.224 45.7898 121.368C45.967 121.509 46.1807 121.579 46.4291 121.579C46.6245 121.579 46.7985 121.535 46.9504 121.445C47.103 121.356 47.2228 121.232 47.3104 121.072C47.398 120.913 47.4416 120.732 47.4397 120.528C47.4416 120.32 47.3974 120.136 47.3079 119.975C47.2184 119.814 47.0955 119.688 46.9398 119.597C46.784 119.504 46.605 119.457 46.4026 119.457C46.2374 119.456 46.0754 119.486 45.9165 119.549C45.757 119.611 45.6303 119.693 45.5377 119.795L44.6374 119.648L44.9249 116.814H48.1168V117.646H45.7495L45.5912 119.103H45.6234C45.7255 118.983 45.8699 118.884 46.0559 118.805C46.2425 118.724 46.4461 118.684 46.6686 118.684C47.0015 118.684 47.2991 118.763 47.5601 118.92C47.8217 119.076 48.0279 119.291 48.1785 119.564C48.3286 119.838 48.4043 120.151 48.4043 120.504C48.4043 120.866 48.3198 121.19 48.1514 121.475C47.985 121.757 47.753 121.98 47.4554 122.143C47.1604 122.304 46.8181 122.385 46.4291 122.385Z" fill="#222D39"/>
<path d="M67.6478 116.814V122.309H66.6511V117.783H66.6189L65.3315 118.604V117.692L66.699 116.814H67.6478ZM71.0597 122.385C70.7962 122.383 70.5389 122.337 70.2886 122.247C70.0377 122.157 69.812 122.009 69.6116 121.805C69.4111 121.599 69.2516 121.326 69.1331 120.987C69.0152 120.645 68.9565 120.222 68.9584 119.717C68.9584 119.247 69.0089 118.828 69.1091 118.459C69.2093 118.09 69.3537 117.779 69.5416 117.525C69.7294 117.269 69.9564 117.075 70.2212 116.94C70.4879 116.806 70.7861 116.739 71.1158 116.739C71.4613 116.739 71.7677 116.807 72.0343 116.943C72.3035 117.079 72.5198 117.265 72.6849 117.501C72.8495 117.735 72.9516 118 72.9913 118.295H72.0104C71.9606 118.084 71.8572 117.916 71.7015 117.791C71.5476 117.664 71.3522 117.601 71.1158 117.601C70.7344 117.601 70.4406 117.766 70.2344 118.097C70.0308 118.428 69.9274 118.882 69.9255 119.46H69.9633C70.051 119.302 70.1651 119.167 70.3044 119.054C70.4444 118.942 70.602 118.855 70.7772 118.794C70.9544 118.732 71.1416 118.701 71.339 118.701C71.6611 118.701 71.9505 118.777 72.2065 118.931C72.4643 119.085 72.6686 119.297 72.8192 119.567C72.9693 119.836 73.0436 120.143 73.0417 120.49C73.0436 120.851 72.9617 121.176 72.7946 121.464C72.6282 121.75 72.3962 121.976 72.0993 122.14C71.8017 122.305 71.455 122.386 71.0597 122.385ZM71.054 121.579C71.2495 121.579 71.4241 121.532 71.5779 121.438C71.7317 121.342 71.854 121.215 71.9435 121.053C72.033 120.892 72.0766 120.712 72.0747 120.511C72.0766 120.315 72.0337 120.137 71.9461 119.977C71.8597 119.819 71.7412 119.692 71.5886 119.6C71.4367 119.506 71.2627 119.46 71.0673 119.46C70.9223 119.46 70.7873 119.488 70.6619 119.543C70.5364 119.598 70.4273 119.675 70.334 119.773C70.2407 119.87 70.1676 119.983 70.114 120.112C70.0617 120.239 70.0352 120.375 70.0333 120.52C70.0352 120.711 70.08 120.887 70.1676 121.048C70.2553 121.209 70.3763 121.338 70.5301 121.434C70.6839 121.531 70.8586 121.579 71.054 121.579Z" fill="#222D39"/>
<path d="M92.4672 116.814V122.309H91.4705V117.783H91.4383L90.1516 118.604V117.692L91.519 116.814H92.4672ZM94.0654 122.309L96.4055 117.684V117.646H93.6896V116.814H97.4369V117.665L95.0999 122.309H94.0654Z" fill="#222D39"/>
<path d="M116.832 116.814V122.309H115.836V117.783H115.804L114.517 118.604V117.692L115.884 116.814H116.832ZM120.185 122.385C119.786 122.385 119.431 122.317 119.122 122.183C118.813 122.049 118.572 121.866 118.396 121.633C118.223 121.399 118.136 121.133 118.138 120.836C118.136 120.606 118.187 120.394 118.289 120.2C118.391 120.007 118.529 119.846 118.702 119.717C118.878 119.587 119.073 119.504 119.288 119.468V119.43C119.005 119.368 118.776 119.224 118.6 118.998C118.427 118.771 118.34 118.509 118.342 118.212C118.34 117.93 118.419 117.677 118.579 117.456C118.738 117.234 118.957 117.059 119.234 116.933C119.512 116.803 119.829 116.739 120.185 116.739C120.538 116.739 120.853 116.803 121.128 116.933C121.406 117.059 121.624 117.234 121.784 117.456C121.945 117.677 122.025 117.93 122.025 118.212C122.025 118.509 121.937 118.771 121.76 118.998C121.584 119.224 121.358 119.368 121.08 119.43V119.468C121.295 119.504 121.488 119.587 121.66 119.717C121.834 119.846 121.972 120.007 122.074 120.2C122.178 120.394 122.23 120.606 122.23 120.836C122.23 121.133 122.142 121.399 121.967 121.633C121.791 121.866 121.549 122.049 121.241 122.183C120.935 122.317 120.583 122.385 120.185 122.385ZM120.185 121.617C120.391 121.617 120.57 121.582 120.723 121.512C120.875 121.441 120.993 121.341 121.077 121.212C121.162 121.083 121.205 120.934 121.206 120.766C121.205 120.591 121.158 120.436 121.069 120.302C120.981 120.166 120.86 120.06 120.706 119.983C120.555 119.906 120.38 119.868 120.185 119.868C119.988 119.868 119.813 119.906 119.659 119.983C119.505 120.06 119.383 120.166 119.294 120.302C119.205 120.436 119.163 120.591 119.164 120.766C119.163 120.934 119.204 121.083 119.288 121.212C119.372 121.339 119.49 121.438 119.643 121.51C119.797 121.581 119.978 121.617 120.185 121.617ZM120.185 119.114C120.353 119.114 120.502 119.08 120.631 119.012C120.762 118.944 120.865 118.849 120.94 118.728C121.015 118.605 121.054 118.465 121.056 118.306C121.054 118.149 121.017 118.011 120.943 117.893C120.87 117.773 120.768 117.681 120.636 117.616C120.506 117.55 120.355 117.517 120.185 117.517C120.012 117.517 119.859 117.55 119.726 117.616C119.595 117.681 119.493 117.773 119.42 117.893C119.348 118.011 119.313 118.149 119.315 118.306C119.313 118.465 119.349 118.605 119.422 118.728C119.498 118.847 119.601 118.942 119.731 119.012C119.864 119.08 120.015 119.114 120.185 119.114Z" fill="#222D39"/>
<path d="M141.409 116.814V122.309H140.412V117.783H140.38L139.092 118.604V117.692L140.46 116.814H141.409ZM144.715 116.739C144.979 116.741 145.235 116.788 145.484 116.879C145.735 116.969 145.96 117.115 146.161 117.319C146.361 117.521 146.521 117.792 146.639 118.132C146.757 118.471 146.816 118.892 146.816 119.393C146.818 119.865 146.768 120.287 146.666 120.659C146.565 121.03 146.421 121.343 146.233 121.598C146.045 121.854 145.818 122.049 145.554 122.183C145.289 122.317 144.99 122.385 144.659 122.385C144.312 122.385 144.003 122.317 143.735 122.181C143.468 122.045 143.252 121.859 143.087 121.623C142.923 121.387 142.821 121.117 142.783 120.812H143.764C143.814 121.03 143.916 121.204 144.071 121.333C144.227 121.46 144.423 121.523 144.659 121.523C145.04 121.523 145.334 121.358 145.54 121.027C145.746 120.696 145.849 120.236 145.849 119.648H145.811C145.724 119.805 145.61 119.941 145.47 120.056C145.33 120.168 145.172 120.255 144.995 120.316C144.819 120.377 144.633 120.407 144.436 120.407C144.114 120.407 143.824 120.33 143.566 120.177C143.309 120.022 143.106 119.811 142.956 119.543C142.807 119.275 142.732 118.968 142.73 118.623C142.73 118.265 142.812 117.944 142.977 117.66C143.144 117.373 143.375 117.148 143.673 116.984C143.971 116.817 144.318 116.736 144.715 116.739ZM144.718 117.544C144.525 117.544 144.35 117.592 144.194 117.686C144.04 117.78 143.918 117.907 143.829 118.067C143.741 118.227 143.697 118.405 143.697 118.601C143.699 118.796 143.743 118.973 143.829 119.133C143.916 119.292 144.036 119.418 144.186 119.511C144.338 119.604 144.512 119.65 144.708 119.65C144.853 119.65 144.987 119.622 145.113 119.567C145.238 119.512 145.347 119.435 145.441 119.337C145.536 119.236 145.609 119.123 145.661 118.996C145.715 118.869 145.741 118.735 145.739 118.593C145.739 118.405 145.694 118.232 145.605 118.073C145.517 117.914 145.396 117.786 145.242 117.689C145.09 117.593 144.915 117.544 144.718 117.544Z" fill="#222D39"/>
<path d="M163.155 122.309V121.59L165.066 119.72C165.248 119.536 165.4 119.372 165.522 119.229C165.644 119.086 165.735 118.947 165.796 118.813C165.857 118.679 165.888 118.536 165.888 118.384C165.888 118.211 165.848 118.062 165.769 117.939C165.69 117.813 165.582 117.716 165.445 117.648C165.306 117.581 165.15 117.547 164.974 117.547C164.793 117.547 164.634 117.584 164.499 117.66C164.363 117.733 164.257 117.837 164.182 117.973C164.108 118.109 164.071 118.271 164.071 118.459H163.123C163.123 118.11 163.203 117.807 163.362 117.55C163.522 117.292 163.741 117.092 164.02 116.951C164.302 116.81 164.624 116.739 164.988 116.739C165.356 116.739 165.681 116.808 165.96 116.946C166.24 117.084 166.456 117.272 166.61 117.512C166.766 117.752 166.844 118.026 166.844 118.333C166.844 118.539 166.804 118.741 166.726 118.939C166.647 119.138 166.508 119.358 166.31 119.6C166.112 119.841 165.835 120.134 165.479 120.477L164.531 121.44V121.477H166.927V122.309H163.155ZM169.888 122.414C169.445 122.414 169.066 122.302 168.749 122.079C168.433 121.853 168.191 121.528 168.021 121.104C167.852 120.679 167.768 120.166 167.768 119.567C167.77 118.968 167.855 118.458 168.023 118.038C168.193 117.616 168.436 117.294 168.751 117.072C169.068 116.85 169.447 116.739 169.888 116.739C170.329 116.739 170.707 116.85 171.024 117.072C171.341 117.294 171.584 117.616 171.752 118.038C171.922 118.46 172.007 118.97 172.007 119.567C172.007 120.168 171.922 120.681 171.752 121.107C171.584 121.531 171.341 121.855 171.024 122.079C170.709 122.302 170.33 122.414 169.888 122.414ZM169.888 121.574C170.231 121.574 170.503 121.405 170.702 121.067C170.902 120.727 171.002 120.227 171.002 119.567C171.002 119.131 170.957 118.764 170.866 118.467C170.774 118.17 170.646 117.947 170.479 117.796C170.312 117.644 170.115 117.568 169.888 117.568C169.546 117.568 169.275 117.738 169.076 118.078C168.878 118.416 168.777 118.913 168.776 119.567C168.774 120.005 168.817 120.374 168.907 120.673C168.998 120.971 169.128 121.196 169.294 121.349C169.46 121.499 169.658 121.574 169.888 121.574Z" fill="#222D39"/>
<path d="M16.3391 145.605V144.886L18.2493 143.016C18.4321 142.832 18.584 142.669 18.7057 142.525C18.8274 142.382 18.9188 142.244 18.9799 142.11C19.0411 141.976 19.0713 141.833 19.0713 141.68C19.0713 141.507 19.0316 141.358 18.9528 141.235C18.874 141.11 18.7656 141.013 18.6281 140.945C18.4901 140.877 18.3331 140.843 18.1578 140.843C17.9769 140.843 17.8187 140.881 17.6825 140.956C17.5463 141.029 17.4404 141.134 17.3654 141.27C17.2916 141.406 17.2551 141.568 17.2551 141.755H16.3069C16.3069 141.406 16.3863 141.103 16.5458 140.846C16.7053 140.588 16.9247 140.389 17.204 140.248C17.4852 140.106 17.808 140.036 18.1711 140.036C18.5399 140.036 18.8646 140.104 19.1438 140.242C19.4231 140.38 19.64 140.568 19.7938 140.808C19.9495 141.048 20.0277 141.322 20.0277 141.629C20.0277 141.835 19.988 142.037 19.9092 142.236C19.8304 142.435 19.6917 142.654 19.4931 142.896C19.2958 143.137 19.019 143.43 18.6628 143.773L17.7147 144.736V144.774H20.1109V145.605H16.3391ZM23.2757 140.111V145.605H22.279V141.08H22.2468L20.9601 141.901V140.988L22.3275 140.111H23.2757Z" fill="#222D39"/>
<path d="M40.394 145.605V144.886L42.3042 143.016C42.487 142.832 42.6389 142.669 42.7612 142.525C42.8829 142.382 42.9743 142.244 43.0349 142.11C43.096 141.976 43.1263 141.833 43.1263 141.68C43.1263 141.507 43.0872 141.358 43.0084 141.235C42.9296 141.11 42.8211 141.013 42.6831 140.945C42.545 140.877 42.3886 140.843 42.2128 140.843C42.0318 140.843 41.8736 140.881 41.7374 140.956C41.6013 141.029 41.4953 141.134 41.4203 141.27C41.3472 141.406 41.31 141.568 41.31 141.755H40.3618C40.3618 141.406 40.4419 141.103 40.6007 140.846C40.7602 140.588 40.9796 140.389 41.2589 140.248C41.5401 140.106 41.8629 140.036 42.2266 140.036C42.5955 140.036 42.9195 140.104 43.1988 140.242C43.4781 140.38 43.6949 140.568 43.8488 140.808C44.0051 141.048 44.0826 141.322 44.0826 141.629C44.0826 141.835 44.0436 142.037 43.9648 142.236C43.886 142.435 43.7466 142.654 43.548 142.896C43.3513 143.137 43.0746 143.43 42.7178 143.773L41.7696 144.736V144.774H44.1659V145.605H40.394ZM45.0926 145.605V144.886L47.0028 143.016C47.1856 142.832 47.3376 142.669 47.4599 142.525C47.5815 142.382 47.673 142.244 47.7335 142.11C47.7946 141.976 47.8249 141.833 47.8249 141.68C47.8249 141.507 47.7858 141.358 47.707 141.235C47.6282 141.11 47.5198 141.013 47.3817 140.945C47.2436 140.877 47.0873 140.843 46.9114 140.843C46.7305 140.843 46.5722 140.881 46.4361 140.956C46.2999 141.029 46.1946 141.134 46.119 141.27C46.0458 141.406 46.0093 141.568 46.0093 141.755H45.0604C45.0604 141.406 45.1405 141.103 45.3 140.846C45.4589 140.588 45.6783 140.389 45.9582 140.248C46.2394 140.106 46.5615 140.036 46.9253 140.036C47.2941 140.036 47.6181 140.104 47.8974 140.242C48.1767 140.38 48.3935 140.568 48.548 140.808C48.7037 141.048 48.7813 141.322 48.7813 141.629C48.7813 141.835 48.7422 142.037 48.6634 142.236C48.5846 142.435 48.4459 142.654 48.2467 142.896C48.05 143.137 47.7732 143.43 47.4164 143.773L46.4682 144.736V144.774H48.8645V145.605H45.0926Z" fill="#222D39"/>
<path d="M64.8668 145.605V144.886L66.7763 143.016C66.9592 142.832 67.1118 142.669 67.2334 142.525C67.3551 142.382 67.4465 142.244 67.5077 142.11C67.5682 141.976 67.5984 141.833 67.5984 141.68C67.5984 141.507 67.5594 141.358 67.4805 141.235C67.4017 141.11 67.2933 141.013 67.1552 140.945C67.0178 140.877 66.8608 140.843 66.6856 140.843C66.5046 140.843 66.3458 140.881 66.2096 140.956C66.0734 141.029 65.9681 141.134 65.8925 141.27C65.8194 141.406 65.7828 141.568 65.7828 141.755H64.834C64.834 141.406 64.9141 141.103 65.0736 140.846C65.2331 140.588 65.4524 140.389 65.7317 140.248C66.0129 140.106 66.3351 140.036 66.6988 140.036C67.0676 140.036 67.3917 140.104 67.6709 140.242C67.9509 140.38 68.1671 140.568 68.3215 140.808C68.4773 141.048 68.5548 141.322 68.5548 141.629C68.5548 141.835 68.5157 142.037 68.4369 142.236C68.3581 142.435 68.2194 142.654 68.0202 142.896C67.8235 143.137 67.5467 143.43 67.1905 143.773L66.2418 144.736V144.774H68.6386V145.605H64.8668ZM71.5399 145.681C71.1528 145.681 70.8092 145.615 70.5079 145.482C70.2091 145.35 69.9727 145.166 69.7987 144.93C69.6253 144.694 69.5333 144.42 69.5225 144.111H70.5325C70.5413 144.26 70.5905 144.39 70.68 144.5C70.7695 144.609 70.8887 144.694 71.0375 144.755C71.1863 144.816 71.3527 144.847 71.5374 144.847C71.7341 144.847 71.9087 144.813 72.0613 144.745C72.2132 144.675 72.3324 144.578 72.4181 144.454C72.5045 144.331 72.5461 144.189 72.5448 144.028C72.5461 143.862 72.5032 143.715 72.4156 143.588C72.328 143.461 72.2006 143.362 72.0342 143.29C71.8696 143.218 71.6704 143.183 71.4378 143.183H70.9517V142.416H71.4378C71.6294 142.416 71.7972 142.382 71.9403 142.316C72.0853 142.25 72.1987 142.157 72.2813 142.037C72.3639 141.916 72.4042 141.775 72.4024 141.616C72.4042 141.46 72.3689 141.325 72.2977 141.211C72.2277 141.095 72.1281 141.004 71.9995 140.94C71.8722 140.876 71.7227 140.843 71.5506 140.843C71.3823 140.843 71.2266 140.874 71.0828 140.934C70.9397 140.995 70.8244 141.082 70.7367 141.195C70.6491 141.306 70.6025 141.438 70.5968 141.591H69.6379C69.6448 141.284 69.7337 141.014 69.9039 140.782C70.0754 140.547 70.3049 140.365 70.5917 140.234C70.878 140.102 71.1995 140.036 71.5557 140.036C71.9232 140.036 72.2416 140.104 72.5121 140.242C72.7844 140.378 72.995 140.561 73.1438 140.792C73.2925 141.023 73.3669 141.278 73.3669 141.557C73.3682 141.867 73.2774 142.125 73.0927 142.335C72.9098 142.544 72.6697 142.681 72.3727 142.746V142.788C72.7598 142.842 73.0561 142.985 73.2616 143.218C73.4697 143.448 73.5725 143.735 73.5706 144.079C73.5706 144.386 73.4829 144.662 73.3076 144.905C73.1336 145.147 72.8941 145.336 72.5877 145.474C72.2832 145.612 71.934 145.681 71.5399 145.681Z" fill="#222D39"/>
<path d="M89.457 145.605V144.886L91.3672 143.016C91.55 142.832 91.7026 142.669 91.8243 142.525C91.9459 142.382 92.0374 142.244 92.0979 142.11C92.159 141.976 92.1893 141.833 92.1893 141.68C92.1893 141.507 92.1502 141.358 92.0714 141.235C91.9926 141.11 91.8841 141.013 91.7461 140.945C91.608 140.877 91.4517 140.843 91.2758 140.843C91.0948 140.843 90.9366 140.881 90.8004 140.956C90.6642 141.029 90.559 141.134 90.4833 141.27C90.4102 141.406 90.3736 141.568 90.3736 141.755H89.4248C89.4248 141.406 89.5049 141.103 89.6644 140.846C89.8232 140.588 90.0426 140.389 90.3226 140.248C90.6037 140.106 90.9259 140.036 91.2896 140.036C91.6584 140.036 91.9825 140.104 92.2618 140.242C92.5417 140.38 92.7579 140.568 92.9124 140.808C93.0681 141.048 93.1457 141.322 93.1457 141.629C93.1457 141.835 93.1066 142.037 93.0278 142.236C92.949 142.435 92.8102 142.654 92.611 142.896C92.4143 143.137 92.1376 143.43 91.7814 143.773L90.8326 144.736V144.774H93.2288V145.605H89.457ZM93.9381 144.586V143.795L96.2732 140.111H96.9339V141.238H96.5311L94.9594 143.725V143.767H98.2181V144.586H93.9381ZM96.5632 145.605V144.345L96.574 143.99V140.111H97.5139V145.605H96.5632Z" fill="#222D39"/>
<path d="M114.111 145.605V144.886L116.021 143.016C116.204 142.832 116.356 142.669 116.477 142.525C116.599 142.382 116.69 142.244 116.752 142.11C116.812 141.976 116.843 141.833 116.843 141.68C116.843 141.507 116.803 141.358 116.725 141.235C116.646 141.11 116.537 141.013 116.4 140.945C116.262 140.877 116.105 140.843 115.93 140.843C115.749 140.843 115.59 140.881 115.454 140.956C115.318 141.029 115.212 141.134 115.137 141.27C115.063 141.406 115.027 141.568 115.027 141.755H114.079C114.079 141.406 114.158 141.103 114.318 140.846C114.477 140.588 114.696 140.389 114.976 140.248C115.257 140.106 115.58 140.036 115.943 140.036C116.312 140.036 116.636 140.104 116.916 140.242C117.195 140.38 117.412 140.568 117.566 140.808C117.721 141.048 117.799 141.322 117.799 141.629C117.799 141.835 117.76 142.037 117.681 142.236C117.602 142.435 117.463 142.654 117.265 142.896C117.068 143.137 116.791 143.43 116.435 143.773L115.486 144.736V144.774H117.883V145.605H114.111ZM120.722 145.681C120.364 145.681 120.043 145.614 119.761 145.479C119.478 145.343 119.253 145.158 119.086 144.922C118.922 144.685 118.833 144.415 118.823 144.111H119.79C119.808 144.337 119.906 144.52 120.083 144.664C120.26 144.805 120.473 144.876 120.722 144.876C120.918 144.876 121.091 144.831 121.243 144.741C121.395 144.652 121.516 144.528 121.603 144.369C121.691 144.209 121.734 144.028 121.732 143.824C121.734 143.616 121.69 143.432 121.601 143.271C121.511 143.11 121.389 142.984 121.233 142.893C121.077 142.8 120.898 142.754 120.696 142.754C120.531 142.752 120.368 142.782 120.209 142.845C120.049 142.907 119.923 142.99 119.83 143.092L118.93 142.944L119.218 140.111H122.409V140.942H120.043L119.884 142.399H119.916C120.019 142.28 120.162 142.18 120.349 142.101C120.535 142.021 120.739 141.981 120.961 141.981C121.295 141.981 121.592 142.059 121.853 142.217C122.115 142.373 122.321 142.587 122.471 142.861C122.622 143.135 122.697 143.448 122.697 143.8C122.697 144.163 122.613 144.486 122.444 144.771C122.278 145.054 122.046 145.277 121.748 145.439C121.453 145.6 121.111 145.681 120.722 145.681Z" fill="#222D39"/>
<path d="M138.638 145.605V144.886L140.549 143.016C140.731 142.832 140.883 142.669 141.005 142.525C141.127 142.382 141.219 142.244 141.279 142.11C141.34 141.976 141.371 141.833 141.371 141.68C141.371 141.507 141.332 141.358 141.253 141.235C141.174 141.11 141.066 141.013 140.927 140.945C140.789 140.877 140.633 140.843 140.457 140.843C140.276 140.843 140.118 140.881 139.982 140.956C139.846 141.029 139.74 141.134 139.665 141.27C139.592 141.406 139.554 141.568 139.554 141.755H138.606C138.606 141.406 138.686 141.103 138.845 140.846C139.005 140.588 139.224 140.389 139.503 140.248C139.784 140.106 140.107 140.036 140.47 140.036C140.84 140.036 141.164 140.104 141.443 140.242C141.722 140.38 141.939 140.568 142.093 140.808C142.249 141.048 142.327 141.322 142.327 141.629C142.327 141.835 142.288 142.037 142.209 142.236C142.13 142.435 141.991 142.654 141.792 142.896C141.596 143.137 141.319 143.43 140.962 143.773L140.014 144.736V144.774H142.41V145.605H138.638ZM145.352 145.681C145.089 145.679 144.832 145.634 144.581 145.544C144.331 145.453 144.105 145.305 143.904 145.101C143.703 144.896 143.544 144.622 143.426 144.283C143.307 143.941 143.249 143.518 143.251 143.014C143.251 142.543 143.302 142.124 143.402 141.755C143.502 141.387 143.646 141.076 143.834 140.821C144.022 140.566 144.249 140.371 144.514 140.236C144.781 140.102 145.079 140.036 145.409 140.036C145.754 140.036 146.06 140.104 146.327 140.24C146.596 140.376 146.813 140.561 146.977 140.797C147.142 141.032 147.244 141.297 147.283 141.591H146.303C146.253 141.381 146.15 141.212 145.994 141.087C145.84 140.961 145.645 140.897 145.409 140.897C145.027 140.897 144.733 141.063 144.527 141.393C144.323 141.724 144.22 142.178 144.218 142.756H144.256C144.344 142.599 144.457 142.463 144.597 142.351C144.737 142.238 144.895 142.152 145.07 142.091C145.247 142.028 145.434 141.997 145.632 141.997C145.954 141.997 146.243 142.074 146.499 142.227C146.757 142.382 146.961 142.593 147.112 142.863C147.262 143.132 147.336 143.439 147.335 143.786C147.336 144.148 147.254 144.473 147.087 144.76C146.921 145.047 146.689 145.272 146.392 145.437C146.094 145.601 145.748 145.683 145.352 145.681ZM145.347 144.876C145.542 144.876 145.716 144.828 145.871 144.734C146.025 144.639 146.146 144.511 146.236 144.35C146.325 144.189 146.369 144.009 146.367 143.808C146.369 143.611 146.327 143.433 146.239 143.274C146.153 143.115 146.033 142.989 145.881 142.896C145.729 142.803 145.555 142.756 145.36 142.756C145.215 142.756 145.08 142.784 144.955 142.839C144.829 142.895 144.72 142.972 144.627 143.07C144.534 143.167 144.46 143.279 144.406 143.408C144.355 143.535 144.327 143.671 144.326 143.816C144.327 144.007 144.372 144.184 144.46 144.345C144.548 144.505 144.669 144.634 144.823 144.731C144.977 144.828 145.151 144.876 145.347 144.876Z" fill="#222D39"/>
<path d="M163.458 145.605V144.886L165.368 143.016C165.551 142.832 165.703 142.669 165.825 142.525C165.947 142.382 166.038 142.244 166.099 142.11C166.16 141.976 166.19 141.833 166.19 141.68C166.19 141.507 166.151 141.358 166.072 141.235C165.994 141.11 165.885 141.013 165.747 140.945C165.609 140.877 165.453 140.843 165.277 140.843C165.096 140.843 164.938 140.881 164.801 140.956C164.665 141.029 164.56 141.134 164.484 141.27C164.411 141.406 164.374 141.568 164.374 141.755H163.426C163.426 141.406 163.506 141.103 163.665 140.846C163.824 140.588 164.044 140.389 164.323 140.248C164.605 140.106 164.927 140.036 165.291 140.036C165.659 140.036 165.983 140.104 166.263 140.242C166.542 140.38 166.759 140.568 166.913 140.808C167.069 141.048 167.147 141.322 167.147 141.629C167.147 141.835 167.107 142.037 167.029 142.236C166.95 142.435 166.811 142.654 166.612 142.896C166.415 143.137 166.139 143.43 165.782 143.773L164.834 144.736V144.774H167.23V145.605H163.458ZM168.358 145.605L170.698 140.98V140.942H167.982V140.111H171.73V140.961L169.393 145.605H168.358Z" fill="#222D39"/>
<path d="M15.715 168.902V168.183L17.6252 166.313C17.8074 166.129 17.96 165.965 18.0817 165.822C18.2033 165.679 18.2947 165.54 18.3559 165.406C18.4164 165.272 18.4473 165.129 18.4473 164.977C18.4473 164.803 18.4076 164.655 18.3288 164.531C18.25 164.406 18.1415 164.309 18.0035 164.241C17.866 164.174 17.7091 164.14 17.5338 164.14C17.3529 164.14 17.194 164.177 17.0578 164.253C16.9223 164.326 16.8164 164.43 16.7414 164.566C16.6676 164.702 16.631 164.864 16.631 165.052H15.6829C15.6829 164.703 15.7623 164.4 15.9218 164.142C16.0813 163.885 16.3007 163.685 16.58 163.544C16.8611 163.403 17.1833 163.332 17.547 163.332C17.9158 163.332 18.2399 163.401 18.5198 163.539C18.7991 163.676 19.016 163.865 19.1698 164.105C19.3255 164.344 19.4037 164.618 19.4037 164.926C19.4037 165.131 19.364 165.334 19.2852 165.532C19.2064 165.731 19.0677 165.951 18.8691 166.192C18.6718 166.434 18.395 166.726 18.0388 167.069L17.0906 168.033V168.07H19.4869V168.902H15.715ZM22.3693 168.977C21.9702 168.977 21.6153 168.91 21.3057 168.776C20.9974 168.642 20.756 168.458 20.5801 168.226C20.4067 167.991 20.3203 167.726 20.3222 167.429C20.3203 167.199 20.3708 166.986 20.4729 166.793C20.575 166.6 20.7124 166.439 20.8864 166.31C21.0617 166.18 21.2572 166.097 21.4721 166.061V166.023C21.1891 165.961 20.9596 165.817 20.7843 165.591C20.6103 165.364 20.5246 165.102 20.5265 164.805C20.5246 164.523 20.6034 164.27 20.7629 164.049C20.9224 163.826 21.1405 163.652 21.4186 163.525C21.696 163.396 22.0131 163.332 22.3693 163.332C22.7223 163.332 23.0362 163.396 23.3124 163.525C23.5898 163.652 23.8085 163.826 23.968 164.049C24.1288 164.27 24.2095 164.523 24.2095 164.805C24.2095 165.102 24.1212 165.364 23.9434 165.591C23.7682 165.817 23.5418 165.961 23.2638 166.023V166.061C23.4788 166.097 23.6724 166.18 23.8445 166.31C24.0178 166.439 24.1559 166.6 24.258 166.793C24.3621 166.986 24.4138 167.199 24.4138 167.429C24.4138 167.726 24.3261 167.991 24.1502 168.226C23.975 168.458 23.7335 168.642 23.4252 168.776C23.1188 168.91 22.7671 168.977 22.3693 168.977ZM22.3693 168.21C22.5754 168.21 22.7545 168.175 22.9064 168.105C23.059 168.033 23.1768 167.933 23.2613 167.805C23.3452 167.676 23.3887 167.527 23.3899 167.359C23.3887 167.184 23.3426 167.029 23.2531 166.895C23.1655 166.759 23.0444 166.653 22.8906 166.576C22.738 166.499 22.5647 166.461 22.3693 166.461C22.1726 166.461 21.9967 166.499 21.8428 166.576C21.689 166.653 21.5667 166.759 21.4772 166.895C21.3895 167.029 21.3467 167.184 21.3486 167.359C21.3467 167.527 21.3877 167.676 21.4721 167.805C21.556 167.931 21.6745 168.031 21.8264 168.103C21.9809 168.174 22.1619 168.21 22.3693 168.21ZM22.3693 165.706C22.5376 165.706 22.6863 165.672 22.8156 165.604C22.9461 165.536 23.0489 165.442 23.1245 165.32C23.1995 165.198 23.238 165.058 23.2399 164.899C23.238 164.742 23.2002 164.604 23.127 164.486C23.0533 164.366 22.9512 164.274 22.8207 164.209C22.6902 164.143 22.5395 164.11 22.3693 164.11C22.1959 164.11 22.0427 164.143 21.9097 164.209C21.7792 164.274 21.677 164.366 21.6039 164.486C21.532 164.604 21.4973 164.742 21.4986 164.899C21.4973 165.058 21.5327 165.198 21.6064 165.32C21.6814 165.44 21.7848 165.534 21.9153 165.604C22.0477 165.672 22.199 165.706 22.3693 165.706Z" fill="#222D39"/>
<path d="M40.2907 168.902V168.183L42.2009 166.313C42.3837 166.129 42.5357 165.965 42.6573 165.821C42.7796 165.679 42.8711 165.54 42.9316 165.406C42.9927 165.272 43.023 165.129 43.023 164.977C43.023 164.803 42.9839 164.655 42.9051 164.531C42.8263 164.406 42.7179 164.309 42.5798 164.241C42.4417 164.174 42.2854 164.14 42.1095 164.14C41.9286 164.14 41.7703 164.177 41.6342 164.252C41.498 164.325 41.3921 164.43 41.3171 164.566C41.2439 164.702 41.2067 164.864 41.2067 165.051H40.2585C40.2585 164.703 40.338 164.4 40.4975 164.142C40.657 163.885 40.8764 163.685 41.1556 163.544C41.4368 163.402 41.7596 163.332 42.1227 163.332C42.4922 163.332 42.8162 163.401 43.0955 163.538C43.3748 163.676 43.5917 163.865 43.7455 164.104C43.9012 164.344 43.9794 164.618 43.9794 164.925C43.9794 165.131 43.9403 165.333 43.8615 165.532C43.7827 165.731 43.6434 165.951 43.4448 166.192C43.2481 166.433 42.9713 166.726 42.6145 167.069L41.6663 168.033V168.07H44.0626V168.902H40.2907ZM46.8995 163.332C47.1631 163.334 47.419 163.38 47.668 163.471C47.919 163.561 48.1447 163.707 48.3451 163.911C48.5456 164.113 48.7051 164.385 48.823 164.725C48.9415 165.064 49.0008 165.485 49.0008 165.985C49.002 166.457 48.9522 166.88 48.8501 167.252C48.7499 167.622 48.6055 167.935 48.4176 168.191C48.2298 168.446 48.0028 168.642 47.738 168.776C47.4726 168.91 47.1744 168.977 46.8434 168.977C46.4961 168.977 46.1878 168.909 45.9192 168.773C45.6519 168.637 45.4363 168.451 45.2718 168.215C45.1066 167.979 45.0057 167.709 44.9679 167.405H45.9489C45.9987 167.623 46.1008 167.797 46.2546 167.925C46.4109 168.052 46.607 168.116 46.8434 168.116C47.2249 168.116 47.5186 167.95 47.7241 167.62C47.9303 167.289 48.033 166.829 48.033 166.24H47.9959C47.9082 166.398 47.7941 166.534 47.6548 166.648C47.5148 166.761 47.3566 166.848 47.1788 166.908C47.0036 166.969 46.817 166.999 46.6203 166.999C46.2981 166.999 46.0075 166.923 45.7496 166.769C45.4937 166.615 45.2907 166.404 45.14 166.136C44.9912 165.867 44.9162 165.561 44.9143 165.215C44.9143 164.858 44.9969 164.536 45.1614 164.252C45.3279 163.966 45.5599 163.741 45.8574 163.576C46.1544 163.409 46.5017 163.328 46.8995 163.332ZM46.9021 164.137C46.7092 164.137 46.5345 164.184 46.3782 164.279C46.2243 164.372 46.1027 164.499 46.0131 164.66C45.9255 164.819 45.8814 164.997 45.8814 165.194C45.8833 165.389 45.9274 165.566 46.0131 165.725C46.1008 165.884 46.2199 166.01 46.3706 166.104C46.5225 166.197 46.6965 166.243 46.8913 166.243C47.0363 166.243 47.1719 166.215 47.2973 166.16C47.4228 166.104 47.5319 166.027 47.6252 165.929C47.7197 165.829 47.7935 165.715 47.8452 165.588C47.8988 165.461 47.9253 165.327 47.9234 165.186C47.9234 164.998 47.8786 164.825 47.7891 164.665C47.7008 164.506 47.5804 164.378 47.426 164.281C47.274 164.185 47.0994 164.137 46.9021 164.137Z" fill="#222D39"/>
<path d="M66.6673 168.977C66.2808 168.977 65.9366 168.911 65.6359 168.778C65.3371 168.646 65.1007 168.462 64.9267 168.226C64.7527 167.99 64.6606 167.717 64.6499 167.408H65.6599C65.6693 167.556 65.7185 167.686 65.808 167.797C65.8975 167.906 66.0167 167.991 66.1648 168.052C66.3136 168.112 66.48 168.143 66.6648 168.143C66.8621 168.143 67.0367 168.109 67.1886 168.041C67.3412 167.971 67.4597 167.874 67.5461 167.751C67.6319 167.627 67.6741 167.485 67.6722 167.324C67.6741 167.158 67.6312 167.012 67.5436 166.884C67.4553 166.757 67.3286 166.658 67.1616 166.587C66.997 166.515 66.7984 166.479 66.5652 166.479H66.0791V165.712H66.5652C66.7568 165.712 66.9245 165.679 67.0676 165.613C67.2126 165.546 67.3267 165.453 67.4087 165.334C67.4913 165.212 67.5316 165.072 67.5297 164.912C67.5316 164.757 67.4969 164.622 67.4251 164.507C67.3551 164.391 67.2561 164.3 67.1269 164.236C66.9995 164.172 66.8501 164.14 66.678 164.14C66.5097 164.14 66.354 164.17 66.2109 164.23C66.0678 164.292 65.9518 164.378 65.8641 164.491C65.7765 164.602 65.7298 164.734 65.7248 164.888H64.7653C64.7728 164.581 64.8611 164.31 65.0313 164.078C65.2034 163.843 65.4329 163.661 65.7191 163.53C66.006 163.398 66.3275 163.332 66.6837 163.332C67.0506 163.332 67.3696 163.401 67.64 163.539C67.9124 163.675 68.123 163.858 68.2711 164.089C68.4199 164.319 68.4943 164.574 68.4943 164.853C68.4962 165.163 68.4048 165.422 68.2201 165.631C68.0379 165.84 67.7977 165.978 67.5001 166.042V166.085C67.8872 166.138 68.1835 166.282 68.3896 166.514C68.5971 166.745 68.7004 167.032 68.6986 167.376C68.6986 167.683 68.6109 167.959 68.435 168.202C68.2616 168.443 68.0215 168.633 67.7151 168.771C67.4106 168.908 67.0613 168.977 66.6673 168.977ZM71.654 169.007C71.2121 169.007 70.8326 168.895 70.5155 168.671C70.2003 168.446 69.9575 168.121 69.7873 167.697C69.619 167.272 69.5345 166.759 69.5345 166.16C69.5364 165.561 69.6215 165.051 69.7898 164.63C69.9601 164.208 70.2028 163.887 70.518 163.664C70.8351 163.443 71.214 163.332 71.654 163.332C72.0947 163.332 72.4736 163.443 72.7907 163.664C73.1078 163.887 73.3505 164.208 73.5189 164.63C73.6891 165.053 73.7742 165.563 73.7742 166.16C73.7742 166.761 73.6891 167.274 73.5189 167.7C73.3505 168.124 73.1078 168.448 72.7907 168.671C72.4755 168.895 72.0966 169.007 71.654 169.007ZM71.654 168.167C71.9982 168.167 72.2693 167.998 72.4685 167.659C72.669 167.32 72.7693 166.82 72.7693 166.16C72.7693 165.723 72.7239 165.357 72.6325 165.06C72.541 164.763 72.4118 164.54 72.2454 164.389C72.0789 164.237 71.8816 164.161 71.654 164.161C71.3123 164.161 71.0419 164.331 70.8433 164.671C70.6441 165.009 70.5438 165.506 70.542 166.16C70.5401 166.598 70.5842 166.967 70.6737 167.265C70.7651 167.564 70.8944 167.789 71.0608 167.942C71.2272 168.092 71.4252 168.167 71.654 168.167Z" fill="#222D39"/>
<path d="M94.6872 163.407V168.902H93.6905V164.376H93.6583L92.3716 165.197V164.285L93.739 163.407H94.6872Z" fill="#B6BABE"/>
<path d="M116.505 168.902V168.183L118.415 166.313C118.597 166.129 118.75 165.965 118.871 165.822C118.993 165.679 119.084 165.54 119.145 165.406C119.206 165.272 119.237 165.129 119.237 164.977C119.237 164.803 119.197 164.655 119.118 164.531C119.04 164.406 118.931 164.309 118.794 164.241C118.656 164.174 118.499 164.14 118.323 164.14C118.142 164.14 117.984 164.177 117.848 164.253C117.712 164.326 117.606 164.43 117.531 164.566C117.457 164.702 117.421 164.864 117.421 165.052H116.472C116.472 164.703 116.552 164.4 116.711 164.142C116.871 163.885 117.09 163.685 117.37 163.544C117.651 163.403 117.973 163.332 118.337 163.332C118.705 163.332 119.03 163.401 119.309 163.539C119.589 163.676 119.806 163.865 119.959 164.105C120.115 164.344 120.193 164.618 120.193 164.926C120.193 165.131 120.154 165.334 120.075 165.532C119.996 165.731 119.857 165.951 119.659 166.192C119.461 166.434 119.185 166.726 118.828 167.069L117.88 168.033V168.07H120.276V168.902H116.505Z" fill="#B6BABE"/>
<path d="M142.951 168.977C142.565 168.977 142.221 168.911 141.92 168.778C141.62 168.646 141.384 168.462 141.211 168.226C141.037 167.99 140.945 167.717 140.934 167.408H141.944C141.953 167.556 142.002 167.686 142.092 167.797C142.181 167.906 142.301 167.991 142.449 168.052C142.598 168.112 142.764 168.143 142.949 168.143C143.146 168.143 143.321 168.109 143.473 168.041C143.625 167.971 143.744 167.874 143.83 167.751C143.916 167.627 143.958 167.485 143.956 167.324C143.958 167.158 143.915 167.012 143.827 166.884C143.739 166.757 143.613 166.658 143.445 166.587C143.281 166.515 143.082 166.479 142.849 166.479H142.363V165.712H142.849C143.041 165.712 143.208 165.679 143.352 165.613C143.497 165.546 143.611 165.453 143.693 165.334C143.775 165.212 143.816 165.072 143.814 164.912C143.816 164.757 143.781 164.622 143.709 164.507C143.639 164.391 143.54 164.3 143.411 164.236C143.283 164.172 143.134 164.14 142.962 164.14C142.794 164.14 142.638 164.17 142.495 164.23C142.352 164.292 142.236 164.378 142.148 164.491C142.06 164.602 142.014 164.734 142.009 164.888H141.049C141.057 164.581 141.145 164.31 141.315 164.078C141.487 163.843 141.716 163.661 142.003 163.53C142.29 163.398 142.611 163.332 142.968 163.332C143.335 163.332 143.654 163.401 143.924 163.539C144.196 163.675 144.407 163.858 144.555 164.089C144.704 164.319 144.778 164.574 144.778 164.853C144.78 165.163 144.689 165.422 144.504 165.631C144.322 165.84 144.082 165.978 143.784 166.042V166.085C144.171 166.138 144.467 166.282 144.674 166.514C144.881 166.745 144.984 167.032 144.982 167.376C144.982 167.683 144.895 167.959 144.719 168.202C144.546 168.443 144.305 168.633 143.999 168.771C143.695 168.908 143.345 168.977 142.951 168.977Z" fill="#B6BABE"/>
<path d="M165.409 167.882V167.091L167.744 163.407H168.404V164.534H168.002L166.43 167.021V167.064H169.689V167.882H165.409ZM168.034 168.902V167.641L168.044 167.287V163.407H168.985V168.902H168.034Z" fill="#B6BABE"/>
<path d="M72.0281 192.828C72.0281 191.437 73.1572 190.309 74.5498 190.309H118.68C120.073 190.309 121.202 191.437 121.202 192.828V204.791C121.202 206.182 120.073 207.309 118.68 207.309H74.5498C73.1572 207.309 72.0281 206.182 72.0281 204.791V192.828Z" fill="#F2FAFF"/>
<path d="M81.0506 202.272H79.8093L82.0688 195.862H83.5043L85.7676 202.272H84.5262L82.8121 197.176H82.7616L81.0506 202.272ZM81.091 199.759H84.4764V200.692H81.091V199.759ZM87.6973 199.455V202.272H86.5625V197.464H87.6475V198.281H87.7036C87.8146 198.012 87.9911 197.798 88.2332 197.64C88.4778 197.481 88.7798 197.402 89.1391 197.402C89.4713 197.402 89.7607 197.472 90.0072 197.615C90.2562 197.756 90.4485 197.962 90.5841 198.231C90.7222 198.501 90.7896 198.827 90.7877 199.211V202.272H89.6529V199.386C89.6529 199.065 89.5697 198.814 89.4026 198.632C89.2375 198.45 89.0086 198.36 88.7161 198.36C88.5175 198.36 88.341 198.404 88.1865 198.491C88.034 198.577 87.9136 198.701 87.8259 198.863C87.7402 199.026 87.6973 199.223 87.6973 199.455ZM93.0755 199.455V202.272H91.9414V197.464H93.0258V198.281H93.0819C93.1928 198.012 93.3693 197.798 93.6121 197.64C93.856 197.481 94.158 197.402 94.5173 197.402C94.8496 197.402 95.139 197.472 95.3855 197.615C95.6345 197.756 95.8268 197.962 95.9623 198.231C96.1004 198.501 96.1684 198.827 96.1659 199.211V202.272H95.0318V199.386C95.0318 199.065 94.9479 198.814 94.7809 198.632C94.6157 198.45 94.3869 198.36 94.0943 198.36C93.8958 198.36 93.7192 198.404 93.5648 198.491C93.4122 198.577 93.2918 198.701 93.2041 198.863C93.1184 199.026 93.0755 199.223 93.0755 199.455ZM100.388 200.25V197.464H101.523V202.272H100.423V201.418H100.372C100.264 201.687 100.085 201.907 99.8363 202.078C99.5898 202.249 99.2859 202.335 98.9241 202.335C98.6089 202.335 98.3296 202.265 98.0875 202.125C97.8473 201.983 97.6588 201.778 97.5233 201.508C97.3877 201.238 97.3196 200.91 97.3196 200.525V197.464H98.4544V200.35C98.4544 200.655 98.5376 200.897 98.7047 201.076C98.8718 201.256 99.0918 201.346 99.3629 201.346C99.5306 201.346 99.692 201.305 99.8489 201.224C100.006 201.143 100.134 201.022 100.234 200.86C100.337 200.698 100.388 200.495 100.388 200.25ZM103.824 195.862V202.272H102.689V195.862H103.824ZM107.122 202.367C106.639 202.367 106.223 202.266 105.871 202.066C105.522 201.863 105.254 201.578 105.066 201.208C104.878 200.837 104.784 200.4 104.784 199.896C104.784 199.402 104.878 198.968 105.066 198.594C105.256 198.219 105.522 197.926 105.862 197.718C106.202 197.507 106.603 197.402 107.062 197.402C107.359 197.402 107.639 197.45 107.902 197.545C108.168 197.64 108.402 197.786 108.604 197.984C108.809 198.182 108.97 198.434 109.087 198.742C109.204 199.046 109.263 199.409 109.263 199.831V200.178H105.317V199.414H108.175C108.173 199.198 108.126 199.004 108.034 198.836C107.942 198.664 107.814 198.53 107.649 198.431C107.485 198.334 107.296 198.285 107.078 198.285C106.846 198.285 106.643 198.341 106.467 198.453C106.291 198.564 106.155 198.71 106.056 198.892C105.96 199.071 105.911 199.268 105.909 199.483V200.15C105.909 200.43 105.96 200.67 106.063 200.87C106.165 201.068 106.308 201.221 106.492 201.327C106.676 201.432 106.891 201.484 107.137 201.484C107.303 201.484 107.452 201.46 107.586 201.415C107.719 201.367 107.835 201.297 107.934 201.205C108.032 201.113 108.106 201 108.156 200.864L109.216 200.983C109.149 201.262 109.021 201.506 108.833 201.715C108.647 201.922 108.409 202.083 108.119 202.197C107.828 202.31 107.496 202.367 107.122 202.367ZM110.223 202.272V197.464H111.323V198.266H111.373C111.46 197.988 111.611 197.774 111.824 197.624C112.04 197.472 112.285 197.396 112.561 197.396C112.623 197.396 112.693 197.399 112.771 197.405C112.85 197.409 112.916 197.416 112.968 197.426V198.469C112.92 198.452 112.844 198.438 112.739 198.425C112.637 198.411 112.538 198.404 112.442 198.404C112.234 198.404 112.048 198.448 111.884 198.538C111.721 198.626 111.592 198.747 111.498 198.904C111.404 199.061 111.357 199.241 111.357 199.446V202.272H110.223Z" fill="#222D39"/>
<path d="M131.289 192.828C131.289 191.437 132.418 190.309 133.811 190.309H174.158C175.551 190.309 176.68 191.437 176.68 192.828V204.791C176.68 206.182 175.551 207.309 174.158 207.309H133.811C132.418 207.309 131.289 206.182 131.289 204.791V192.828Z" fill="#00A0FF"/>
<path d="M140.346 195.862L142.016 200.908H142.083L143.749 195.862H145.029L142.765 202.272H141.33L139.07 195.862H140.346ZM146.709 202.37C146.404 202.37 146.129 202.315 145.885 202.206C145.643 202.096 145.45 201.933 145.308 201.718C145.168 201.503 145.098 201.238 145.098 200.923C145.098 200.652 145.148 200.428 145.249 200.25C145.349 200.073 145.486 199.931 145.659 199.825C145.832 199.718 146.028 199.638 146.245 199.583C146.465 199.527 146.692 199.486 146.926 199.461C147.207 199.432 147.436 199.406 147.612 199.383C147.787 199.358 147.915 199.32 147.994 199.27C148.075 199.218 148.116 199.138 148.116 199.029V199.01C148.116 198.775 148.046 198.592 147.906 198.463C147.767 198.334 147.565 198.269 147.302 198.269C147.024 198.269 146.803 198.329 146.64 198.45C146.479 198.571 146.371 198.714 146.314 198.879L145.255 198.729C145.339 198.437 145.476 198.193 145.668 197.996C145.861 197.798 146.096 197.65 146.374 197.552C146.652 197.451 146.959 197.402 147.296 197.402C147.527 197.402 147.758 197.429 147.988 197.483C148.218 197.537 148.428 197.627 148.618 197.752C148.808 197.875 148.961 198.043 149.075 198.256C149.193 198.469 149.251 198.735 149.251 199.055V202.272H148.161V201.611H148.123C148.054 201.746 147.957 201.87 147.831 201.987C147.708 202.102 147.552 202.195 147.364 202.266C147.178 202.335 146.96 202.37 146.709 202.37ZM147.004 201.537C147.231 201.537 147.429 201.492 147.596 201.402C147.763 201.31 147.892 201.189 147.981 201.039C148.074 200.889 148.12 200.725 148.12 200.547V199.981C148.084 200.01 148.024 200.037 147.938 200.063C147.854 200.087 147.76 200.109 147.656 200.128C147.552 200.147 147.448 200.163 147.345 200.178C147.243 200.193 147.154 200.205 147.079 200.216C146.91 200.239 146.758 200.276 146.625 200.328C146.491 200.381 146.385 200.454 146.308 200.547C146.231 200.639 146.192 200.758 146.192 200.904C146.192 201.113 146.269 201.271 146.421 201.377C146.573 201.484 146.768 201.537 147.004 201.537ZM151.526 195.862V202.272H150.392V195.862H151.526ZM152.693 202.272V197.464H153.828V202.272H152.693ZM153.264 196.782C153.084 196.782 152.929 196.722 152.8 196.603C152.67 196.482 152.606 196.337 152.606 196.168C152.606 195.997 152.67 195.852 152.8 195.733C152.929 195.612 153.084 195.551 153.264 195.551C153.445 195.551 153.6 195.612 153.728 195.733C153.857 195.852 153.922 195.997 153.922 196.168C153.922 196.337 153.857 196.482 153.728 196.603C153.6 196.722 153.445 196.782 153.264 196.782ZM156.781 202.357C156.403 202.357 156.064 202.26 155.765 202.065C155.467 201.871 155.231 201.59 155.057 201.22C154.884 200.851 154.797 200.403 154.797 199.874C154.797 199.34 154.885 198.89 155.061 198.522C155.238 198.153 155.477 197.874 155.778 197.686C156.079 197.496 156.414 197.402 156.784 197.402C157.066 197.402 157.298 197.45 157.48 197.545C157.662 197.64 157.806 197.753 157.913 197.887C158.019 198.018 158.102 198.142 158.16 198.259H158.207V195.862H159.345V202.272H158.229V201.514H158.16C158.102 201.632 158.017 201.756 157.906 201.887C157.795 202.016 157.649 202.127 157.468 202.219C157.286 202.311 157.057 202.357 156.781 202.357ZM157.098 201.427C157.338 201.427 157.543 201.362 157.712 201.233C157.881 201.101 158.01 200.919 158.097 200.685C158.185 200.452 158.229 200.179 158.229 199.868C158.229 199.557 158.185 199.287 158.097 199.058C158.012 198.828 157.884 198.65 157.715 198.522C157.548 198.395 157.342 198.331 157.098 198.331C156.845 198.331 156.634 198.397 156.465 198.528C156.295 198.66 156.168 198.842 156.082 199.073C155.997 199.304 155.954 199.57 155.954 199.868C155.954 200.169 155.997 200.437 156.082 200.673C156.17 200.906 156.298 201.091 156.468 201.227C156.639 201.36 156.849 201.427 157.098 201.427ZM162.685 202.366C162.203 202.366 161.785 202.266 161.435 202.065C161.086 201.863 160.817 201.577 160.629 201.208C160.441 200.836 160.347 200.399 160.347 199.896C160.347 199.402 160.441 198.968 160.629 198.594C160.82 198.218 161.084 197.926 161.426 197.718C161.766 197.507 162.166 197.402 162.626 197.402C162.922 197.402 163.203 197.45 163.466 197.545C163.731 197.64 163.965 197.786 164.168 197.984C164.373 198.182 164.534 198.434 164.651 198.742C164.767 199.046 164.826 199.409 164.826 199.831V200.178H160.88V199.414H163.739C163.736 199.197 163.689 199.004 163.597 198.835C163.505 198.664 163.377 198.529 163.212 198.431C163.049 198.334 162.858 198.284 162.642 198.284C162.41 198.284 162.206 198.341 162.03 198.453C161.855 198.564 161.718 198.71 161.62 198.891C161.524 199.071 161.475 199.268 161.472 199.483V200.15C161.472 200.43 161.524 200.67 161.626 200.87C161.728 201.068 161.871 201.22 162.055 201.327C162.239 201.431 162.454 201.484 162.701 201.484C162.866 201.484 163.015 201.46 163.149 201.414C163.283 201.367 163.399 201.297 163.497 201.205C163.595 201.113 163.669 200.999 163.72 200.863L164.779 200.982C164.712 201.262 164.585 201.506 164.397 201.715C164.211 201.922 163.972 202.082 163.682 202.197C163.392 202.31 163.06 202.366 162.685 202.366ZM165.786 202.272V197.464H166.886V198.266H166.936C167.024 197.988 167.174 197.774 167.388 197.624C167.603 197.472 167.848 197.395 168.124 197.395C168.187 197.395 168.257 197.399 168.334 197.405C168.413 197.409 168.479 197.416 168.532 197.426V198.469C168.483 198.452 168.407 198.437 168.303 198.425C168.2 198.41 168.101 198.403 168.005 198.403C167.798 198.403 167.612 198.448 167.447 198.538C167.284 198.626 167.156 198.747 167.062 198.904C166.968 199.061 166.92 199.241 166.92 199.446V202.272H165.786Z" fill="white"/>
</svg>
