<svg width="281" height="139" viewBox="0 0 281 139" fill="none" xmlns="http://www.w3.org/2000/svg">
<mask id="mask0_175_1566" style="mask-type:luminance" maskUnits="userSpaceOnUse" x="0" y="0" width="281" height="139">
<path d="M0.245117 5.53118C0.245117 2.74947 2.49474 0.494141 5.26981 0.494141H275.975C278.75 0.494141 281 2.74947 281 5.53118V133.346C281 136.128 278.75 138.383 275.975 138.383H5.26981C2.49474 138.383 0.245117 136.128 0.245117 133.346V5.53118Z" fill="white"/>
</mask>
<g mask="url(#mask0_175_1566)">
<path d="M281 1H-1V94H281V1Z" fill="white"/>
<path d="M261.245 20.957L254.941 27.2533" stroke="#222D39" stroke-width="1.75" stroke-linecap="round" stroke-linejoin="round"/>
<path d="M261.245 27.2533L254.941 20.957" stroke="#222D39" stroke-width="1.75" stroke-linecap="round" stroke-linejoin="round"/>
<path d="M0 93H281V138H0V93Z" fill="white"/>
<mask id="mask1_175_1566" style="mask-type:luminance" maskUnits="userSpaceOnUse" x="0" y="93" width="281" height="45">
<path d="M0 93H281V138H0V93Z" fill="white"/>
</mask>
<g mask="url(#mask1_175_1566)">
<path d="M0.245117 93.6794H282.05V92.4202H0.245117V93.6794Z" fill="#E1E1E1"/>
</g>
<path d="M59.5061 105.642C59.5061 104.251 60.6352 103.124 62.0278 103.124H162.897C164.29 103.124 165.419 104.251 165.419 105.642V125.79C165.419 127.182 164.29 128.309 162.897 128.309H62.0278C60.6352 128.309 59.5061 127.182 59.5061 125.79V105.642Z" fill="#F2FAFF"/>
<path d="M74.3029 114.182C74.2695 113.87 74.1289 113.626 73.8805 113.452C73.6347 113.278 73.3144 113.191 72.9204 113.191C72.6436 113.191 72.4059 113.233 72.208 113.316C72.0094 113.4 71.8581 113.513 71.7528 113.656C71.6475 113.799 71.5939 113.962 71.5914 114.146C71.5914 114.299 71.6261 114.431 71.6954 114.543C71.7673 114.655 71.8638 114.751 71.9854 114.829C72.1071 114.906 72.242 114.97 72.3902 115.023C72.5383 115.075 72.6878 115.12 72.8384 115.155L73.5256 115.327C73.803 115.391 74.069 115.478 74.325 115.588C74.5828 115.698 74.8129 115.836 75.0159 116.003C75.2215 116.17 75.3835 116.371 75.5033 116.607C75.6224 116.843 75.6823 117.12 75.6823 117.437C75.6823 117.867 75.5726 118.245 75.3526 118.572C75.1332 118.896 74.8155 119.15 74.4 119.334C73.9871 119.515 73.4865 119.606 72.8989 119.606C72.3284 119.606 71.8329 119.517 71.4124 119.341C70.9944 119.164 70.6672 118.907 70.4308 118.568C70.1969 118.229 70.0702 117.817 70.0513 117.33H71.3588C71.3777 117.585 71.4565 117.797 71.5952 117.967C71.7339 118.136 71.9142 118.263 72.1361 118.346C72.3606 118.429 72.6115 118.471 72.8882 118.471C73.177 118.471 73.4304 118.428 73.6479 118.343C73.8673 118.254 74.0394 118.133 74.1636 117.977C74.2878 117.82 74.3508 117.637 74.3534 117.426C74.3508 117.236 74.2947 117.078 74.185 116.954C74.0753 116.828 73.9209 116.723 73.7229 116.639C73.5269 116.554 73.298 116.478 73.0351 116.411L72.2004 116.196C71.5965 116.041 71.1186 115.806 70.7674 115.492C70.4188 115.174 70.2448 114.753 70.2448 114.229C70.2448 113.797 70.3621 113.419 70.596 113.095C70.8324 112.77 71.1533 112.519 71.5593 112.34C71.9653 112.158 72.4249 112.068 72.9387 112.068C73.4588 112.068 73.9152 112.158 74.3067 112.34C74.7007 112.519 75.0103 112.768 75.2347 113.087C75.4591 113.404 75.5745 113.77 75.5821 114.182H74.3029ZM79.2455 119.602C78.6939 119.602 78.2173 119.487 77.8163 119.258C77.4173 119.027 77.1109 118.7 76.8959 118.278C76.6809 117.853 76.5731 117.354 76.5731 116.779C76.5731 116.214 76.6809 115.718 76.8959 115.291C77.1128 114.862 77.416 114.528 77.8056 114.289C78.1946 114.049 78.6523 113.928 79.1774 113.928C79.5166 113.928 79.8363 113.983 80.1376 114.093C80.4408 114.2 80.7081 114.367 80.9395 114.593C81.174 114.82 81.3575 115.109 81.4911 115.459C81.6254 115.807 81.6922 116.223 81.6922 116.704V117.101H77.1821V116.228H80.449C80.4465 115.98 80.3929 115.76 80.2876 115.567C80.183 115.371 80.0361 115.217 79.847 115.105C79.661 114.993 79.4435 114.937 79.1951 114.937C78.9303 114.937 78.6977 115.001 78.4966 115.13C78.2961 115.256 78.1398 115.424 78.0275 115.631C77.9178 115.836 77.8617 116.061 77.8592 116.307V117.069C77.8592 117.389 77.9178 117.663 78.0345 117.892C78.1517 118.118 78.3156 118.292 78.5256 118.414C78.7355 118.533 78.9814 118.593 79.2632 118.593C79.4523 118.593 79.6225 118.567 79.7757 118.514C79.9283 118.46 80.0607 118.38 80.1729 118.275C80.2858 118.169 80.3702 118.04 80.4276 117.885L81.638 118.021C81.5617 118.34 81.4161 118.619 81.2011 118.858C80.9887 119.094 80.7163 119.278 80.3847 119.409C80.0525 119.538 79.673 119.602 79.2455 119.602ZM85.1886 119.602C84.6395 119.602 84.168 119.482 83.7739 119.24C83.3824 118.999 83.0805 118.667 82.868 118.242C82.6574 117.816 82.5528 117.324 82.5528 116.769C82.5528 116.211 82.66 115.718 82.8749 115.291C83.0899 114.862 83.3932 114.528 83.7847 114.289C84.1787 114.049 84.6446 113.928 85.1817 113.928C85.6281 113.928 86.0233 114.01 86.3675 114.175C86.7137 114.337 86.9898 114.567 87.1947 114.865C87.4002 115.161 87.5175 115.507 87.5458 115.903H86.3064C86.2566 115.638 86.1368 115.417 85.9483 115.241C85.7623 115.062 85.5127 114.973 85.2 114.973C84.9346 114.973 84.7019 115.044 84.5015 115.188C84.3004 115.328 84.144 115.531 84.0318 115.795C83.9221 116.06 83.8673 116.378 83.8673 116.747C83.8673 117.122 83.9221 117.443 84.0318 117.713C84.1415 117.98 84.2959 118.186 84.4939 118.332C84.6944 118.475 84.9295 118.547 85.2 118.547C85.391 118.547 85.5612 118.511 85.7119 118.439C85.8645 118.365 85.9924 118.259 86.0952 118.121C86.198 117.982 86.2686 117.814 86.3064 117.617H87.5458C87.5149 118.005 87.4002 118.35 87.2022 118.65C87.0037 118.948 86.7338 119.182 86.3928 119.351C86.0511 119.518 85.6501 119.602 85.1886 119.602ZM91.0107 119.602C90.4736 119.602 90.0077 119.483 89.6137 119.247C89.2196 119.011 88.9139 118.681 88.6964 118.257C88.4814 117.832 88.3742 117.336 88.3742 116.769C88.3742 116.201 88.4814 115.704 88.6964 115.277C88.9139 114.85 89.2196 114.518 89.6137 114.282C90.0077 114.046 90.4736 113.928 91.0107 113.928C91.5478 113.928 92.0137 114.046 92.4078 114.282C92.8018 114.518 93.1063 114.85 93.3212 115.277C93.5381 115.704 93.6472 116.201 93.6472 116.769C93.6472 117.336 93.5381 117.832 93.3212 118.257C93.1063 118.681 92.8018 119.011 92.4078 119.247C92.0137 119.483 91.5478 119.602 91.0107 119.602ZM91.0176 118.564C91.3089 118.564 91.5529 118.484 91.7483 118.325C91.9444 118.163 92.09 117.945 92.1852 117.673C92.2836 117.402 92.3321 117.099 92.3321 116.765C92.3321 116.429 92.2836 116.124 92.1852 115.852C92.09 115.579 91.9444 115.36 91.7483 115.198C91.5529 115.036 91.3089 114.955 91.0176 114.955C90.7194 114.955 90.4711 115.036 90.2725 115.198C90.077 115.36 89.9301 115.579 89.8324 115.852C89.7366 116.124 89.6887 116.429 89.6887 116.765C89.6887 117.099 89.7366 117.402 89.8324 117.673C89.9301 117.945 90.077 118.163 90.2725 118.325C90.4711 118.484 90.7194 118.564 91.0176 118.564ZM96.0441 116.275V119.494H94.7473V113.999H95.9867V114.933H96.0517C96.1778 114.626 96.3795 114.381 96.6569 114.2C96.9362 114.019 97.281 113.928 97.6921 113.928C98.0716 113.928 98.4026 114.009 98.6844 114.171C98.9681 114.334 99.1881 114.569 99.3432 114.876C99.5008 115.184 99.5783 115.557 99.5758 115.996V119.494H98.2796V116.196C98.2796 115.829 98.1838 115.541 97.9928 115.334C97.8043 115.126 97.5426 115.023 97.2085 115.023C96.9816 115.023 96.7798 115.073 96.6033 115.173C96.4287 115.271 96.2912 115.413 96.191 115.599C96.0933 115.784 96.0441 116.01 96.0441 116.275ZM102.936 119.591C102.504 119.591 102.117 119.48 101.775 119.258C101.434 119.036 101.164 118.715 100.966 118.292C100.768 117.87 100.668 117.358 100.668 116.754C100.668 116.144 100.769 115.628 100.97 115.209C101.173 114.786 101.446 114.468 101.79 114.254C102.133 114.037 102.517 113.928 102.94 113.928C103.262 113.928 103.527 113.983 103.735 114.093C103.943 114.2 104.107 114.33 104.229 114.482C104.351 114.633 104.445 114.774 104.512 114.908H104.566V112.168H105.866V119.494H104.591V118.628H104.512C104.445 118.763 104.349 118.904 104.222 119.055C104.095 119.202 103.928 119.329 103.72 119.434C103.513 119.539 103.251 119.591 102.936 119.591ZM103.298 118.528C103.572 118.528 103.807 118.455 104 118.307C104.193 118.156 104.34 117.948 104.44 117.681C104.54 117.414 104.591 117.102 104.591 116.747C104.591 116.391 104.54 116.083 104.44 115.82C104.343 115.558 104.197 115.354 104.003 115.209C103.812 115.063 103.577 114.99 103.298 114.99C103.009 114.99 102.768 115.065 102.574 115.216C102.381 115.366 102.235 115.573 102.137 115.839C102.04 116.103 101.99 116.406 101.99 116.747C101.99 117.09 102.04 117.397 102.137 117.666C102.237 117.933 102.384 118.145 102.578 118.3C102.773 118.452 103.014 118.528 103.298 118.528ZM108.831 119.606C108.483 119.606 108.169 119.543 107.889 119.419C107.612 119.293 107.393 119.107 107.23 118.861C107.07 118.616 106.99 118.313 106.99 117.953C106.99 117.642 107.047 117.386 107.162 117.183C107.277 116.981 107.433 116.818 107.631 116.697C107.829 116.575 108.053 116.483 108.301 116.422C108.552 116.357 108.811 116.311 109.078 116.282C109.4 116.248 109.662 116.219 109.863 116.192C110.063 116.164 110.209 116.121 110.299 116.064C110.393 116.004 110.439 115.912 110.439 115.788V115.767C110.439 115.497 110.359 115.289 110.199 115.141C110.04 114.993 109.809 114.919 109.508 114.919C109.191 114.919 108.938 114.988 108.752 115.126C108.568 115.265 108.444 115.428 108.38 115.616L107.169 115.445C107.265 115.111 107.422 114.832 107.642 114.608C107.862 114.381 108.13 114.212 108.448 114.1C108.766 113.985 109.117 113.928 109.501 113.928C109.766 113.928 110.03 113.959 110.293 114.021C110.555 114.083 110.795 114.186 111.013 114.329C111.23 114.469 111.404 114.661 111.536 114.905C111.669 115.148 111.736 115.452 111.736 115.817V119.494H110.49V118.74H110.446C110.368 118.892 110.257 119.035 110.114 119.169C109.972 119.3 109.795 119.406 109.58 119.487C109.367 119.566 109.117 119.606 108.831 119.606ZM109.168 118.654C109.428 118.654 109.654 118.603 109.845 118.5C110.036 118.395 110.183 118.257 110.286 118.085C110.39 117.913 110.443 117.726 110.443 117.523V116.876C110.402 116.909 110.333 116.94 110.235 116.969C110.14 116.998 110.032 117.022 109.913 117.044C109.793 117.066 109.675 117.085 109.558 117.101C109.441 117.118 109.34 117.132 109.254 117.144C109.061 117.17 108.887 117.213 108.734 117.273C108.582 117.333 108.461 117.416 108.373 117.523C108.284 117.628 108.24 117.764 108.24 117.931C108.24 118.169 108.327 118.35 108.501 118.471C108.676 118.593 108.898 118.654 109.168 118.654ZM113.04 119.494V113.999H114.297V114.916H114.354C114.455 114.598 114.627 114.354 114.87 114.182C115.117 114.008 115.397 113.921 115.712 113.921C115.784 113.921 115.864 113.924 115.952 113.931C116.043 113.936 116.118 113.945 116.178 113.957V115.148C116.123 115.129 116.036 115.112 115.917 115.098C115.799 115.081 115.686 115.073 115.576 115.073C115.34 115.073 115.127 115.124 114.938 115.227C114.752 115.327 114.605 115.466 114.498 115.645C114.39 115.824 114.337 116.031 114.337 116.264V119.494H113.04ZM118.013 121.555C117.836 121.555 117.672 121.54 117.522 121.512C117.374 121.486 117.256 121.455 117.167 121.419L117.468 120.41C117.657 120.465 117.825 120.492 117.973 120.489C118.121 120.486 118.252 120.44 118.364 120.349C118.478 120.261 118.575 120.113 118.654 119.906L118.765 119.609L116.77 113.999H118.145L119.413 118.149H119.47L120.742 113.999H122.121L119.919 120.16C119.816 120.451 119.68 120.7 119.51 120.908C119.341 121.117 119.133 121.277 118.887 121.387C118.643 121.499 118.352 121.555 118.013 121.555ZM127.104 119.606C126.755 119.606 126.441 119.543 126.162 119.419C125.885 119.293 125.665 119.107 125.502 118.861C125.343 118.616 125.263 118.313 125.263 117.953C125.263 117.642 125.32 117.386 125.435 117.183C125.549 116.981 125.705 116.818 125.904 116.697C126.102 116.575 126.325 116.483 126.574 116.422C126.824 116.357 127.084 116.311 127.351 116.282C127.674 116.248 127.935 116.219 128.136 116.192C128.336 116.164 128.482 116.121 128.573 116.064C128.666 116.004 128.712 115.912 128.712 115.788V115.767C128.712 115.497 128.632 115.289 128.472 115.141C128.312 114.993 128.082 114.919 127.781 114.919C127.463 114.919 127.212 114.988 127.025 115.126C126.841 115.265 126.717 115.428 126.652 115.616L125.442 115.445C125.537 115.111 125.695 114.832 125.915 114.608C126.134 114.381 126.403 114.212 126.72 114.1C127.038 113.985 127.389 113.928 127.774 113.928C128.039 113.928 128.303 113.959 128.565 114.021C128.828 114.083 129.068 114.186 129.285 114.329C129.503 114.469 129.677 114.661 129.808 114.905C129.942 115.148 130.009 115.452 130.009 115.817V119.494H128.762V118.74H128.72C128.641 118.892 128.53 119.035 128.386 119.169C128.245 119.3 128.068 119.406 127.853 119.487C127.64 119.566 127.391 119.606 127.104 119.606ZM127.44 118.654C127.701 118.654 127.926 118.603 128.117 118.5C128.308 118.395 128.455 118.257 128.558 118.085C128.663 117.913 128.716 117.726 128.716 117.523V116.876C128.675 116.909 128.606 116.94 128.508 116.969C128.413 116.998 128.305 117.022 128.186 117.044C128.066 117.066 127.948 117.085 127.831 117.101C127.714 117.118 127.612 117.132 127.527 117.144C127.333 117.17 127.16 117.213 127.007 117.273C126.854 117.333 126.734 117.416 126.645 117.523C126.557 117.628 126.513 117.764 126.513 117.931C126.513 118.169 126.6 118.35 126.775 118.471C126.949 118.593 127.171 118.654 127.44 118.654ZM133.713 119.602C133.163 119.602 132.692 119.482 132.298 119.24C131.906 118.999 131.604 118.667 131.391 118.242C131.181 117.816 131.076 117.324 131.076 116.769C131.076 116.211 131.184 115.718 131.399 115.291C131.614 114.862 131.917 114.528 132.309 114.289C132.703 114.049 133.169 113.928 133.706 113.928C134.152 113.928 134.547 114.01 134.891 114.175C135.238 114.337 135.513 114.567 135.719 114.865C135.924 115.161 136.041 115.507 136.07 115.903H134.83C134.78 115.638 134.661 115.417 134.472 115.241C134.286 115.062 134.036 114.973 133.723 114.973C133.459 114.973 133.225 115.044 133.025 115.188C132.824 115.328 132.668 115.531 132.556 115.795C132.446 116.06 132.391 116.378 132.391 116.747C132.391 117.122 132.446 117.443 132.556 117.713C132.665 117.98 132.82 118.186 133.018 118.332C133.218 118.475 133.453 118.547 133.723 118.547C133.914 118.547 134.085 118.511 134.236 118.439C134.388 118.365 134.516 118.259 134.619 118.121C134.722 117.982 134.792 117.814 134.83 117.617H136.07C136.039 118.005 135.924 118.35 135.726 118.65C135.528 118.948 135.258 119.182 134.916 119.351C134.575 119.518 134.173 119.602 133.713 119.602ZM139.882 113.999V115.001H136.719V113.999H139.882ZM137.5 112.683H138.796V117.841C138.796 118.016 138.823 118.149 138.875 118.242C138.93 118.333 139.002 118.395 139.09 118.428C139.178 118.462 139.276 118.479 139.384 118.479C139.465 118.479 139.539 118.472 139.606 118.46C139.675 118.448 139.728 118.438 139.763 118.428L139.982 119.441C139.913 119.465 139.814 119.491 139.685 119.519C139.558 119.548 139.403 119.565 139.219 119.57C138.894 119.579 138.602 119.53 138.342 119.423C138.081 119.313 137.875 119.144 137.722 118.915C137.571 118.686 137.498 118.4 137.5 118.056V112.683ZM140.966 119.494V113.999H142.263V119.494H140.966ZM141.618 113.22C141.413 113.22 141.236 113.152 141.088 113.016C140.94 112.877 140.866 112.712 140.866 112.519C140.866 112.323 140.94 112.157 141.088 112.021C141.236 111.883 141.413 111.814 141.618 111.814C141.826 111.814 142.003 111.883 142.148 112.021C142.297 112.157 142.37 112.323 142.37 112.519C142.37 112.712 142.297 112.877 142.148 113.016C142.003 113.152 141.826 113.22 141.618 113.22ZM145.997 119.602C145.459 119.602 144.994 119.483 144.6 119.247C144.206 119.011 143.9 118.681 143.682 118.257C143.467 117.832 143.36 117.336 143.36 116.769C143.36 116.201 143.467 115.704 143.682 115.277C143.9 114.85 144.206 114.518 144.6 114.282C144.994 114.046 145.459 113.928 145.997 113.928C146.534 113.928 146.999 114.046 147.393 114.282C147.787 114.518 148.092 114.85 148.307 115.277C148.524 115.704 148.632 116.201 148.632 116.769C148.632 117.336 148.524 117.832 148.307 118.257C148.092 118.681 147.787 119.011 147.393 119.247C146.999 119.483 146.534 119.602 145.997 119.602ZM146.004 118.564C146.295 118.564 146.538 118.484 146.734 118.325C146.93 118.163 147.076 117.945 147.171 117.673C147.269 117.402 147.318 117.099 147.318 116.765C147.318 116.429 147.269 116.124 147.171 115.852C147.076 115.579 146.93 115.36 146.734 115.198C146.538 115.036 146.295 114.955 146.004 114.955C145.705 114.955 145.457 115.036 145.258 115.198C145.063 115.36 144.916 115.579 144.818 115.852C144.722 116.124 144.675 116.429 144.675 116.765C144.675 117.099 144.722 117.402 144.818 117.673C144.916 117.945 145.063 118.163 145.258 118.325C145.457 118.484 145.705 118.564 146.004 118.564ZM151.03 116.275V119.494H149.733V113.999H150.973V114.933H151.037C151.164 114.626 151.365 114.381 151.643 114.2C151.922 114.019 152.267 113.928 152.678 113.928C153.057 113.928 153.388 114.009 153.67 114.171C153.954 114.334 154.174 114.569 154.329 114.876C154.487 115.184 154.564 115.557 154.562 115.996V119.494H153.265V116.196C153.265 115.829 153.17 115.541 152.979 115.334C152.79 115.126 152.529 115.023 152.194 115.023C151.967 115.023 151.766 115.073 151.589 115.173C151.415 115.271 151.277 115.413 151.177 115.599C151.079 115.784 151.03 116.01 151.03 116.275Z" fill="#222D39"/>
<path d="M175.506 105.642C175.506 104.251 176.635 103.124 178.028 103.124H264.397C265.79 103.124 266.919 104.251 266.919 105.642V125.79C266.919 127.182 265.79 128.309 264.397 128.309H178.028C176.635 128.309 175.506 127.182 175.506 125.79V105.642Z" fill="#00A0FF"/>
<path d="M186.317 119.494V112.168H189.067C189.631 112.168 190.104 112.273 190.486 112.483C190.871 112.692 191.161 112.981 191.357 113.348C191.555 113.714 191.654 114.128 191.654 114.593C191.654 115.063 191.555 115.48 191.357 115.845C191.158 116.211 190.865 116.498 190.479 116.707C190.092 116.915 189.616 117.019 189.05 117.019H187.227V115.928H188.871C189.2 115.928 189.47 115.871 189.68 115.756C189.89 115.641 190.045 115.484 190.146 115.284C190.248 115.084 190.3 114.853 190.3 114.593C190.3 114.334 190.248 114.105 190.146 113.906C190.045 113.709 189.889 113.555 189.676 113.445C189.467 113.333 189.195 113.277 188.863 113.277H187.646V119.494H186.317ZM192.751 119.494V113.999H194.008V114.916H194.066C194.166 114.598 194.338 114.354 194.581 114.182C194.827 114.008 195.108 113.921 195.423 113.921C195.495 113.921 195.575 113.924 195.663 113.931C195.754 113.936 195.829 113.945 195.889 113.957V115.148C195.834 115.129 195.746 115.112 195.627 115.098C195.51 115.081 195.396 115.073 195.287 115.073C195.05 115.073 194.838 115.124 194.649 115.227C194.463 115.327 194.316 115.466 194.209 115.645C194.102 115.824 194.047 116.031 194.047 116.264V119.494H192.751ZM196.75 119.494V113.999H198.047V119.494H196.75ZM197.402 113.22C197.197 113.22 197.02 113.152 196.872 113.016C196.724 112.877 196.65 112.712 196.65 112.519C196.65 112.323 196.724 112.157 196.872 112.021C197.02 111.883 197.197 111.814 197.402 111.814C197.61 111.814 197.786 111.883 197.932 112.021C198.08 112.157 198.155 112.323 198.155 112.519C198.155 112.712 198.08 112.877 197.932 113.016C197.786 113.152 197.61 113.22 197.402 113.22ZM199.38 119.494V113.999H200.62V114.933H200.684C200.799 114.618 200.988 114.373 201.254 114.196C201.519 114.018 201.835 113.928 202.203 113.928C202.575 113.928 202.889 114.019 203.145 114.2C203.403 114.378 203.585 114.623 203.689 114.933H203.747C203.868 114.628 204.074 114.385 204.363 114.203C204.654 114.02 204.999 113.928 205.398 113.928C205.905 113.928 206.317 114.088 206.638 114.407C206.957 114.727 207.117 115.193 207.117 115.806V119.494H205.817V116.007C205.817 115.665 205.726 115.416 205.545 115.259C205.364 115.099 205.141 115.019 204.879 115.019C204.566 115.019 204.321 115.117 204.144 115.312C203.97 115.505 203.883 115.757 203.883 116.067V119.494H202.611V115.953C202.611 115.669 202.525 115.443 202.353 115.273C202.184 115.104 201.962 115.019 201.687 115.019C201.501 115.019 201.331 115.067 201.178 115.162C201.026 115.256 200.904 115.388 200.813 115.559C200.722 115.728 200.677 115.927 200.677 116.153V119.494H199.38ZM210.016 119.606C209.668 119.606 209.354 119.543 209.074 119.419C208.797 119.293 208.578 119.107 208.415 118.861C208.255 118.616 208.175 118.313 208.175 117.953C208.175 117.642 208.232 117.386 208.347 117.183C208.462 116.981 208.618 116.818 208.816 116.697C209.014 116.575 209.238 116.483 209.486 116.422C209.737 116.357 209.996 116.311 210.263 116.282C210.585 116.248 210.847 116.219 211.048 116.192C211.248 116.164 211.394 116.121 211.484 116.064C211.578 116.004 211.624 115.912 211.624 115.788V115.767C211.624 115.497 211.544 115.289 211.384 115.141C211.225 114.993 210.994 114.919 210.693 114.919C210.376 114.919 210.123 114.988 209.937 115.126C209.753 115.265 209.629 115.428 209.565 115.616L208.354 115.445C208.45 115.111 208.607 114.832 208.827 114.608C209.047 114.381 209.315 114.212 209.633 114.1C209.951 113.985 210.302 113.928 210.686 113.928C210.951 113.928 211.215 113.959 211.478 114.021C211.74 114.083 211.98 114.186 212.198 114.329C212.415 114.469 212.589 114.661 212.721 114.905C212.854 115.148 212.921 115.452 212.921 115.817V119.494H211.675V118.74H211.631C211.553 118.892 211.442 119.035 211.299 119.169C211.157 119.3 210.98 119.406 210.765 119.487C210.552 119.566 210.302 119.606 210.016 119.606ZM210.353 118.654C210.613 118.654 210.839 118.603 211.03 118.5C211.221 118.395 211.368 118.257 211.471 118.085C211.575 117.913 211.628 117.726 211.628 117.523V116.876C211.587 116.909 211.518 116.94 211.42 116.969C211.325 116.998 211.217 117.022 211.098 117.044C210.978 117.066 210.86 117.085 210.743 117.101C210.626 117.118 210.525 117.132 210.439 117.144C210.246 117.17 210.072 117.213 209.919 117.273C209.767 117.333 209.646 117.416 209.558 117.523C209.469 117.628 209.425 117.764 209.425 117.931C209.425 118.169 209.512 118.35 209.686 118.471C209.861 118.593 210.083 118.654 210.353 118.654ZM214.225 119.494V113.999H215.482V114.916H215.539C215.64 114.598 215.812 114.354 216.055 114.182C216.302 114.008 216.582 113.921 216.897 113.921C216.969 113.921 217.049 113.924 217.137 113.931C217.228 113.936 217.303 113.945 217.363 113.957V115.148C217.308 115.129 217.221 115.112 217.102 115.098C216.984 115.081 216.871 115.073 216.761 115.073C216.525 115.073 216.312 115.124 216.123 115.227C215.937 115.327 215.79 115.466 215.683 115.645C215.575 115.824 215.522 116.031 215.522 116.264V119.494H214.225ZM219.198 121.555C219.021 121.555 218.857 121.54 218.707 121.512C218.559 121.486 218.441 121.455 218.352 121.419L218.653 120.41C218.842 120.465 219.01 120.492 219.158 120.489C219.306 120.486 219.437 120.44 219.549 120.349C219.663 120.261 219.76 120.113 219.839 119.906L219.95 119.609L217.955 113.999H219.33L220.598 118.149H220.655L221.927 113.999H223.306L221.104 120.16C221.001 120.451 220.865 120.7 220.695 120.908C220.526 121.117 220.318 121.277 220.072 121.387C219.828 121.499 219.537 121.555 219.198 121.555ZM228.289 119.606C227.94 119.606 227.626 119.543 227.347 119.419C227.07 119.293 226.85 119.107 226.687 118.861C226.528 118.616 226.448 118.313 226.448 117.953C226.448 117.642 226.505 117.386 226.62 117.183C226.734 116.981 226.89 116.818 227.089 116.697C227.287 116.575 227.51 116.483 227.759 116.422C228.009 116.357 228.269 116.311 228.536 116.282C228.859 116.248 229.12 116.219 229.321 116.192C229.521 116.164 229.667 116.121 229.758 116.064C229.851 116.004 229.897 115.912 229.897 115.788V115.767C229.897 115.497 229.817 115.289 229.657 115.141C229.497 114.993 229.267 114.919 228.966 114.919C228.648 114.919 228.397 114.988 228.21 115.126C228.026 115.265 227.902 115.428 227.837 115.616L226.627 115.445C226.722 115.111 226.88 114.832 227.1 114.608C227.319 114.381 227.588 114.212 227.905 114.1C228.223 113.985 228.574 113.928 228.959 113.928C229.224 113.928 229.488 113.959 229.75 114.021C230.013 114.083 230.253 114.186 230.47 114.329C230.688 114.469 230.862 114.661 230.993 114.905C231.127 115.148 231.194 115.452 231.194 115.817V119.494H229.947V118.74H229.905C229.826 118.892 229.715 119.035 229.571 119.169C229.43 119.3 229.253 119.406 229.038 119.487C228.825 119.566 228.576 119.606 228.289 119.606ZM228.625 118.654C228.886 118.654 229.111 118.603 229.302 118.5C229.493 118.395 229.64 118.257 229.743 118.085C229.848 117.913 229.901 117.726 229.901 117.523V116.876C229.86 116.909 229.791 116.94 229.693 116.969C229.598 116.998 229.49 117.022 229.371 117.044C229.251 117.066 229.133 117.085 229.016 117.101C228.899 117.118 228.797 117.132 228.712 117.144C228.518 117.17 228.345 117.213 228.192 117.273C228.039 117.333 227.919 117.416 227.83 117.523C227.742 117.628 227.698 117.764 227.698 117.931C227.698 118.169 227.785 118.35 227.96 118.471C228.134 118.593 228.356 118.654 228.625 118.654ZM234.898 119.602C234.348 119.602 233.877 119.482 233.483 119.24C233.091 118.999 232.789 118.667 232.576 118.242C232.366 117.816 232.261 117.324 232.261 116.769C232.261 116.211 232.369 115.718 232.584 115.291C232.799 114.862 233.102 114.528 233.494 114.289C233.888 114.049 234.354 113.928 234.891 113.928C235.337 113.928 235.732 114.01 236.076 114.175C236.423 114.337 236.698 114.567 236.904 114.865C237.109 115.161 237.226 115.507 237.255 115.903H236.015C235.965 115.638 235.846 115.417 235.657 115.241C235.471 115.062 235.221 114.973 234.908 114.973C234.644 114.973 234.41 115.044 234.21 115.188C234.009 115.328 233.853 115.531 233.741 115.795C233.631 116.06 233.576 116.378 233.576 116.747C233.576 117.122 233.631 117.443 233.741 117.713C233.85 117.98 234.005 118.186 234.203 118.332C234.403 118.475 234.638 118.547 234.908 118.547C235.099 118.547 235.27 118.511 235.421 118.439C235.573 118.365 235.701 118.259 235.804 118.121C235.907 117.982 235.977 117.814 236.015 117.617H237.255C237.224 118.005 237.109 118.35 236.911 118.65C236.713 118.948 236.443 119.182 236.101 119.351C235.76 119.518 235.358 119.602 234.898 119.602ZM241.067 113.999V115.001H237.904V113.999H241.067ZM238.685 112.683H239.981V117.841C239.981 118.016 240.008 118.149 240.06 118.242C240.115 118.333 240.187 118.395 240.275 118.428C240.363 118.462 240.461 118.479 240.569 118.479C240.65 118.479 240.724 118.472 240.791 118.46C240.86 118.448 240.913 118.438 240.948 118.428L241.167 119.441C241.098 119.465 240.999 119.491 240.87 119.519C240.743 119.548 240.588 119.565 240.404 119.57C240.079 119.579 239.787 119.53 239.527 119.423C239.266 119.313 239.06 119.144 238.907 118.915C238.756 118.686 238.683 118.4 238.685 118.056V112.683ZM242.151 119.494V113.999H243.448V119.494H242.151ZM242.803 113.22C242.598 113.22 242.421 113.152 242.273 113.016C242.125 112.877 242.051 112.712 242.051 112.519C242.051 112.323 242.125 112.157 242.273 112.021C242.421 111.883 242.598 111.814 242.803 111.814C243.011 111.814 243.188 111.883 243.333 112.021C243.482 112.157 243.555 112.323 243.555 112.519C243.555 112.712 243.482 112.877 243.333 113.016C243.188 113.152 243.011 113.22 242.803 113.22ZM247.182 119.602C246.644 119.602 246.179 119.483 245.785 119.247C245.391 119.011 245.085 118.681 244.867 118.257C244.652 117.832 244.545 117.336 244.545 116.769C244.545 116.201 244.652 115.704 244.867 115.277C245.085 114.85 245.391 114.518 245.785 114.282C246.179 114.046 246.644 113.928 247.182 113.928C247.719 113.928 248.184 114.046 248.578 114.282C248.972 114.518 249.277 114.85 249.492 115.277C249.709 115.704 249.817 116.201 249.817 116.769C249.817 117.336 249.709 117.832 249.492 118.257C249.277 118.681 248.972 119.011 248.578 119.247C248.184 119.483 247.719 119.602 247.182 119.602ZM247.189 118.564C247.48 118.564 247.723 118.484 247.919 118.325C248.115 118.163 248.261 117.945 248.356 117.673C248.454 117.402 248.503 117.099 248.503 116.765C248.503 116.429 248.454 116.124 248.356 115.852C248.261 115.579 248.115 115.36 247.919 115.198C247.723 115.036 247.48 114.955 247.189 114.955C246.89 114.955 246.642 115.036 246.443 115.198C246.248 115.36 246.101 115.579 246.003 115.852C245.907 116.124 245.86 116.429 245.86 116.765C245.86 117.099 245.907 117.402 246.003 117.673C246.101 117.945 246.248 118.163 246.443 118.325C246.642 118.484 246.89 118.564 247.189 118.564ZM252.215 116.275V119.494H250.918V113.999H252.158V114.933H252.222C252.349 114.626 252.55 114.381 252.828 114.2C253.107 114.019 253.452 113.928 253.863 113.928C254.242 113.928 254.573 114.009 254.855 114.171C255.139 114.334 255.359 114.569 255.514 114.876C255.672 115.184 255.749 115.557 255.747 115.996V119.494H254.45V116.196C254.45 115.829 254.355 115.541 254.164 115.334C253.975 115.126 253.714 115.023 253.379 115.023C253.152 115.023 252.951 115.073 252.774 115.173C252.6 115.271 252.462 115.413 252.362 115.599C252.264 115.784 252.215 116.01 252.215 116.275Z" fill="white"/>
<path d="M20.9361 38.3636H21.8608V43.4197C21.8608 43.9418 21.7377 44.4078 21.4917 44.818C21.248 45.2257 20.9038 45.5476 20.4588 45.7837C20.0138 46.0174 19.4918 46.1342 18.8928 46.1342C18.2937 46.1342 17.7717 46.0174 17.3267 45.7837C16.8817 45.5476 16.5362 45.2257 16.2901 44.818C16.0465 44.4078 15.9247 43.9418 15.9247 43.4197V38.3636H16.8494V43.3452C16.8494 43.718 16.9315 44.0499 17.0955 44.3407C17.2596 44.6291 17.4933 44.8565 17.7965 45.0231C18.1023 45.1871 18.4677 45.2692 18.8928 45.2692C19.3178 45.2692 19.6832 45.1871 19.989 45.0231C20.2947 44.8565 20.5284 44.6291 20.69 44.3407C20.854 44.0499 20.9361 43.718 20.9361 43.3452V38.3636ZM26.0789 40.2727V41.0185H23.1108V40.2727H26.0789ZM23.9759 38.9006H24.8559V44.3594C24.8559 44.608 24.8919 44.7944 24.964 44.9187C25.0386 45.0405 25.133 45.1225 25.2474 45.1648C25.3642 45.2045 25.4873 45.2244 25.6165 45.2244C25.7135 45.2244 25.793 45.2195 25.8552 45.2095C25.9173 45.1971 25.967 45.1871 26.0043 45.1797L26.1833 45.9702C26.1236 45.9925 26.0403 46.0149 25.9335 46.0373C25.8266 46.0621 25.6911 46.0746 25.527 46.0746C25.2785 46.0746 25.0348 46.0211 24.7962 45.9142C24.5601 45.8074 24.3637 45.6445 24.2071 45.4258C24.053 45.207 23.9759 44.9311 23.9759 44.598V38.9006ZM32.757 46.1193C32.2051 46.1193 31.7291 45.9975 31.3289 45.7539C30.9312 45.5078 30.6242 45.1648 30.4079 44.7248C30.1941 44.2823 30.0872 43.7678 30.0872 43.1811C30.0872 42.5945 30.1941 42.0774 30.4079 41.63C30.6242 41.18 30.9249 40.8295 31.3102 40.5785C31.698 40.3249 32.1504 40.1982 32.6675 40.1982C32.9658 40.1982 33.2603 40.2479 33.5512 40.3473C33.842 40.4467 34.1068 40.6083 34.3454 40.832C34.584 41.0533 34.7742 41.3466 34.9159 41.712C35.0576 42.0774 35.1284 42.5273 35.1284 43.0618V43.4347H30.7136V42.674H34.2335C34.2335 42.3509 34.1689 42.0625 34.0396 41.8089C33.9129 41.5554 33.7314 41.3553 33.4953 41.2086C33.2616 41.062 32.9857 40.9886 32.6675 40.9886C32.317 40.9886 32.0137 41.0756 31.7577 41.2496C31.5041 41.4212 31.309 41.6449 31.1723 41.9208C31.0356 42.1967 30.9672 42.4925 30.9672 42.8082V43.3153C30.9672 43.7479 31.0418 44.1145 31.1909 44.4153C31.3426 44.7136 31.5526 44.9411 31.8211 45.0977C32.0895 45.2518 32.4015 45.3288 32.757 45.3288C32.9881 45.3288 33.197 45.2965 33.3834 45.2319C33.5723 45.1648 33.7351 45.0653 33.8718 44.9336C34.0086 44.7994 34.1142 44.6328 34.1888 44.4339L35.0389 44.6726C34.9494 44.9609 34.7991 45.2145 34.5878 45.4332C34.3765 45.6495 34.1155 45.8185 33.8047 45.9403C33.494 46.0597 33.1448 46.1193 32.757 46.1193ZM37.347 42.5547V46H36.467V40.2727H37.3172V41.1676H37.3917C37.526 40.8768 37.7298 40.6431 38.0032 40.4666C38.2767 40.2876 38.6297 40.1982 39.0622 40.1982C39.45 40.1982 39.7893 40.2777 40.0801 40.4368C40.371 40.5934 40.5972 40.832 40.7587 41.1527C40.9203 41.4709 41.0011 41.8736 41.0011 42.3608V46H40.1211V42.4205C40.1211 41.9705 40.0043 41.62 39.7706 41.369C39.537 41.1154 39.2163 40.9886 38.8086 40.9886C38.5277 40.9886 38.2767 41.0495 38.0554 41.1713C37.8367 41.2931 37.6639 41.4709 37.5372 41.7045C37.4104 41.9382 37.347 42.2216 37.347 42.5547ZM42.6091 46V40.2727H43.4891V46H42.6091ZM43.0566 39.3182C42.885 39.3182 42.7371 39.2598 42.6128 39.1429C42.491 39.0261 42.4301 38.8857 42.4301 38.7216C42.4301 38.5575 42.491 38.4171 42.6128 38.3002C42.7371 38.1834 42.885 38.125 43.0566 38.125C43.2281 38.125 43.3747 38.1834 43.4965 38.3002C43.6208 38.4171 43.683 38.5575 43.683 38.7216C43.683 38.8857 43.6208 39.0261 43.4965 39.1429C43.3747 39.2598 43.2281 39.3182 43.0566 39.3182ZM45.1008 46V40.2727H45.9509V41.1676H46.0255C46.1448 40.8619 46.3375 40.6245 46.6035 40.4554C46.8695 40.2839 47.1889 40.1982 47.5617 40.1982C47.9396 40.1982 48.254 40.2839 48.5051 40.4554C48.7587 40.6245 48.9563 40.8619 49.098 41.1676H49.1576C49.3043 40.8718 49.5243 40.6369 49.8176 40.4629C50.1109 40.2864 50.4627 40.1982 50.8728 40.1982C51.3849 40.1982 51.8038 40.3585 52.1294 40.6792C52.455 40.9973 52.6179 41.4933 52.6179 42.1669V46H51.7379V42.1669C51.7379 41.7443 51.6223 41.4423 51.3911 41.2608C51.1599 41.0794 50.8877 40.9886 50.5745 40.9886C50.1718 40.9886 49.8599 41.1104 49.6386 41.354C49.4174 41.5952 49.3068 41.9009 49.3068 42.2713V46H48.4119V42.0774C48.4119 41.7518 48.3062 41.4895 48.0949 41.2907C47.8837 41.0893 47.6115 40.9886 47.2784 40.9886C47.0497 40.9886 46.8359 41.0495 46.637 41.1713C46.4407 41.2931 46.2816 41.4622 46.1598 41.6784C46.0404 41.8922 45.9808 42.1396 45.9808 42.4205V46H45.1008ZM58.8653 46.1342C58.5024 46.1342 58.173 46.0659 57.8772 45.9292C57.5814 45.79 57.3465 45.5898 57.1725 45.3288C56.9984 45.0653 56.9114 44.7472 56.9114 44.3743C56.9114 44.0462 56.9761 43.7802 57.1053 43.5763C57.2346 43.37 57.4074 43.2085 57.6236 43.0916C57.8399 42.9748 58.0785 42.8878 58.3395 42.8306C58.603 42.771 58.8678 42.7237 59.1337 42.6889C59.4818 42.6442 59.7639 42.6106 59.9802 42.5882C60.1989 42.5634 60.358 42.5224 60.4574 42.4652C60.5593 42.408 60.6103 42.3086 60.6103 42.1669V42.1371C60.6103 41.7692 60.5096 41.4833 60.3083 41.2795C60.1094 41.0756 59.8074 40.9737 59.4022 40.9737C58.9821 40.9737 58.6527 41.0657 58.4141 41.2496C58.1755 41.4336 58.0077 41.63 57.9107 41.8388L57.0755 41.5405C57.2247 41.1925 57.4235 40.9215 57.6721 40.7276C57.9232 40.5312 58.1966 40.3945 58.4924 40.3175C58.7907 40.2379 59.084 40.1982 59.3724 40.1982C59.5563 40.1982 59.7676 40.2205 60.0063 40.2653C60.2474 40.3075 60.4798 40.3958 60.7035 40.53C60.9297 40.6642 61.1174 40.8668 61.2666 41.1378C61.4157 41.4087 61.4903 41.7717 61.4903 42.2266V46H60.6103V45.2244H60.5656C60.5059 45.3487 60.4065 45.4817 60.2673 45.6234C60.1281 45.7651 59.9429 45.8857 59.7117 45.9851C59.4805 46.0845 59.1984 46.1342 58.8653 46.1342ZM58.9995 45.3438C59.3475 45.3438 59.6408 45.2754 59.8795 45.1387C60.1206 45.002 60.3021 44.8255 60.4239 44.6092C60.5482 44.3929 60.6103 44.1655 60.6103 43.9268V43.1214C60.573 43.1662 60.491 43.2072 60.3642 43.2445C60.2399 43.2793 60.0957 43.3104 59.9317 43.3377C59.7701 43.3626 59.6123 43.3849 59.4581 43.4048C59.3065 43.4222 59.1835 43.4371 59.089 43.4496C58.8603 43.4794 58.6465 43.5279 58.4477 43.595C58.2513 43.6596 58.0922 43.7578 57.9704 43.8896C57.8511 44.0188 57.7914 44.1953 57.7914 44.419C57.7914 44.7248 57.9045 44.956 58.1307 45.1126C58.3594 45.2667 58.649 45.3438 58.9995 45.3438ZM65.2591 46.1193C64.7818 46.1193 64.3604 45.9988 63.995 45.7576C63.6296 45.514 63.3438 45.171 63.1374 44.7285C62.9311 44.2836 62.8279 43.7578 62.8279 43.1513C62.8279 42.5497 62.9311 42.0277 63.1374 41.5852C63.3438 41.1428 63.6309 40.801 63.9988 40.5598C64.3667 40.3187 64.7917 40.1982 65.274 40.1982C65.6468 40.1982 65.9414 40.2603 66.1577 40.3846C66.3764 40.5064 66.543 40.6456 66.6573 40.8022C66.7741 40.9563 66.8649 41.0831 66.9295 41.1825H67.0041V38.3636H67.8841V46H67.0339V45.12H66.9295C66.8649 45.2244 66.7729 45.3562 66.6536 45.5153C66.5343 45.6719 66.364 45.8123 66.1428 45.9366C65.9215 46.0584 65.627 46.1193 65.2591 46.1193ZM65.3784 45.3288C65.7314 45.3288 66.0297 45.2369 66.2733 45.0529C66.5169 44.8665 66.7021 44.6092 66.8288 44.2811C66.9556 43.9505 67.019 43.5689 67.019 43.1364C67.019 42.7088 66.9569 42.3347 66.8326 42.014C66.7083 41.6909 66.5243 41.4398 66.2807 41.2608C66.0371 41.0794 65.7363 40.9886 65.3784 40.9886C65.0055 40.9886 64.6948 41.0843 64.4462 41.2757C64.2001 41.4647 64.0149 41.7219 63.8906 42.0476C63.7688 42.3707 63.7079 42.7337 63.7079 43.1364C63.7079 43.544 63.7701 43.9144 63.8944 44.2475C64.0211 44.5781 64.2076 44.8416 64.4537 45.038C64.7022 45.2319 65.0105 45.3288 65.3784 45.3288ZM72.571 46V40.2727H73.4212V41.1676H73.4957C73.6151 40.8619 73.8077 40.6245 74.0737 40.4554C74.3397 40.2839 74.6591 40.1982 75.032 40.1982C75.4098 40.1982 75.7243 40.2839 75.9753 40.4554C76.2289 40.6245 76.4265 40.8619 76.5682 41.1676H76.6278C76.7745 40.8718 76.9945 40.6369 77.2878 40.4629C77.5811 40.2864 77.9329 40.1982 78.343 40.1982C78.8551 40.1982 79.274 40.3585 79.5996 40.6792C79.9252 40.9973 80.0881 41.4933 80.0881 42.1669V46H79.2081V42.1669C79.2081 41.7443 79.0925 41.4423 78.8613 41.2608C78.6301 41.0794 78.358 40.9886 78.0447 40.9886C77.642 40.9886 77.3301 41.1104 77.1088 41.354C76.8876 41.5952 76.777 41.9009 76.777 42.2713V46H75.8821V42.0774C75.8821 41.7518 75.7765 41.4895 75.5652 41.2907C75.3539 41.0893 75.0817 40.9886 74.7486 40.9886C74.5199 40.9886 74.3061 41.0495 74.1072 41.1713C73.9109 41.2931 73.7518 41.4622 73.63 41.6784C73.5107 41.8922 73.451 42.1396 73.451 42.4205V46H72.571ZM81.697 46V40.2727H82.577V46H81.697ZM82.1444 39.3182C81.9729 39.3182 81.825 39.2598 81.7007 39.1429C81.5789 39.0261 81.518 38.8857 81.518 38.7216C81.518 38.5575 81.5789 38.4171 81.7007 38.3002C81.825 38.1834 81.9729 38.125 82.1444 38.125C82.316 38.125 82.4626 38.1834 82.5844 38.3002C82.7087 38.4171 82.7709 38.5575 82.7709 38.7216C82.7709 38.8857 82.7087 39.0261 82.5844 39.1429C82.4626 39.2598 82.316 39.3182 82.1444 39.3182ZM85.0687 42.5547V46H84.1887V40.2727H85.0388V41.1676H85.1134C85.2476 40.8768 85.4515 40.6431 85.7249 40.4666C85.9984 40.2876 86.3513 40.1982 86.7839 40.1982C87.1717 40.1982 87.511 40.2777 87.8018 40.4368C88.0926 40.5934 88.3188 40.832 88.4804 41.1527C88.642 41.4709 88.7228 41.8736 88.7228 42.3608V46H87.8428V42.4205C87.8428 41.9705 87.726 41.62 87.4923 41.369C87.2587 41.1154 86.938 40.9886 86.5303 40.9886C86.2494 40.9886 85.9984 41.0495 85.7771 41.1713C85.5584 41.2931 85.3856 41.4709 85.2588 41.7045C85.1321 41.9382 85.0687 42.2216 85.0687 42.5547ZM90.3308 46V40.2727H91.2108V46H90.3308ZM90.7782 39.3182C90.6067 39.3182 90.4588 39.2598 90.3345 39.1429C90.2127 39.0261 90.1518 38.8857 90.1518 38.7216C90.1518 38.5575 90.2127 38.4171 90.3345 38.3002C90.4588 38.1834 90.6067 38.125 90.7782 38.125C90.9498 38.125 91.0964 38.1834 91.2182 38.3002C91.3425 38.4171 91.4047 38.5575 91.4047 38.7216C91.4047 38.8857 91.3425 39.0261 91.2182 39.1429C91.0964 39.2598 90.9498 39.3182 90.7782 39.3182ZM92.8225 46V40.2727H93.6726V41.1676H93.7472C93.8665 40.8619 94.0592 40.6245 94.3252 40.4554C94.5911 40.2839 94.9106 40.1982 95.2834 40.1982C95.6613 40.1982 95.9757 40.2839 96.2268 40.4554C96.4803 40.6245 96.678 40.8619 96.8196 41.1676H96.8793C97.026 40.8718 97.246 40.6369 97.5393 40.4629C97.8326 40.2864 98.1843 40.1982 98.5945 40.1982C99.1066 40.1982 99.5254 40.3585 99.8511 40.6792C100.177 40.9973 100.34 41.4933 100.34 42.1669V46H99.4596V42.1669C99.4596 41.7443 99.344 41.4423 99.1128 41.2608C98.8816 41.0794 98.6094 40.9886 98.2962 40.9886C97.8935 40.9886 97.5815 41.1104 97.3603 41.354C97.1391 41.5952 97.0285 41.9009 97.0285 42.2713V46H96.1336V42.0774C96.1336 41.7518 96.0279 41.4895 95.8166 41.2907C95.6053 41.0893 95.3331 40.9886 95 40.9886C94.7714 40.9886 94.5576 41.0495 94.3587 41.1713C94.1623 41.2931 94.0032 41.4622 93.8814 41.6784C93.7621 41.8922 93.7025 42.1396 93.7025 42.4205V46H92.8225ZM103.634 46.1342C103.271 46.1342 102.942 46.0659 102.646 45.9292C102.35 45.79 102.115 45.5898 101.941 45.3288C101.767 45.0653 101.68 44.7472 101.68 44.3743C101.68 44.0462 101.745 43.7802 101.874 43.5763C102.003 43.37 102.176 43.2085 102.392 43.0916C102.608 42.9748 102.847 42.8878 103.108 42.8306C103.372 42.771 103.636 42.7237 103.902 42.6889C104.25 42.6442 104.532 42.6106 104.749 42.5882C104.967 42.5634 105.127 42.5224 105.226 42.4652C105.328 42.408 105.379 42.3086 105.379 42.1669V42.1371C105.379 41.7692 105.278 41.4833 105.077 41.2795C104.878 41.0756 104.576 40.9737 104.171 40.9737C103.751 40.9737 103.421 41.0657 103.183 41.2496C102.944 41.4336 102.776 41.63 102.679 41.8388L101.844 41.5405C101.993 41.1925 102.192 40.9215 102.441 40.7276C102.692 40.5312 102.965 40.3945 103.261 40.3175C103.559 40.2379 103.853 40.1982 104.141 40.1982C104.325 40.1982 104.536 40.2205 104.775 40.2653C105.016 40.3075 105.248 40.3958 105.472 40.53C105.698 40.6642 105.886 40.8668 106.035 41.1378C106.184 41.4087 106.259 41.7717 106.259 42.2266V46H105.379V45.2244H105.334C105.274 45.3487 105.175 45.4817 105.036 45.6234C104.897 45.7651 104.711 45.8857 104.48 45.9851C104.249 46.0845 103.967 46.1342 103.634 46.1342ZM103.768 45.3438C104.116 45.3438 104.409 45.2754 104.648 45.1387C104.889 45.002 105.071 44.8255 105.192 44.6092C105.317 44.3929 105.379 44.1655 105.379 43.9268V43.1214C105.342 43.1662 105.26 43.2072 105.133 43.2445C105.008 43.2793 104.864 43.3104 104.7 43.3377C104.539 43.3626 104.381 43.3849 104.227 43.4048C104.075 43.4222 103.952 43.4371 103.858 43.4496C103.629 43.4794 103.415 43.5279 103.216 43.595C103.02 43.6596 102.861 43.7578 102.739 43.8896C102.62 44.0188 102.56 44.1953 102.56 44.419C102.56 44.7248 102.673 44.956 102.899 45.1126C103.128 45.2667 103.418 45.3438 103.768 45.3438ZM115.501 40.2727L113.383 46H112.489L110.371 40.2727H111.325L112.906 44.8366H112.966L114.547 40.2727H115.501ZM118.859 46.1193C118.307 46.1193 117.831 45.9975 117.431 45.7539C117.033 45.5078 116.726 45.1648 116.51 44.7248C116.296 44.2823 116.189 43.7678 116.189 43.1811C116.189 42.5945 116.296 42.0774 116.51 41.63C116.726 41.18 117.027 40.8295 117.412 40.5785C117.8 40.3249 118.252 40.1982 118.77 40.1982C119.068 40.1982 119.362 40.2479 119.653 40.3473C119.944 40.4467 120.209 40.6083 120.447 40.832C120.686 41.0533 120.876 41.3466 121.018 41.712C121.16 42.0774 121.23 42.5273 121.23 43.0618V43.4347H116.816V42.674H120.336C120.336 42.3509 120.271 42.0625 120.142 41.8089C120.015 41.5554 119.833 41.3553 119.597 41.2086C119.364 41.062 119.088 40.9886 118.77 40.9886C118.419 40.9886 118.116 41.0756 117.86 41.2496C117.606 41.4212 117.411 41.6449 117.274 41.9208C117.138 42.1967 117.069 42.4925 117.069 42.8082V43.3153C117.069 43.7479 117.144 44.1145 117.293 44.4153C117.445 44.7136 117.655 44.9411 117.923 45.0977C118.192 45.2518 118.504 45.3288 118.859 45.3288C119.09 45.3288 119.299 45.2965 119.485 45.2319C119.674 45.1648 119.837 45.0653 119.974 44.9336C120.111 44.7994 120.216 44.6328 120.291 44.4339L121.141 44.6726C121.051 44.9609 120.901 45.2145 120.69 45.4332C120.479 45.6495 120.218 45.8185 119.907 45.9403C119.596 46.0597 119.247 46.1193 118.859 46.1193ZM123.449 42.5547V46H122.569V40.2727H123.419V41.1676H123.494C123.628 40.8768 123.832 40.6431 124.105 40.4666C124.379 40.2876 124.732 40.1982 125.164 40.1982C125.552 40.1982 125.891 40.2777 126.182 40.4368C126.473 40.5934 126.699 40.832 126.861 41.1527C127.022 41.4709 127.103 41.8736 127.103 42.3608V46H126.223V42.4205C126.223 41.9705 126.106 41.62 125.873 41.369C125.639 41.1154 125.318 40.9886 124.911 40.9886C124.63 40.9886 124.379 41.0495 124.157 41.1713C123.939 41.2931 123.766 41.4709 123.639 41.7045C123.512 41.9382 123.449 42.2216 123.449 42.5547ZM128.711 46V40.2727H129.591V46H128.711ZM129.159 39.3182C128.987 39.3182 128.839 39.2598 128.715 39.1429C128.593 39.0261 128.532 38.8857 128.532 38.7216C128.532 38.5575 128.593 38.4171 128.715 38.3002C128.839 38.1834 128.987 38.125 129.159 38.125C129.33 38.125 129.477 38.1834 129.599 38.3002C129.723 38.4171 129.785 38.5575 129.785 38.7216C129.785 38.8857 129.723 39.0261 129.599 39.1429C129.477 39.2598 129.33 39.3182 129.159 39.3182ZM132.888 46.1342C132.525 46.1342 132.196 46.0659 131.9 45.9292C131.604 45.79 131.369 45.5898 131.195 45.3288C131.021 45.0653 130.934 44.7472 130.934 44.3743C130.934 44.0462 130.999 43.7802 131.128 43.5763C131.258 43.37 131.43 43.2085 131.647 43.0916C131.863 42.9748 132.101 42.8878 132.362 42.8306C132.626 42.771 132.891 42.7237 133.157 42.6889C133.505 42.6442 133.787 42.6106 134.003 42.5882C134.222 42.5634 134.381 42.5224 134.48 42.4652C134.582 42.408 134.633 42.3086 134.633 42.1669V42.1371C134.633 41.7692 134.533 41.4833 134.331 41.2795C134.132 41.0756 133.83 40.9737 133.425 40.9737C133.005 40.9737 132.676 41.0657 132.437 41.2496C132.198 41.4336 132.031 41.63 131.934 41.8388L131.098 41.5405C131.248 41.1925 131.446 40.9215 131.695 40.7276C131.946 40.5312 132.22 40.3945 132.515 40.3175C132.814 40.2379 133.107 40.1982 133.395 40.1982C133.579 40.1982 133.791 40.2205 134.029 40.2653C134.27 40.3075 134.503 40.3958 134.726 40.53C134.953 40.6642 135.14 40.8668 135.29 41.1378C135.439 41.4087 135.513 41.7717 135.513 42.2266V46H134.633V45.2244H134.589C134.529 45.3487 134.429 45.4817 134.29 45.6234C134.151 45.7651 133.966 45.8857 133.735 45.9851C133.503 46.0845 133.221 46.1342 132.888 46.1342ZM133.022 45.3438C133.37 45.3438 133.664 45.2754 133.902 45.1387C134.144 45.002 134.325 44.8255 134.447 44.6092C134.571 44.3929 134.633 44.1655 134.633 43.9268V43.1214C134.596 43.1662 134.514 43.2072 134.387 43.2445C134.263 43.2793 134.119 43.3104 133.955 43.3377C133.793 43.3626 133.635 43.3849 133.481 43.4048C133.329 43.4222 133.206 43.4371 133.112 43.4496C132.883 43.4794 132.669 43.5279 132.471 43.595C132.274 43.6596 132.115 43.7578 131.993 43.8896C131.874 44.0188 131.814 44.1953 131.814 44.419C131.814 44.7248 131.927 44.956 132.154 45.1126C132.382 45.2667 132.672 45.3438 133.022 45.3438ZM137.119 46V40.2727H137.97V41.1676H138.044C138.163 40.8619 138.356 40.6245 138.622 40.4554C138.888 40.2839 139.207 40.1982 139.58 40.1982C139.958 40.1982 140.273 40.2839 140.524 40.4554C140.777 40.6245 140.975 40.8619 141.117 41.1676H141.176C141.323 40.8718 141.543 40.6369 141.836 40.4629C142.129 40.2864 142.481 40.1982 142.891 40.1982C143.403 40.1982 143.822 40.3585 144.148 40.6792C144.474 40.9973 144.636 41.4933 144.636 42.1669V46H143.756V42.1669C143.756 41.7443 143.641 41.4423 143.41 41.2608C143.178 41.0794 142.906 40.9886 142.593 40.9886C142.19 40.9886 141.878 41.1104 141.657 41.354C141.436 41.5952 141.325 41.9009 141.325 42.2713V46H140.43V42.0774C140.43 41.7518 140.325 41.4895 140.114 41.2907C139.902 41.0893 139.63 40.9886 139.297 40.9886C139.068 40.9886 138.854 41.0495 138.656 41.1713C138.459 41.2931 138.3 41.4622 138.178 41.6784C138.059 41.8922 137.999 42.1396 137.999 42.4205V46H137.119ZM147.558 44.956L147.498 45.3587C147.456 45.642 147.391 45.9453 147.304 46.2685C147.22 46.5916 147.132 46.8961 147.04 47.182C146.948 47.4679 146.872 47.6953 146.812 47.8643H146.141C146.173 47.7053 146.216 47.4952 146.268 47.2342C146.32 46.9732 146.372 46.6811 146.424 46.358C146.479 46.0373 146.524 45.7092 146.559 45.3736L146.603 44.956H147.558ZM156.049 48.1477V45.12H155.974C155.91 45.2244 155.818 45.3562 155.699 45.5153C155.579 45.6719 155.409 45.8123 155.188 45.9366C154.966 46.0584 154.672 46.1193 154.304 46.1193C153.827 46.1193 153.405 45.9988 153.04 45.7576C152.675 45.514 152.389 45.171 152.182 44.7285C151.976 44.2836 151.873 43.7578 151.873 43.1513C151.873 42.5497 151.976 42.0277 152.182 41.5852C152.389 41.1428 152.676 40.801 153.044 40.5598C153.412 40.3187 153.837 40.1982 154.319 40.1982C154.692 40.1982 154.986 40.2603 155.203 40.3846C155.421 40.5064 155.588 40.6456 155.702 40.8022C155.819 40.9563 155.91 41.0831 155.974 41.1825H156.079V40.2727H156.929V48.1477H156.049ZM154.423 45.3288C154.776 45.3288 155.075 45.2369 155.318 45.0529C155.562 44.8665 155.747 44.6092 155.874 44.2811C156.001 43.9505 156.064 43.5689 156.064 43.1364C156.064 42.7088 156.002 42.3347 155.877 42.014C155.753 41.6909 155.569 41.4398 155.326 41.2608C155.082 41.0794 154.781 40.9886 154.423 40.9886C154.05 40.9886 153.74 41.0843 153.491 41.2757C153.245 41.4647 153.06 41.7219 152.936 42.0476C152.814 42.3707 152.753 42.7337 152.753 43.1364C152.753 43.544 152.815 43.9144 152.939 44.2475C153.066 44.5781 153.252 44.8416 153.499 45.038C153.747 45.2319 154.055 45.3288 154.423 45.3288ZM162.149 43.6584V40.2727H163.029V46H162.149V45.0305H162.089C161.955 45.3214 161.746 45.5687 161.463 45.7725C161.18 45.9739 160.822 46.0746 160.389 46.0746C160.031 46.0746 159.713 45.9963 159.435 45.8397C159.156 45.6806 158.938 45.4419 158.778 45.1238C158.619 44.8031 158.54 44.3991 158.54 43.9119V40.2727H159.42V43.8523C159.42 44.2699 159.537 44.603 159.77 44.8516C160.006 45.1001 160.307 45.2244 160.673 45.2244C160.891 45.2244 161.114 45.1685 161.34 45.0566C161.569 44.9448 161.76 44.7733 161.914 44.5421C162.071 44.3109 162.149 44.0163 162.149 43.6584ZM164.641 46V40.2727H165.521V46H164.641ZM165.088 39.3182C164.917 39.3182 164.769 39.2598 164.645 39.1429C164.523 39.0261 164.462 38.8857 164.462 38.7216C164.462 38.5575 164.523 38.4171 164.645 38.3002C164.769 38.1834 164.917 38.125 165.088 38.125C165.26 38.125 165.406 38.1834 165.528 38.3002C165.653 38.4171 165.715 38.5575 165.715 38.7216C165.715 38.8857 165.653 39.0261 165.528 39.1429C165.406 39.2598 165.26 39.3182 165.088 39.3182ZM171.189 41.5554L170.399 41.7791C170.349 41.6474 170.276 41.5194 170.179 41.3951C170.084 41.2683 169.955 41.1639 169.791 41.0819C169.627 40.9998 169.417 40.9588 169.161 40.9588C168.81 40.9588 168.518 41.0396 168.285 41.2012C168.054 41.3603 167.938 41.5629 167.938 41.8089C167.938 42.0277 168.017 42.2005 168.177 42.3272C168.336 42.454 168.584 42.5597 168.922 42.6442L169.772 42.853C170.285 42.9773 170.666 43.1674 170.917 43.4235C171.168 43.677 171.294 44.0039 171.294 44.4041C171.294 44.7322 171.199 45.0256 171.01 45.2841C170.824 45.5426 170.563 45.7464 170.227 45.8956C169.892 46.0447 169.502 46.1193 169.057 46.1193C168.472 46.1193 167.989 45.9925 167.606 45.739C167.223 45.4854 166.981 45.1151 166.879 44.6278L167.714 44.419C167.794 44.7273 167.944 44.9585 168.165 45.1126C168.389 45.2667 168.681 45.3438 169.042 45.3438C169.452 45.3438 169.777 45.2567 170.019 45.0827C170.262 44.9062 170.384 44.695 170.384 44.4489C170.384 44.25 170.314 44.0835 170.175 43.9492C170.036 43.8125 169.822 43.7106 169.534 43.6435L168.579 43.4197C168.055 43.2955 167.669 43.1028 167.423 42.8418C167.18 42.5783 167.058 42.2489 167.058 41.8537C167.058 41.5305 167.149 41.2447 167.33 40.9961C167.514 40.7475 167.764 40.5524 168.08 40.4107C168.398 40.269 168.758 40.1982 169.161 40.1982C169.728 40.1982 170.173 40.3224 170.496 40.571C170.821 40.8196 171.053 41.1477 171.189 41.5554ZM176.451 42.5547V46H175.572V40.2727H176.422V41.1676H176.496C176.63 40.8768 176.834 40.6431 177.108 40.4666C177.381 40.2876 177.734 40.1982 178.167 40.1982C178.554 40.1982 178.894 40.2777 179.185 40.4368C179.475 40.5934 179.702 40.832 179.863 41.1527C180.025 41.4709 180.106 41.8736 180.106 42.3608V46H179.226V42.4205C179.226 41.9705 179.109 41.62 178.875 41.369C178.641 41.1154 178.321 40.9886 177.913 40.9886C177.632 40.9886 177.381 41.0495 177.16 41.1713C176.941 41.2931 176.768 41.4709 176.642 41.7045C176.515 41.9382 176.451 42.2216 176.451 42.5547ZM184.04 46.1193C183.523 46.1193 183.07 45.9963 182.679 45.7502C182.292 45.5041 181.988 45.1598 181.77 44.7173C181.553 44.2749 181.445 43.7578 181.445 43.1662C181.445 42.5696 181.553 42.0488 181.77 41.6039C181.988 41.1589 182.292 40.8134 182.679 40.5673C183.07 40.3212 183.523 40.1982 184.04 40.1982C184.557 40.1982 185.01 40.3212 185.398 40.5673C185.788 40.8134 186.091 41.1589 186.307 41.6039C186.526 42.0488 186.635 42.5696 186.635 43.1662C186.635 43.7578 186.526 44.2749 186.307 44.7173C186.091 45.1598 185.788 45.5041 185.398 45.7502C185.01 45.9963 184.557 46.1193 184.04 46.1193ZM184.04 45.3288C184.433 45.3288 184.756 45.2282 185.01 45.0268C185.263 44.8255 185.451 44.5607 185.573 44.2326C185.695 43.9045 185.756 43.549 185.756 43.1662C185.756 42.7834 185.695 42.4267 185.573 42.0961C185.451 41.7654 185.263 41.4982 185.01 41.2944C184.756 41.0906 184.433 40.9886 184.04 40.9886C183.648 40.9886 183.324 41.0906 183.071 41.2944C182.817 41.4982 182.63 41.7654 182.508 42.0961C182.386 42.4267 182.325 42.7834 182.325 43.1662C182.325 43.549 182.386 43.9045 182.508 44.2326C182.63 44.5607 182.817 44.8255 183.071 45.0268C183.324 45.2282 183.648 45.3288 184.04 45.3288ZM192.036 41.5554L191.245 41.7791C191.195 41.6474 191.122 41.5194 191.025 41.3951C190.931 41.2683 190.801 41.1639 190.637 41.0819C190.473 40.9998 190.263 40.9588 190.007 40.9588C189.657 40.9588 189.365 41.0396 189.131 41.2012C188.9 41.3603 188.784 41.5629 188.784 41.8089C188.784 42.0277 188.864 42.2005 189.023 42.3272C189.182 42.454 189.43 42.5597 189.769 42.6442L190.619 42.853C191.131 42.9773 191.512 43.1674 191.763 43.4235C192.014 43.677 192.14 44.0039 192.14 44.4041C192.14 44.7322 192.045 45.0256 191.857 45.2841C191.67 45.5426 191.409 45.7464 191.074 45.8956C190.738 46.0447 190.348 46.1193 189.903 46.1193C189.319 46.1193 188.835 45.9925 188.452 45.739C188.069 45.4854 187.827 45.1151 187.725 44.6278L188.56 44.419C188.64 44.7273 188.79 44.9585 189.012 45.1126C189.235 45.2667 189.527 45.3438 189.888 45.3438C190.298 45.3438 190.624 45.2567 190.865 45.0827C191.108 44.9062 191.23 44.695 191.23 44.4489C191.23 44.25 191.161 44.0835 191.021 43.9492C190.882 43.8125 190.668 43.7106 190.38 43.6435L189.425 43.4197C188.901 43.2955 188.516 43.1028 188.27 42.8418C188.026 42.5783 187.904 42.2489 187.904 41.8537C187.904 41.5305 187.995 41.2447 188.176 40.9961C188.36 40.7475 188.61 40.5524 188.926 40.4107C189.244 40.269 189.604 40.1982 190.007 40.1982C190.574 40.1982 191.019 40.3224 191.342 40.571C191.668 40.8196 191.899 41.1477 192.036 41.5554ZM195.955 40.2727V41.0185H192.987V40.2727H195.955ZM193.852 38.9006H194.732V44.3594C194.732 44.608 194.768 44.7944 194.84 44.9187C194.915 45.0405 195.009 45.1225 195.124 45.1648C195.241 45.2045 195.364 45.2244 195.493 45.2244C195.59 45.2244 195.669 45.2195 195.732 45.2095C195.794 45.1971 195.843 45.1871 195.881 45.1797L196.06 45.9702C196 45.9925 195.917 46.0149 195.81 46.0373C195.703 46.0621 195.568 46.0746 195.403 46.0746C195.155 46.0746 194.911 46.0211 194.673 45.9142C194.437 45.8074 194.24 45.6445 194.084 45.4258C193.929 45.207 193.852 44.9311 193.852 44.598V38.9006ZM197.279 46V40.2727H198.129V41.1378H198.189C198.293 40.8544 198.482 40.6245 198.756 40.448C199.029 40.2715 199.337 40.1832 199.68 40.1832C199.745 40.1832 199.826 40.1845 199.923 40.187C200.02 40.1895 200.093 40.1932 200.143 40.1982V41.093C200.113 41.0856 200.044 41.0744 199.938 41.0595C199.833 41.0421 199.723 41.0334 199.606 41.0334C199.327 41.0334 199.079 41.0918 198.86 41.2086C198.644 41.323 198.472 41.4821 198.345 41.6859C198.221 41.8873 198.159 42.1172 198.159 42.3757V46H197.279ZM204.795 43.6584V40.2727H205.675V46H204.795V45.0305H204.735C204.601 45.3214 204.392 45.5687 204.109 45.7725C203.826 45.9739 203.468 46.0746 203.035 46.0746C202.677 46.0746 202.359 45.9963 202.081 45.8397C201.802 45.6806 201.583 45.4419 201.424 45.1238C201.265 44.8031 201.186 44.3991 201.186 43.9119V40.2727H202.066V43.8523C202.066 44.2699 202.183 44.603 202.416 44.8516C202.652 45.1001 202.953 45.2244 203.319 45.2244C203.537 45.2244 203.76 45.1685 203.986 45.0566C204.215 44.9448 204.406 44.7733 204.56 44.5421C204.717 44.3109 204.795 44.0163 204.795 43.6584ZM207.287 46V40.2727H208.137V41.1676H208.212C208.331 40.8619 208.524 40.6245 208.79 40.4554C209.055 40.2839 209.375 40.1982 209.748 40.1982C210.126 40.1982 210.44 40.2839 210.691 40.4554C210.945 40.6245 211.142 40.8619 211.284 41.1676H211.344C211.49 40.8718 211.71 40.6369 212.004 40.4629C212.297 40.2864 212.649 40.1982 213.059 40.1982C213.571 40.1982 213.99 40.3585 214.315 40.6792C214.641 40.9973 214.804 41.4933 214.804 42.1669V46H213.924V42.1669C213.924 41.7443 213.808 41.4423 213.577 41.2608C213.346 41.0794 213.074 40.9886 212.761 40.9886C212.358 40.9886 212.046 41.1104 211.825 41.354C211.603 41.5952 211.493 41.9009 211.493 42.2713V46H210.598V42.0774C210.598 41.7518 210.492 41.4895 210.281 41.2907C210.07 41.0893 209.797 40.9886 209.464 40.9886C209.236 40.9886 209.022 41.0495 208.823 41.1713C208.627 41.2931 208.468 41.4622 208.346 41.6784C208.226 41.8922 208.167 42.1396 208.167 42.4205V46H207.287ZM217.054 46.0597C216.87 46.0597 216.712 45.9938 216.581 45.862C216.449 45.7303 216.383 45.5724 216.383 45.3885C216.383 45.2045 216.449 45.0467 216.581 44.915C216.712 44.7832 216.87 44.7173 217.054 44.7173C217.238 44.7173 217.396 44.7832 217.528 44.915C217.659 45.0467 217.725 45.2045 217.725 45.3885C217.725 45.5103 217.694 45.6222 217.632 45.7241C217.572 45.826 217.492 45.908 217.39 45.9702C217.29 46.0298 217.178 46.0597 217.054 46.0597Z" fill="#6E7881"/>
<path d="M18.767 75V67.5818H23.244V68.3787H19.6653V70.8852H23.0122V71.6821H19.6653V74.2031H23.302V75H18.767ZM25.3847 69.4364L26.7177 71.7111L28.0506 69.4364H29.0359L27.2393 72.2182L29.0359 75H28.0506L26.7177 72.8412L25.3847 75H24.3995L26.1671 72.2182L24.3995 69.4364H25.3847ZM32.2868 75.1159C31.7652 75.1159 31.316 74.9928 30.9393 74.7464C30.5626 74.5001 30.2728 74.1609 30.07 73.7286C29.8672 73.2964 29.7657 72.8026 29.7657 72.2472C29.7657 71.6821 29.8696 71.1835 30.0772 70.7512C30.2873 70.3165 30.5795 69.9773 30.9538 69.7334C31.3305 69.4871 31.77 69.3639 32.2723 69.3639C32.6635 69.3639 33.016 69.4364 33.3299 69.5813C33.6439 69.7261 33.901 69.929 34.1015 70.1898C34.3019 70.4506 34.4262 70.7548 34.4745 71.1026H33.6197C33.5545 70.849 33.4096 70.6244 33.185 70.4288C32.9629 70.2308 32.6635 70.1318 32.2868 70.1318C31.9535 70.1318 31.6613 70.2187 31.4102 70.3926C31.1615 70.5641 30.9671 70.8067 30.827 71.1207C30.6894 71.4322 30.6206 71.798 30.6206 72.2182C30.6206 72.648 30.6882 73.0223 30.8234 73.3411C30.961 73.6598 31.1542 73.9073 31.4029 74.0836C31.6541 74.2599 31.9487 74.348 32.2868 74.348C32.5089 74.348 32.7105 74.3094 32.8917 74.2321C33.0728 74.1548 33.2261 74.0438 33.3517 73.8989C33.4772 73.754 33.5666 73.5801 33.6197 73.3773H34.4745C34.4262 73.7057 34.3067 74.0015 34.1159 74.2647C33.9276 74.5255 33.6777 74.7332 33.3662 74.8877C33.0571 75.0398 32.6973 75.1159 32.2868 75.1159ZM38.0569 75.1159C37.5208 75.1159 37.0583 74.9976 36.6696 74.7609C36.2832 74.5219 35.985 74.1886 35.7749 73.7612C35.5672 73.3314 35.4634 72.8315 35.4634 72.2616C35.4634 71.6918 35.5672 71.1895 35.7749 70.7548C35.985 70.3178 36.2772 69.9773 36.6515 69.7334C37.0282 69.4871 37.4676 69.3639 37.9699 69.3639C38.2597 69.3639 38.5458 69.4122 38.8284 69.5088C39.1109 69.6054 39.3681 69.7624 39.5999 69.9797C39.8317 70.1946 40.0164 70.4795 40.1541 70.8345C40.2917 71.1895 40.3605 71.6266 40.3605 72.1457V72.508H36.0719V71.769H39.4912C39.4912 71.4551 39.4284 71.175 39.3029 70.9287C39.1797 70.6824 39.0034 70.488 38.774 70.3455C38.5471 70.2031 38.279 70.1318 37.9699 70.1318C37.6294 70.1318 37.3348 70.2163 37.0861 70.3854C36.8398 70.552 36.6502 70.7693 36.5174 71.0374C36.3846 71.3054 36.3182 71.5928 36.3182 71.8994V72.392C36.3182 72.8122 36.3907 73.1684 36.5355 73.4606C36.6828 73.7504 36.8869 73.9713 37.1477 74.1234C37.4085 74.2732 37.7115 74.348 38.0569 74.348C38.2814 74.348 38.4843 74.3166 38.6654 74.2538C38.8489 74.1886 39.0071 74.092 39.1399 73.9641C39.2727 73.8337 39.3753 73.6719 39.4478 73.4787L40.2736 73.7105C40.1867 73.9906 40.0406 74.2369 39.8353 74.4494C39.6301 74.6595 39.3765 74.8237 39.0747 74.942C38.7728 75.058 38.4336 75.1159 38.0569 75.1159ZM41.6609 77.0864V69.4364H42.4868V70.3202H42.5882C42.651 70.2236 42.7379 70.1004 42.849 69.9507C42.9625 69.7986 43.1243 69.6634 43.3343 69.545C43.5468 69.4243 43.8342 69.3639 44.1964 69.3639C44.6649 69.3639 45.0778 69.481 45.4352 69.7153C45.7926 69.9495 46.0715 70.2815 46.2719 70.7114C46.4723 71.1412 46.5725 71.6483 46.5725 72.2327C46.5725 72.8219 46.4723 73.3326 46.2719 73.7648C46.0715 74.1947 45.7938 74.5279 45.4388 74.7646C45.0838 74.9988 44.6745 75.1159 44.2109 75.1159C43.8535 75.1159 43.5674 75.0567 43.3524 74.9384C43.1375 74.8177 42.9721 74.6812 42.8562 74.5291C42.7403 74.3746 42.651 74.2466 42.5882 74.1452H42.5157V77.0864H41.6609ZM42.5012 72.2182C42.5012 72.6384 42.5628 73.009 42.686 73.3302C42.8091 73.6489 42.989 73.8989 43.2257 74.08C43.4623 74.2587 43.7521 74.348 44.095 74.348C44.4524 74.348 44.7506 74.2538 44.9897 74.0655C45.2311 73.8747 45.4123 73.6187 45.533 73.2976C45.6561 72.974 45.7177 72.6142 45.7177 72.2182C45.7177 71.827 45.6574 71.4744 45.5366 71.1605C45.4183 70.8442 45.2384 70.5942 44.9969 70.4107C44.7578 70.2248 44.4572 70.1318 44.095 70.1318C43.7473 70.1318 43.4551 70.22 43.2184 70.3962C42.9818 70.5701 42.8031 70.814 42.6824 71.1279C42.5616 71.4394 42.5012 71.8028 42.5012 72.2182ZM50.2961 69.4364V70.1608H47.4129V69.4364H50.2961ZM48.2532 68.1034H49.1081V73.4063C49.1081 73.6477 49.1431 73.8288 49.2131 73.9496C49.2855 74.0679 49.3773 74.1476 49.4884 74.1886C49.6019 74.2273 49.7214 74.2466 49.847 74.2466C49.9412 74.2466 50.0184 74.2418 50.0788 74.2321C50.1392 74.22 50.1875 74.2104 50.2237 74.2031L50.3975 74.971C50.3396 74.9928 50.2587 75.0145 50.1549 75.0362C50.051 75.0604 49.9194 75.0724 49.76 75.0724C49.5186 75.0724 49.2819 75.0205 49.0501 74.9167C48.8207 74.8129 48.6299 74.6547 48.4778 74.4422C48.3281 74.2297 48.2532 73.9616 48.2532 73.6381V68.1034ZM53.8549 75.1159C53.3188 75.1159 52.8564 74.9976 52.4676 74.7609C52.0812 74.5219 51.783 74.1886 51.5729 73.7612C51.3653 73.3314 51.2614 72.8315 51.2614 72.2616C51.2614 71.6918 51.3653 71.1895 51.5729 70.7548C51.783 70.3178 52.0752 69.9773 52.4495 69.7334C52.8262 69.4871 53.2657 69.3639 53.768 69.3639C54.0577 69.3639 54.3439 69.4122 54.6264 69.5088C54.9089 69.6054 55.1661 69.7624 55.3979 69.9797C55.6298 70.1946 55.8145 70.4795 55.9521 70.8345C56.0898 71.1895 56.1586 71.6266 56.1586 72.1457V72.508H51.87V71.769H55.2893C55.2893 71.4551 55.2265 71.175 55.1009 70.9287C54.9778 70.6824 54.8015 70.488 54.5721 70.3455C54.3451 70.2031 54.0771 70.1318 53.768 70.1318C53.4275 70.1318 53.1329 70.2163 52.8842 70.3854C52.6379 70.552 52.4483 70.7693 52.3155 71.0374C52.1827 71.3054 52.1163 71.5928 52.1163 71.8994V72.392C52.1163 72.8122 52.1887 73.1684 52.3336 73.4606C52.4809 73.7504 52.6849 73.9713 52.9457 74.1234C53.2065 74.2732 53.5096 74.348 53.8549 74.348C54.0795 74.348 54.2823 74.3166 54.4634 74.2538C54.6469 74.1886 54.8051 74.092 54.9379 73.9641C55.0707 73.8337 55.1734 73.6719 55.2458 73.4787L56.0717 73.7105C55.9847 73.9906 55.8386 74.2369 55.6334 74.4494C55.4281 74.6595 55.1746 74.8237 54.8727 74.942C54.5709 75.058 54.2316 75.1159 53.8549 75.1159ZM60.9652 72.7253V69.4364H61.82V75H60.9652V74.0582H60.9072C60.7768 74.3408 60.574 74.581 60.2987 74.779C60.0234 74.9746 59.6757 75.0724 59.2555 75.0724C58.9078 75.0724 58.5987 74.9964 58.3283 74.8442C58.0578 74.6897 57.8453 74.4579 57.6908 74.1488C57.5362 73.8373 57.4589 73.4449 57.4589 72.9716V69.4364H58.3138V72.9136C58.3138 73.3193 58.4273 73.6429 58.6543 73.8844C58.8837 74.1259 59.1758 74.2466 59.5308 74.2466C59.7433 74.2466 59.9594 74.1923 60.1792 74.0836C60.4013 73.9749 60.5873 73.8083 60.737 73.5837C60.8891 73.3592 60.9652 73.073 60.9652 72.7253ZM63.3857 75V69.4364H64.2116V70.2767H64.2695C64.3709 70.0014 64.5545 69.7781 64.8201 69.6066C65.0857 69.4352 65.3851 69.3494 65.7184 69.3494C65.7812 69.3494 65.8596 69.3506 65.9538 69.3531C66.048 69.3555 66.1192 69.3591 66.1675 69.3639V70.2332C66.1385 70.226 66.0721 70.2151 65.9683 70.2006C65.8669 70.1837 65.7594 70.1753 65.6459 70.1753C65.3755 70.1753 65.134 70.232 64.9215 70.3455C64.7114 70.4566 64.5448 70.6112 64.4216 70.8092C64.3009 71.0048 64.2405 71.2281 64.2405 71.4793V75H63.3857ZM73.9905 70.6824L73.2226 70.8997C73.1743 70.7717 73.1031 70.6474 73.0089 70.5266C72.9171 70.4035 72.7915 70.3021 72.6322 70.2224C72.4728 70.1427 72.2687 70.1028 72.02 70.1028C71.6795 70.1028 71.3958 70.1813 71.1688 70.3383C70.9442 70.4928 70.832 70.6896 70.832 70.9287C70.832 71.1412 70.9092 71.309 71.0638 71.4322C71.2183 71.5553 71.4598 71.658 71.7882 71.7401L72.6141 71.9429C73.1115 72.0636 73.4822 72.2484 73.7261 72.4971C73.97 72.7434 74.0919 73.0609 74.0919 73.4497C74.0919 73.7685 74.0001 74.0534 73.8166 74.3045C73.6355 74.5557 73.382 74.7537 73.056 74.8986C72.73 75.0435 72.3508 75.1159 71.9186 75.1159C71.3511 75.1159 70.8815 74.9928 70.5096 74.7464C70.1377 74.5001 69.9023 74.1403 69.8033 73.667L70.6146 73.4642C70.6919 73.7636 70.838 73.9882 71.0529 74.1379C71.2702 74.2876 71.554 74.3625 71.9041 74.3625C72.3026 74.3625 72.6189 74.278 72.8531 74.1089C73.0898 73.9375 73.2081 73.7322 73.2081 73.4932C73.2081 73.3 73.1405 73.1382 73.0053 73.0078C72.87 72.875 72.6624 72.776 72.3822 72.7108L71.455 72.4935C70.9455 72.3727 70.5712 72.1856 70.3321 71.932C70.0955 71.6761 69.9771 71.3561 69.9771 70.9722C69.9771 70.6582 70.0653 70.3805 70.2415 70.1391C70.4202 69.8976 70.6629 69.708 70.9696 69.5704C71.2787 69.4327 71.6288 69.3639 72.02 69.3639C72.5706 69.3639 73.0028 69.4847 73.3168 69.7261C73.6331 69.9676 73.8577 70.2864 73.9905 70.6824ZM75.3787 75V69.4364H76.2335V75H75.3787ZM75.8133 68.5091C75.6467 68.5091 75.503 68.4523 75.3823 68.3388C75.264 68.2254 75.2048 68.0889 75.2048 67.9295C75.2048 67.7702 75.264 67.6337 75.3823 67.5202C75.503 67.4067 75.6467 67.35 75.8133 67.35C75.98 67.35 76.1224 67.4067 76.2407 67.5202C76.3615 67.6337 76.4219 67.7702 76.4219 67.9295C76.4219 68.0889 76.3615 68.2254 76.2407 68.3388C76.1224 68.4523 75.98 68.5091 75.8133 68.5091ZM78.654 71.6531V75H77.7992V69.4364H78.625V70.3057H78.6975C78.8279 70.0232 79.0259 69.7962 79.2915 69.6247C79.5571 69.4509 79.9 69.3639 80.3202 69.3639C80.6969 69.3639 81.0265 69.4412 81.3091 69.5957C81.5916 69.7479 81.8113 69.9797 81.9683 70.2912C82.1252 70.6003 82.2037 70.9915 82.2037 71.4648V75H81.3489V71.5227C81.3489 71.0857 81.2354 70.7452 81.0084 70.5013C80.7814 70.255 80.4699 70.1318 80.0739 70.1318C79.801 70.1318 79.5571 70.191 79.3422 70.3093C79.1297 70.4276 78.9619 70.6003 78.8387 70.8273C78.7156 71.0543 78.654 71.3295 78.654 71.6531ZM86.1854 69.4364V70.1608H83.3021V69.4364H86.1854ZM84.1425 68.1034H84.9973V73.4063C84.9973 73.6477 85.0323 73.8288 85.1024 73.9496C85.1748 74.0679 85.2666 74.1476 85.3776 74.1886C85.4911 74.2273 85.6107 74.2466 85.7362 74.2466C85.8304 74.2466 85.9077 74.2418 85.9681 74.2321C86.0284 74.22 86.0767 74.2104 86.1129 74.2031L86.2868 74.971C86.2289 74.9928 86.148 75.0145 86.0441 75.0362C85.9403 75.0604 85.8087 75.0724 85.6493 75.0724C85.4078 75.0724 85.1712 75.0205 84.9394 74.9167C84.71 74.8129 84.5192 74.6547 84.3671 74.4422C84.2173 74.2297 84.1425 73.9616 84.1425 73.6381V68.1034ZM92.6002 75.1159C92.098 75.1159 91.6573 74.9964 91.2781 74.7573C90.9014 74.5183 90.6068 74.1838 90.3943 73.754C90.1843 73.3241 90.0792 72.8219 90.0792 72.2472C90.0792 71.6676 90.1843 71.1617 90.3943 70.7295C90.6068 70.2972 90.9014 69.9616 91.2781 69.7225C91.6573 69.4835 92.098 69.3639 92.6002 69.3639C93.1025 69.3639 93.542 69.4835 93.9187 69.7225C94.2978 69.9616 94.5924 70.2972 94.8025 70.7295C95.015 71.1617 95.1213 71.6676 95.1213 72.2472C95.1213 72.8219 95.015 73.3241 94.8025 73.754C94.5924 74.1838 94.2978 74.5183 93.9187 74.7573C93.542 74.9964 93.1025 75.1159 92.6002 75.1159ZM92.6002 74.348C92.9818 74.348 93.2957 74.2502 93.542 74.0546C93.7883 73.859 93.9706 73.6018 94.0889 73.2831C94.2073 72.9643 94.2664 72.619 94.2664 72.2472C94.2664 71.8753 94.2073 71.5288 94.0889 71.2076C93.9706 70.8864 93.7883 70.6268 93.542 70.4288C93.2957 70.2308 92.9818 70.1318 92.6002 70.1318C92.2187 70.1318 91.9048 70.2308 91.6585 70.4288C91.4122 70.6268 91.2298 70.8864 91.1115 71.2076C90.9932 71.5288 90.934 71.8753 90.934 72.2472C90.934 72.619 90.9932 72.9643 91.1115 73.2831C91.2298 73.6018 91.4122 73.859 91.6585 74.0546C91.9048 74.2502 92.2187 74.348 92.6002 74.348ZM98.6864 75.1159C98.1648 75.1159 97.7156 74.9928 97.3389 74.7464C96.9622 74.5001 96.6724 74.1609 96.4696 73.7286C96.2668 73.2964 96.1653 72.8026 96.1653 72.2472C96.1653 71.6821 96.2692 71.1835 96.4768 70.7512C96.6869 70.3165 96.9791 69.9773 97.3534 69.7334C97.7301 69.4871 98.1696 69.3639 98.6719 69.3639C99.0631 69.3639 99.4156 69.4364 99.7295 69.5813C100.043 69.7261 100.301 69.929 100.501 70.1898C100.701 70.4506 100.826 70.7548 100.874 71.1026H100.019C99.9541 70.849 99.8092 70.6244 99.5847 70.4288C99.3625 70.2308 99.0631 70.1318 98.6864 70.1318C98.3531 70.1318 98.0609 70.2187 97.8098 70.3926C97.5611 70.5641 97.3667 70.8067 97.2266 71.1207C97.089 71.4322 97.0202 71.798 97.0202 72.2182C97.0202 72.648 97.0878 73.0223 97.223 73.3411C97.3606 73.6598 97.5538 73.9073 97.8026 74.0836C98.0537 74.2599 98.3483 74.348 98.6864 74.348C98.9085 74.348 99.1102 74.3094 99.2913 74.2321C99.4724 74.1548 99.6257 74.0438 99.7513 73.8989C99.8768 73.754 99.9662 73.5801 100.019 73.3773H100.874C100.826 73.7057 100.706 74.0015 100.516 74.2647C100.327 74.5255 100.077 74.7332 99.7658 74.8877C99.4567 75.0398 99.0969 75.1159 98.6864 75.1159ZM104.384 75.1159C103.862 75.1159 103.413 74.9928 103.037 74.7464C102.66 74.5001 102.37 74.1609 102.167 73.7286C101.964 73.2964 101.863 72.8026 101.863 72.2472C101.863 71.6821 101.967 71.1835 102.174 70.7512C102.385 70.3165 102.677 69.9773 103.051 69.7334C103.428 69.4871 103.867 69.3639 104.37 69.3639C104.761 69.3639 105.113 69.4364 105.427 69.5813C105.741 69.7261 105.998 69.929 106.199 70.1898C106.399 70.4506 106.524 70.7548 106.572 71.1026H105.717C105.652 70.849 105.507 70.6244 105.282 70.4288C105.06 70.2308 104.761 70.1318 104.384 70.1318C104.051 70.1318 103.759 70.2187 103.507 70.3926C103.259 70.5641 103.064 70.8067 102.924 71.1207C102.787 71.4322 102.718 71.798 102.718 72.2182C102.718 72.648 102.785 73.0223 102.921 73.3411C103.058 73.6598 103.251 73.9073 103.5 74.0836C103.751 74.2599 104.046 74.348 104.384 74.348C104.606 74.348 104.808 74.3094 104.989 74.2321C105.17 74.1548 105.323 74.0438 105.449 73.8989C105.574 73.754 105.664 73.5801 105.717 73.3773H106.572C106.524 73.7057 106.404 74.0015 106.213 74.2647C106.025 74.5255 105.775 74.7332 105.463 74.8877C105.154 75.0398 104.795 75.1159 104.384 75.1159ZM109.459 75.1304C109.106 75.1304 108.786 75.064 108.499 74.9312C108.211 74.796 107.983 74.6016 107.814 74.348C107.645 74.092 107.561 73.783 107.561 73.4207C107.561 73.102 107.623 72.8436 107.749 72.6456C107.875 72.4452 108.042 72.2882 108.252 72.1747C108.463 72.0612 108.694 71.9767 108.948 71.9212C109.204 71.8632 109.461 71.8173 109.719 71.7835C110.058 71.7401 110.332 71.7075 110.542 71.6857C110.754 71.6616 110.909 71.6217 111.005 71.5662C111.104 71.5107 111.154 71.4141 111.154 71.2764V71.2474C111.154 70.8901 111.056 70.6124 110.86 70.4143C110.667 70.2163 110.374 70.1173 109.98 70.1173C109.572 70.1173 109.252 70.2067 109.02 70.3854C108.789 70.5641 108.626 70.7548 108.531 70.9577L107.72 70.6679C107.865 70.3298 108.058 70.0666 108.3 69.8783C108.543 69.6875 108.809 69.5547 109.096 69.4798C109.386 69.4026 109.671 69.3639 109.951 69.3639C110.13 69.3639 110.335 69.3857 110.567 69.4291C110.801 69.4702 111.027 69.5559 111.244 69.6863C111.464 69.8167 111.646 70.0135 111.791 70.2767C111.936 70.5399 112.009 70.8925 112.009 71.3344V75H111.154V74.2466H111.11C111.052 74.3673 110.956 74.4965 110.821 74.6342C110.685 74.7718 110.505 74.8889 110.281 74.9855C110.056 75.0821 109.782 75.1304 109.459 75.1304ZM109.589 74.3625C109.927 74.3625 110.212 74.2961 110.444 74.1633C110.678 74.0305 110.854 73.859 110.973 73.6489C111.093 73.4388 111.154 73.2179 111.154 72.9861V72.2037C111.118 72.2472 111.038 72.287 110.915 72.3232C110.794 72.357 110.654 72.3872 110.495 72.4138C110.338 72.4379 110.184 72.4597 110.035 72.479C109.887 72.4959 109.768 72.5104 109.676 72.5224C109.454 72.5514 109.246 72.5985 109.053 72.6637C108.862 72.7265 108.708 72.8219 108.589 72.9499C108.473 73.0754 108.415 73.2469 108.415 73.4642C108.415 73.7612 108.525 73.9858 108.745 74.1379C108.967 74.2876 109.249 74.3625 109.589 74.3625ZM115.902 75.1159C115.365 75.1159 114.903 74.9976 114.514 74.7609C114.128 74.5219 113.83 74.1886 113.62 73.7612C113.412 73.3314 113.308 72.8315 113.308 72.2616C113.308 71.6918 113.412 71.1895 113.62 70.7548C113.83 70.3178 114.122 69.9773 114.496 69.7334C114.873 69.4871 115.312 69.3639 115.815 69.3639C116.104 69.3639 116.391 69.4122 116.673 69.5088C116.956 69.6054 117.213 69.7624 117.445 69.9797C117.676 70.1946 117.861 70.4795 117.999 70.8345C118.136 71.1895 118.205 71.6266 118.205 72.1457V72.508H113.917V71.769H117.336C117.336 71.4551 117.273 71.175 117.148 70.9287C117.024 70.6824 116.848 70.488 116.619 70.3455C116.392 70.2031 116.124 70.1318 115.815 70.1318C115.474 70.1318 115.18 70.2163 114.931 70.3854C114.685 70.552 114.495 70.7693 114.362 71.0374C114.229 71.3054 114.163 71.5928 114.163 71.8994V72.392C114.163 72.8122 114.235 73.1684 114.38 73.4606C114.528 73.7504 114.732 73.9713 114.992 74.1234C115.253 74.2732 115.556 74.348 115.902 74.348C116.126 74.348 116.329 74.3166 116.51 74.2538C116.694 74.1886 116.852 74.092 116.985 73.9641C117.117 73.8337 117.22 73.6719 117.292 73.4787L118.118 73.7105C118.031 73.9906 117.885 74.2369 117.68 74.4494C117.475 74.6595 117.221 74.8237 116.919 74.942C116.618 75.058 116.278 75.1159 115.902 75.1159ZM121.766 75.1159C121.244 75.1159 120.795 74.9928 120.418 74.7464C120.042 74.5001 119.752 74.1609 119.549 73.7286C119.346 73.2964 119.245 72.8026 119.245 72.2472C119.245 71.6821 119.349 71.1835 119.556 70.7512C119.766 70.3165 120.059 69.9773 120.433 69.7334C120.81 69.4871 121.249 69.3639 121.751 69.3639C122.143 69.3639 122.495 69.4364 122.809 69.5813C123.123 69.7261 123.38 69.929 123.581 70.1898C123.781 70.4506 123.905 70.7548 123.954 71.1026H123.099C123.034 70.849 122.889 70.6244 122.664 70.4288C122.442 70.2308 122.143 70.1318 121.766 70.1318C121.433 70.1318 121.14 70.2187 120.889 70.3926C120.641 70.5641 120.446 70.8067 120.306 71.1207C120.168 71.4322 120.1 71.798 120.1 72.2182C120.1 72.648 120.167 73.0223 120.302 73.3411C120.44 73.6598 120.633 73.9073 120.882 74.0836C121.133 74.2599 121.428 74.348 121.766 74.348C121.988 74.348 122.19 74.3094 122.371 74.2321C122.552 74.1548 122.705 74.0438 122.831 73.8989C122.956 73.754 123.046 73.5801 123.099 73.3773H123.954C123.905 73.7057 123.786 74.0015 123.595 74.2647C123.407 74.5255 123.157 74.7332 122.845 74.8877C122.536 75.0398 122.176 75.1159 121.766 75.1159ZM126.841 75.1304C126.488 75.1304 126.168 75.064 125.881 74.9312C125.593 74.796 125.365 74.6016 125.196 74.348C125.027 74.092 124.942 73.783 124.942 73.4207C124.942 73.102 125.005 72.8436 125.131 72.6456C125.256 72.4452 125.424 72.2882 125.634 72.1747C125.844 72.0612 126.076 71.9767 126.33 71.9212C126.586 71.8632 126.843 71.8173 127.101 71.7835C127.439 71.7401 127.713 71.7075 127.924 71.6857C128.136 71.6616 128.291 71.6217 128.387 71.5662C128.486 71.5107 128.536 71.4141 128.536 71.2764V71.2474C128.536 70.8901 128.438 70.6124 128.242 70.4143C128.049 70.2163 127.756 70.1173 127.362 70.1173C126.954 70.1173 126.634 70.2067 126.402 70.3854C126.17 70.5641 126.007 70.7548 125.913 70.9577L125.102 70.6679C125.247 70.3298 125.44 70.0666 125.681 69.8783C125.925 69.6875 126.191 69.5547 126.478 69.4798C126.768 69.4026 127.053 69.3639 127.333 69.3639C127.512 69.3639 127.717 69.3857 127.949 69.4291C128.183 69.4702 128.409 69.5559 128.626 69.6863C128.846 69.8167 129.028 70.0135 129.173 70.2767C129.318 70.5399 129.391 70.8925 129.391 71.3344V75H128.536V74.2466H128.492C128.434 74.3673 128.338 74.4965 128.202 74.6342C128.067 74.7718 127.887 74.8889 127.663 74.9855C127.438 75.0821 127.164 75.1304 126.841 75.1304ZM126.971 74.3625C127.309 74.3625 127.594 74.2961 127.826 74.1633C128.06 74.0305 128.236 73.859 128.355 73.6489C128.475 73.4388 128.536 73.2179 128.536 72.9861V72.2037C128.499 72.2472 128.42 72.287 128.297 72.3232C128.176 72.357 128.036 72.3872 127.876 72.4138C127.719 72.4379 127.566 72.4597 127.416 72.479C127.269 72.4959 127.15 72.5104 127.058 72.5224C126.836 72.5514 126.628 72.5985 126.435 72.6637C126.244 72.7265 126.09 72.8219 125.971 72.9499C125.855 73.0754 125.797 73.2469 125.797 73.4642C125.797 73.7612 125.907 73.9858 126.127 74.1379C126.349 74.2876 126.63 74.3625 126.971 74.3625Z" fill="#222D39"/>
<path d="M17.1129 18.9091L19.4789 26.0646H19.5721L21.9336 18.9091H23.7447L20.5398 28H18.5067L15.3063 18.9091H17.1129ZM27.1127 28.1332C26.4469 28.1332 25.8698 27.9867 25.3815 27.6937C24.8932 27.4007 24.5145 26.9909 24.2452 26.4641C23.9788 25.9374 23.8457 25.3219 23.8457 24.6175C23.8457 23.9132 23.9788 23.2962 24.2452 22.7665C24.5145 22.2368 24.8932 21.8255 25.3815 21.5325C25.8698 21.2395 26.4469 21.093 27.1127 21.093C27.7785 21.093 28.3556 21.2395 28.8439 21.5325C29.3322 21.8255 29.7095 22.2368 29.9758 22.7665C30.2451 23.2962 30.3797 23.9132 30.3797 24.6175C30.3797 25.3219 30.2451 25.9374 29.9758 26.4641C29.7095 26.9909 29.3322 27.4007 28.8439 27.6937C28.3556 27.9867 27.7785 28.1332 27.1127 28.1332ZM27.1216 26.8459C27.4826 26.8459 27.7845 26.7467 28.0271 26.5485C28.2698 26.3472 28.4503 26.0779 28.5687 25.7406C28.69 25.4032 28.7507 25.0274 28.7507 24.6131C28.7507 24.1958 28.69 23.8185 28.5687 23.4812C28.4503 23.1409 28.2698 22.8701 28.0271 22.6689C27.7845 22.4676 27.4826 22.367 27.1216 22.367C26.7517 22.367 26.4439 22.4676 26.1983 22.6689C25.9556 22.8701 25.7736 23.1409 25.6523 23.4812C25.5339 23.8185 25.4747 24.1958 25.4747 24.6131C25.4747 25.0274 25.5339 25.4032 25.6523 25.7406C25.7736 26.0779 25.9556 26.3472 26.1983 26.5485C26.4439 26.7467 26.7517 26.8459 27.1216 26.8459ZM33.3505 18.9091V28H31.7436V18.9091H33.3505ZM39.3486 25.1325V21.1818H40.9555V28H39.3974V26.7882H39.3264C39.1725 27.1699 38.9195 27.4821 38.5673 27.7248C38.2181 27.9674 37.7876 28.0888 37.2756 28.0888C36.8288 28.0888 36.4337 27.9896 36.0904 27.7914C35.7501 27.5901 35.4838 27.2987 35.2914 26.9169C35.0991 26.5322 35.0029 26.0676 35.0029 25.5231V21.1818H36.6098V25.2745C36.6098 25.7066 36.7281 26.0498 36.9649 26.3043C37.2016 26.5588 37.5124 26.6861 37.8971 26.6861C38.1338 26.6861 38.3631 26.6284 38.5851 26.513C38.807 26.3975 38.989 26.2259 39.1311 25.998C39.2761 25.7672 39.3486 25.4787 39.3486 25.1325ZM42.6079 30.5568V21.1818H44.1881V22.3093H44.2813C44.3642 22.1436 44.4811 21.9675 44.632 21.7811C44.7829 21.5917 44.9871 21.4304 45.2446 21.2972C45.502 21.1611 45.8305 21.093 46.23 21.093C46.7568 21.093 47.2317 21.2277 47.6549 21.497C48.0811 21.7633 48.4184 22.1584 48.667 22.6822C48.9185 23.203 49.0443 23.8422 49.0443 24.5998C49.0443 25.3485 48.9215 25.9847 48.6759 26.5085C48.4302 27.0323 48.0959 27.4318 47.6727 27.707C47.2495 27.9822 46.7701 28.1199 46.2345 28.1199C45.8438 28.1199 45.5198 28.0547 45.2623 27.9245C45.0049 27.7943 44.7977 27.6375 44.6409 27.454C44.487 27.2676 44.3672 27.0915 44.2813 26.9258H44.2148V30.5568H42.6079ZM44.1837 24.5909C44.1837 25.0318 44.2458 25.418 44.3701 25.7495C44.4974 26.0809 44.6794 26.3398 44.9161 26.5263C45.1558 26.7098 45.4458 26.8015 45.7861 26.8015C46.1412 26.8015 46.4387 26.7068 46.6784 26.5174C46.9181 26.325 47.0986 26.0632 47.2199 25.7317C47.3442 25.3973 47.4063 25.017 47.4063 24.5909C47.4063 24.1677 47.3457 23.7919 47.2243 23.4634C47.103 23.1349 46.9225 22.8775 46.6828 22.6911C46.4431 22.5046 46.1442 22.4114 45.7861 22.4114C45.4429 22.4114 45.1514 22.5017 44.9117 22.6822C44.672 22.8627 44.49 23.1157 44.3657 23.4412C44.2443 23.7667 44.1837 24.15 44.1837 24.5909ZM53.825 21.1818V22.4247H49.9055V21.1818H53.825ZM50.8731 19.5483H52.48V25.9492C52.48 26.1652 52.5126 26.331 52.5777 26.4464C52.6457 26.5588 52.7345 26.6358 52.844 26.6772C52.9535 26.7186 53.0748 26.7393 53.208 26.7393C53.3086 26.7393 53.4004 26.7319 53.4832 26.7172C53.569 26.7024 53.6341 26.689 53.6785 26.6772L53.9493 27.9334C53.8635 27.963 53.7407 27.9956 53.5809 28.0311C53.424 28.0666 53.2317 28.0873 53.0038 28.0932C52.6014 28.1051 52.2388 28.0444 51.9163 27.9112C51.5937 27.7751 51.3377 27.565 51.1483 27.2809C50.9619 26.9968 50.8702 26.6417 50.8731 26.2156V19.5483ZM57.1309 28.1376C56.6988 28.1376 56.3097 28.0607 55.9635 27.9068C55.6202 27.7499 55.3479 27.5191 55.1467 27.2143C54.9484 26.9095 54.8493 26.5337 54.8493 26.0868C54.8493 25.7021 54.9203 25.384 55.0624 25.1325C55.2044 24.8809 55.3982 24.6797 55.6439 24.5288C55.8895 24.3778 56.1662 24.2639 56.4739 24.187C56.7847 24.1071 57.1057 24.0494 57.4372 24.0138C57.8367 23.9724 58.1607 23.9354 58.4093 23.9029C58.6579 23.8674 58.8384 23.8141 58.9509 23.7431C59.0663 23.6691 59.124 23.5552 59.124 23.4013V23.3746C59.124 23.0402 59.0248 22.7813 58.8266 22.5978C58.6283 22.4144 58.3427 22.3226 57.9699 22.3226C57.5763 22.3226 57.2641 22.4084 57.0332 22.5801C56.8054 22.7517 56.6515 22.9544 56.5716 23.1882L55.0712 22.9751C55.1896 22.5608 55.3849 22.2146 55.6572 21.9364C55.9294 21.6553 56.2624 21.4452 56.6559 21.3061C57.0495 21.1641 57.4845 21.093 57.961 21.093C58.2895 21.093 58.6165 21.1315 58.942 21.2085C59.2675 21.2854 59.5649 21.4126 59.8342 21.5902C60.1035 21.7648 60.3195 22.003 60.4823 22.3049C60.648 22.6067 60.7309 22.984 60.7309 23.4368V28H59.1861V27.0634H59.1329C59.0352 27.2528 58.8976 27.4303 58.72 27.5961C58.5454 27.7588 58.325 27.8905 58.0586 27.9911C57.7953 28.0888 57.486 28.1376 57.1309 28.1376ZM57.5482 26.9569C57.8707 26.9569 58.1504 26.8932 58.3871 26.766C58.6239 26.6358 58.8059 26.4641 58.9331 26.2511C59.0633 26.038 59.1284 25.8057 59.1284 25.5542V24.7507C59.0781 24.7921 58.9923 24.8306 58.871 24.8661C58.7526 24.9016 58.6194 24.9327 58.4715 24.9593C58.3235 24.986 58.177 25.0096 58.032 25.0304C57.887 25.0511 57.7612 25.0688 57.6547 25.0836C57.415 25.1162 57.2004 25.1694 57.0111 25.2434C56.8217 25.3174 56.6722 25.421 56.5627 25.5542C56.4532 25.6844 56.3985 25.853 56.3985 26.0602C56.3985 26.3561 56.5065 26.5795 56.7225 26.7305C56.9386 26.8814 57.2138 26.9569 57.5482 26.9569ZM67.7355 22.984L66.2706 23.1438C66.2292 22.9959 66.1567 22.8568 66.0531 22.7266C65.9525 22.5964 65.8164 22.4913 65.6448 22.4114C65.4731 22.3315 65.263 22.2915 65.0144 22.2915C64.68 22.2915 64.3989 22.3641 64.171 22.5091C63.9461 22.6541 63.8352 22.842 63.8381 23.0728C63.8352 23.2711 63.9077 23.4324 64.0556 23.5566C64.2065 23.6809 64.4551 23.783 64.8014 23.8629L65.9644 24.1115C66.6095 24.2506 67.0889 24.4711 67.4026 24.7729C67.7192 25.0748 67.879 25.4698 67.882 25.9581C67.879 26.3872 67.7532 26.766 67.5047 27.0945C67.259 27.42 66.9172 27.6745 66.4793 27.858C66.0413 28.0414 65.5382 28.1332 64.97 28.1332C64.1355 28.1332 63.4638 27.9586 62.9548 27.6094C62.4458 27.2572 62.1424 26.7675 62.0448 26.1401L63.6117 25.9892C63.6828 26.2969 63.8337 26.5292 64.0645 26.6861C64.2953 26.8429 64.5957 26.9213 64.9656 26.9213C65.3473 26.9213 65.6536 26.8429 65.8845 26.6861C66.1182 26.5292 66.2351 26.3354 66.2351 26.1046C66.2351 25.9093 66.1597 25.748 66.0087 25.6207C65.8608 25.4935 65.63 25.3958 65.3163 25.3278L64.1533 25.0836C63.4993 24.9475 63.0154 24.7182 62.7017 24.3956C62.3881 24.0701 62.2327 23.6587 62.2357 23.1616C62.2327 22.7414 62.3466 22.3774 62.5775 22.0696C62.8112 21.7589 63.1353 21.5192 63.5496 21.3505C63.9668 21.1789 64.4477 21.093 64.9922 21.093C65.7912 21.093 66.4201 21.2632 66.8788 21.6035C67.3404 21.9438 67.626 22.404 67.7355 22.984ZM73.9145 24.005V28H72.3076V21.1818H73.8434V22.3404H73.9233C74.0802 21.9586 74.3302 21.6553 74.6735 21.4304C75.0198 21.2055 75.4474 21.093 75.9564 21.093C76.4269 21.093 76.8368 21.1937 77.1859 21.3949C77.5381 21.5961 77.8104 21.8876 78.0027 22.2694C78.198 22.6511 78.2942 23.1142 78.2912 23.6587V28H76.6843V23.9073C76.6843 23.4516 76.566 23.095 76.3292 22.8375C76.0955 22.5801 75.7714 22.4513 75.3571 22.4513C75.076 22.4513 74.8259 22.5135 74.6069 22.6378C74.3909 22.7591 74.2207 22.9352 74.0965 23.166C73.9751 23.3968 73.9145 23.6765 73.9145 24.005ZM84.2705 25.1325V21.1818H85.8774V28H84.3193V26.7882H84.2483C84.0944 27.1699 83.8414 27.4821 83.4892 27.7248C83.14 27.9674 82.7094 28.0888 82.1975 28.0888C81.7506 28.0888 81.3556 27.9896 81.0123 27.7914C80.672 27.5901 80.4056 27.2987 80.2133 26.9169C80.0209 26.5322 79.9248 26.0676 79.9248 25.5231V21.1818H81.5316V25.2745C81.5316 25.7066 81.65 26.0498 81.8868 26.3043C82.1235 26.5588 82.4342 26.6861 82.8189 26.6861C83.0557 26.6861 83.285 26.6284 83.507 26.513C83.7289 26.3975 83.9109 26.2259 84.053 25.998C84.198 25.7672 84.2705 25.4787 84.2705 25.1325ZM89.1366 18.9091V28H87.5297V18.9091H89.1366ZM92.3959 18.9091V28H90.789V18.9091H92.3959ZM96.0103 28.1376C95.5782 28.1376 95.1891 28.0607 94.8429 27.9068C94.4996 27.7499 94.2273 27.5191 94.0261 27.2143C93.8278 26.9095 93.7287 26.5337 93.7287 26.0868C93.7287 25.7021 93.7997 25.384 93.9418 25.1325C94.0838 24.8809 94.2776 24.6797 94.5233 24.5288C94.7689 24.3778 95.0456 24.2639 95.3533 24.187C95.6641 24.1071 95.9851 24.0494 96.3166 24.0138C96.7161 23.9724 97.0401 23.9354 97.2887 23.9029C97.5373 23.8674 97.7178 23.8141 97.8303 23.7431C97.9457 23.6691 98.0034 23.5552 98.0034 23.4013V23.3746C98.0034 23.0402 97.9042 22.7813 97.706 22.5978C97.5077 22.4144 97.2221 22.3226 96.8493 22.3226C96.4557 22.3226 96.1435 22.4084 95.9126 22.5801C95.6848 22.7517 95.5309 22.9544 95.451 23.1882L93.9506 22.9751C94.069 22.5608 94.2643 22.2146 94.5366 21.9364C94.8088 21.6553 95.1417 21.4452 95.5353 21.3061C95.9289 21.1641 96.3639 21.093 96.8404 21.093C97.1689 21.093 97.4959 21.1315 97.8214 21.2085C98.1469 21.2854 98.4443 21.4126 98.7136 21.5902C98.9829 21.7648 99.1989 22.003 99.3617 22.3049C99.5274 22.6067 99.6103 22.984 99.6103 23.4368V28H98.0655V27.0634H98.0123C97.9146 27.2528 97.777 27.4303 97.5994 27.5961C97.4248 27.7588 97.2044 27.8905 96.938 27.9911C96.6747 28.0888 96.3654 28.1376 96.0103 28.1376ZM96.4276 26.9569C96.7501 26.9569 97.0298 26.8932 97.2665 26.766C97.5033 26.6358 97.6853 26.4641 97.8125 26.2511C97.9427 26.038 98.0078 25.8057 98.0078 25.5542V24.7507C97.9575 24.7921 97.8717 24.8306 97.7504 24.8661C97.632 24.9016 97.4988 24.9327 97.3509 24.9593C97.2029 24.986 97.0564 25.0096 96.9114 25.0304C96.7664 25.0511 96.6406 25.0688 96.5341 25.0836C96.2944 25.1162 96.0798 25.1694 95.8904 25.2434C95.7011 25.3174 95.5516 25.421 95.4421 25.5542C95.3326 25.6844 95.2779 25.853 95.2779 26.0602C95.2779 26.3561 95.3859 26.5795 95.6019 26.7305C95.8179 26.8814 96.0932 26.9569 96.4276 26.9569ZM104.327 30.5568V21.1818H105.907V22.3093H106C106.083 22.1436 106.2 21.9675 106.351 21.7811C106.502 21.5917 106.706 21.4304 106.963 21.2972C107.221 21.1611 107.549 21.093 107.949 21.093C108.476 21.093 108.95 21.2277 109.374 21.497C109.8 21.7633 110.137 22.1584 110.386 22.6822C110.637 23.203 110.763 23.8422 110.763 24.5998C110.763 25.3485 110.64 25.9847 110.395 26.5085C110.149 27.0323 109.815 27.4318 109.391 27.707C108.968 27.9822 108.489 28.1199 107.953 28.1199C107.563 28.1199 107.239 28.0547 106.981 27.9245C106.724 27.7943 106.516 27.6375 106.36 27.454C106.206 27.2676 106.086 27.0915 106 26.9258H105.934V30.5568H104.327ZM105.902 24.5909C105.902 25.0318 105.965 25.418 106.089 25.7495C106.216 26.0809 106.398 26.3398 106.635 26.5263C106.875 26.7098 107.165 26.8015 107.505 26.8015C107.86 26.8015 108.157 26.7068 108.397 26.5174C108.637 26.325 108.817 26.0632 108.939 25.7317C109.063 25.3973 109.125 25.017 109.125 24.5909C109.125 24.1677 109.064 23.7919 108.943 23.4634C108.822 23.1349 108.641 22.8775 108.402 22.6911C108.162 22.5046 107.863 22.4114 107.505 22.4114C107.162 22.4114 106.87 22.5017 106.63 22.6822C106.391 22.8627 106.209 23.1157 106.084 23.4412C105.963 23.7667 105.902 24.15 105.902 24.5909ZM114.101 28.1376C113.669 28.1376 113.28 28.0607 112.934 27.9068C112.59 27.7499 112.318 27.5191 112.117 27.2143C111.919 26.9095 111.82 26.5337 111.82 26.0868C111.82 25.7021 111.891 25.384 112.033 25.1325C112.175 24.8809 112.368 24.6797 112.614 24.5288C112.86 24.3778 113.136 24.2639 113.444 24.187C113.755 24.1071 114.076 24.0494 114.407 24.0138C114.807 23.9724 115.131 23.9354 115.38 23.9029C115.628 23.8674 115.809 23.8141 115.921 23.7431C116.036 23.6691 116.094 23.5552 116.094 23.4013V23.3746C116.094 23.0402 115.995 22.7813 115.797 22.5978C115.599 22.4144 115.313 22.3226 114.94 22.3226C114.546 22.3226 114.234 22.4084 114.003 22.5801C113.776 22.7517 113.622 22.9544 113.542 23.1882L112.041 22.9751C112.16 22.5608 112.355 22.2146 112.627 21.9364C112.9 21.6553 113.233 21.4452 113.626 21.3061C114.02 21.1641 114.455 21.093 114.931 21.093C115.26 21.093 115.587 21.1315 115.912 21.2085C116.238 21.2854 116.535 21.4126 116.804 21.5902C117.074 21.7648 117.29 22.003 117.453 22.3049C117.618 22.6067 117.701 22.984 117.701 23.4368V28H116.156V27.0634H116.103C116.005 27.2528 115.868 27.4303 115.69 27.5961C115.516 27.7588 115.295 27.8905 115.029 27.9911C114.765 28.0888 114.456 28.1376 114.101 28.1376ZM114.518 26.9569C114.841 26.9569 115.121 26.8932 115.357 26.766C115.594 26.6358 115.776 26.4641 115.903 26.2511C116.034 26.038 116.099 25.8057 116.099 25.5542V24.7507C116.048 24.7921 115.963 24.8306 115.841 24.8661C115.723 24.9016 115.59 24.9327 115.442 24.9593C115.294 24.986 115.147 25.0096 115.002 25.0304C114.857 25.0511 114.731 25.0688 114.625 25.0836C114.385 25.1162 114.171 25.1694 113.981 25.2434C113.792 25.3174 113.642 25.421 113.533 25.5542C113.423 25.6844 113.369 25.853 113.369 26.0602C113.369 26.3561 113.477 26.5795 113.693 26.7305C113.909 26.8814 114.184 26.9569 114.518 26.9569ZM119.317 28V21.1818H120.875V22.3182H120.946C121.07 21.9246 121.283 21.6213 121.585 21.4082C121.89 21.1922 122.238 21.0842 122.628 21.0842C122.717 21.0842 122.816 21.0886 122.926 21.0975C123.038 21.1034 123.131 21.1138 123.205 21.1286V22.6067C123.137 22.583 123.029 22.5623 122.881 22.5446C122.736 22.5239 122.596 22.5135 122.46 22.5135C122.167 22.5135 121.903 22.5771 121.669 22.7044C121.439 22.8287 121.257 23.0018 121.123 23.2237C120.99 23.4457 120.924 23.7016 120.924 23.9917V28H119.317ZM124.273 28V21.1818H125.88V28H124.273ZM125.081 20.2141C124.826 20.2141 124.607 20.1298 124.424 19.9611C124.24 19.7895 124.149 19.5838 124.149 19.3441C124.149 19.1014 124.24 18.8958 124.424 18.7271C124.607 18.5555 124.826 18.4696 125.081 18.4696C125.338 18.4696 125.557 18.5555 125.738 18.7271C125.921 18.8958 126.013 19.1014 126.013 19.3441C126.013 19.5838 125.921 19.7895 125.738 19.9611C125.557 20.1298 125.338 20.2141 125.081 20.2141ZM129.494 28.1376C129.062 28.1376 128.673 28.0607 128.327 27.9068C127.983 27.7499 127.711 27.5191 127.51 27.2143C127.312 26.9095 127.213 26.5337 127.213 26.0868C127.213 25.7021 127.284 25.384 127.426 25.1325C127.568 24.8809 127.762 24.6797 128.007 24.5288C128.253 24.3778 128.529 24.2639 128.837 24.187C129.148 24.1071 129.469 24.0494 129.8 24.0138C130.2 23.9724 130.524 23.9354 130.773 23.9029C131.021 23.8674 131.202 23.8141 131.314 23.7431C131.43 23.6691 131.487 23.5552 131.487 23.4013V23.3746C131.487 23.0402 131.388 22.7813 131.19 22.5978C130.992 22.4144 130.706 22.3226 130.333 22.3226C129.94 22.3226 129.627 22.4084 129.397 22.5801C129.169 22.7517 129.015 22.9544 128.935 23.1882L127.435 22.9751C127.553 22.5608 127.748 22.2146 128.02 21.9364C128.293 21.6553 128.626 21.4452 129.019 21.3061C129.413 21.1641 129.848 21.093 130.324 21.093C130.653 21.093 130.98 21.1315 131.305 21.2085C131.631 21.2854 131.928 21.4126 132.197 21.5902C132.467 21.7648 132.683 22.003 132.846 22.3049C133.011 22.6067 133.094 22.984 133.094 23.4368V28H131.549V27.0634H131.496C131.398 27.2528 131.261 27.4303 131.083 27.5961C130.909 27.7588 130.688 27.8905 130.422 27.9911C130.159 28.0888 129.849 28.1376 129.494 28.1376ZM129.911 26.9569C130.234 26.9569 130.514 26.8932 130.75 26.766C130.987 26.6358 131.169 26.4641 131.296 26.2511C131.427 26.038 131.492 25.8057 131.492 25.5542V24.7507C131.441 24.7921 131.356 24.8306 131.234 24.8661C131.116 24.9016 130.983 24.9327 130.835 24.9593C130.687 24.986 130.54 25.0096 130.395 25.0304C130.25 25.0511 130.125 25.0688 130.018 25.0836C129.778 25.1162 129.564 25.1694 129.374 25.2434C129.185 25.3174 129.035 25.421 128.926 25.5542C128.817 25.6844 128.762 25.853 128.762 26.0602C128.762 26.3561 128.87 26.5795 129.086 26.7305C129.302 26.8814 129.577 26.9569 129.911 26.9569ZM138.115 21.1818V22.4247H134.195V21.1818H138.115ZM135.163 19.5483H136.77V25.9492C136.77 26.1652 136.802 26.331 136.867 26.4464C136.935 26.5588 137.024 26.6358 137.134 26.6772C137.243 26.7186 137.364 26.7393 137.498 26.7393C137.598 26.7393 137.69 26.7319 137.773 26.7172C137.859 26.7024 137.924 26.689 137.968 26.6772L138.239 27.9334C138.153 27.963 138.03 27.9956 137.87 28.0311C137.714 28.0666 137.521 28.0873 137.293 28.0932C136.891 28.1051 136.528 28.0444 136.206 27.9112C135.883 27.7751 135.627 27.565 135.438 27.2809C135.251 26.9968 135.16 26.6417 135.163 26.2156V19.5483ZM143.804 25.1325V21.1818H145.411V28H143.853V26.7882H143.782C143.628 27.1699 143.375 27.4821 143.023 27.7248C142.674 27.9674 142.243 28.0888 141.731 28.0888C141.284 28.0888 140.889 27.9896 140.546 27.7914C140.206 27.5901 139.939 27.2987 139.747 26.9169C139.555 26.5322 139.458 26.0676 139.458 25.5231V21.1818H141.065V25.2745C141.065 25.7066 141.184 26.0498 141.42 26.3043C141.657 26.5588 141.968 26.6861 142.353 26.6861C142.589 26.6861 142.819 26.6284 143.041 26.513C143.263 26.3975 143.445 26.2259 143.587 25.998C143.732 25.7672 143.804 25.4787 143.804 25.1325ZM147.063 28V21.1818H148.621V22.3182H148.693C148.817 21.9246 149.03 21.6213 149.332 21.4082C149.637 21.1922 149.984 21.0842 150.375 21.0842C150.464 21.0842 150.563 21.0886 150.672 21.0975C150.785 21.1034 150.878 21.1138 150.952 21.1286V22.6067C150.884 22.583 150.776 22.5623 150.628 22.5446C150.483 22.5239 150.342 22.5135 150.206 22.5135C149.913 22.5135 149.65 22.5771 149.416 22.7044C149.185 22.8287 149.003 23.0018 148.87 23.2237C148.737 23.4457 148.67 23.7016 148.67 23.9917V28H147.063ZM153.555 25.3278V25.2124C153.558 24.6767 153.609 24.2506 153.706 23.9339C153.807 23.6173 153.949 23.3628 154.132 23.1705C154.316 22.9751 154.539 22.7961 154.803 22.6333C154.983 22.5209 155.144 22.3981 155.287 22.2649C155.432 22.1288 155.545 21.9779 155.628 21.8121C155.711 21.6435 155.753 21.4556 155.753 21.2484C155.753 21.0146 155.698 20.8119 155.588 20.6403C155.479 20.4686 155.331 20.3355 155.144 20.2408C154.961 20.1461 154.755 20.0987 154.527 20.0987C154.317 20.0987 154.118 20.1446 153.928 20.2363C153.742 20.3251 153.586 20.4612 153.462 20.6447C153.341 20.8252 153.273 21.0546 153.258 21.3327H151.678C151.692 20.7705 151.829 20.3 152.086 19.9212C152.346 19.5424 152.69 19.2583 153.116 19.0689C153.545 18.8795 154.018 18.7848 154.536 18.7848C155.102 18.7848 155.599 18.8839 156.028 19.0822C156.46 19.2805 156.796 19.5631 157.035 19.93C157.278 20.294 157.399 20.7261 157.399 21.2262C157.399 21.5636 157.345 21.8654 157.235 22.1317C157.129 22.3981 156.976 22.6348 156.778 22.842C156.58 23.0491 156.344 23.2341 156.072 23.3968C155.833 23.5448 155.636 23.6987 155.482 23.8585C155.331 24.0183 155.218 24.2062 155.144 24.4222C155.073 24.6353 155.036 24.8987 155.034 25.2124V25.3278H153.555ZM154.328 28.0977C154.061 28.0977 153.832 28.003 153.64 27.8136C153.447 27.6242 153.351 27.3933 153.351 27.1211C153.351 26.8548 153.447 26.6269 153.64 26.4375C153.832 26.2481 154.061 26.1534 154.328 26.1534C154.591 26.1534 154.819 26.2481 155.011 26.4375C155.207 26.6269 155.304 26.8548 155.304 27.1211C155.304 27.3016 155.258 27.4658 155.167 27.6138C155.078 27.7618 154.96 27.8801 154.812 27.9689C154.667 28.0547 154.505 28.0977 154.328 28.0977Z" fill="#222D39"/>
</g>
</svg>
