<svg width="136" height="260" viewBox="0 0 136 260" fill="none" xmlns="http://www.w3.org/2000/svg">
<mask id="mask0_175_1648" style="mask-type:luminance" maskUnits="userSpaceOnUse" x="1" y="33" width="134" height="226">
<path d="M1.09326 36.1237C1.09326 34.7329 2.22237 33.6052 3.615 33.6052H132.224C133.617 33.6052 134.745 34.7329 134.745 36.1237V255.864C134.745 257.256 133.617 258.383 132.224 258.383H3.615C2.22237 258.383 1.09326 257.256 1.09326 255.864V36.1237Z" fill="white"/>
</mask>
<g mask="url(#mask0_175_1648)">
<path d="M1.09326 33.6052H134.745V65.7163H1.09326V33.6052Z" fill="white"/>
<mask id="mask1_175_1648" style="mask-type:luminance" maskUnits="userSpaceOnUse" x="1" y="33" width="134" height="33">
<path d="M1.09326 33.6052H134.745V65.7163H1.09326V33.6052Z" fill="white"/>
</mask>
<g mask="url(#mask1_175_1648)">
<path d="M134.745 65.0867H1.09326V66.3459H134.745V65.0867Z" fill="#F5F5F5"/>
</g>
<path d="M13.7019 44.3088H20.0062C21.2249 44.3088 22.2128 45.2955 22.2128 46.5125V52.8088C22.2128 54.0259 21.2249 55.0125 20.0062 55.0125H13.7019C12.4833 55.0125 11.4954 54.0259 11.4954 52.8088V46.5125C11.4954 45.2955 12.4833 44.3088 13.7019 44.3088Z" fill="white"/>
<path d="M13.7019 44.3088H20.0062C21.2249 44.3088 22.2128 45.2955 22.2128 46.5125V52.8088C22.2128 54.0259 21.2249 55.0125 20.0062 55.0125H13.7019C12.4833 55.0125 11.4954 54.0259 11.4954 52.8088V46.5125C11.4954 45.2955 12.4833 44.3088 13.7019 44.3088Z" stroke="#B6BABE"/>
<path d="M33.5139 48.7164H32.7366C32.6906 48.4935 32.6099 48.2971 32.4952 48.1283C32.3823 47.959 32.2443 47.8173 32.0816 47.7027C31.9208 47.5856 31.7418 47.4981 31.5457 47.4395C31.349 47.381 31.1441 47.352 30.931 47.352C30.5427 47.352 30.1903 47.4502 29.8751 47.646C29.5618 47.8425 29.3121 48.1315 29.1261 48.513C28.942 48.8952 28.85 49.3637 28.85 49.919C28.85 50.4737 28.942 50.9421 29.1261 51.3243C29.3121 51.7059 29.5618 51.9949 29.8751 52.1913C30.1903 52.3871 30.5427 52.4854 30.931 52.4854C31.1441 52.4854 31.349 52.4564 31.5457 52.3978C31.7418 52.3393 31.9208 52.253 32.0816 52.1378C32.2443 52.0213 32.3823 51.8784 32.4952 51.709C32.6099 51.5384 32.6906 51.3419 32.7366 51.1209H33.5139C33.4553 51.4484 33.3488 51.7418 33.1943 52.0005C33.0399 52.2593 32.8476 52.4791 32.6175 52.661C32.388 52.8405 32.1295 52.9771 31.8433 53.0709C31.559 53.1647 31.2551 53.212 30.931 53.212C30.3838 53.212 29.8971 53.0785 29.471 52.8109C29.0442 52.5439 28.7094 52.1642 28.4648 51.6719C28.2202 51.1789 28.0979 50.5946 28.0979 49.919C28.0979 49.2428 28.2202 48.6585 28.4648 48.1655C28.7094 47.6731 29.0442 47.2934 29.471 47.0265C29.8971 46.7595 30.3838 46.6254 30.931 46.6254C31.2551 46.6254 31.559 46.6726 31.8433 46.7664C32.1295 46.8603 32.388 46.9981 32.6175 47.1795C32.8476 47.3589 33.0399 47.578 33.1943 47.8368C33.3488 48.0937 33.4553 48.3871 33.5139 48.7164ZM35.4097 50.2319V53.1238H34.6695V46.7135H35.4097V49.0671H35.4721C35.5849 48.819 35.7539 48.622 35.9796 48.4759C36.2078 48.3273 36.5104 48.2536 36.8887 48.2536C37.2165 48.2536 37.504 48.3191 37.7505 48.4507C37.997 48.5798 38.1886 48.7794 38.3241 49.0482C38.4622 49.3158 38.5309 49.6558 38.5309 50.0688V53.1238H37.7915V50.1192C37.7915 49.737 37.6925 49.4417 37.4939 49.2333C37.2972 49.0224 37.0248 48.9172 36.6756 48.9172C36.4335 48.9172 36.216 48.9682 36.0237 49.0702C35.8333 49.1729 35.6833 49.3221 35.5723 49.5179C35.4639 49.7144 35.4097 49.9524 35.4097 50.2319ZM41.8401 53.2245C41.4057 53.2245 41.0243 53.1213 40.6959 52.9141C40.3699 52.7076 40.1152 52.4186 39.9311 52.0471C39.7496 51.6757 39.6588 51.2418 39.6588 50.7451C39.6588 50.2445 39.7496 49.8069 39.9311 49.4335C40.1152 49.0602 40.3699 48.7699 40.6959 48.5634C41.0243 48.3569 41.4057 48.2536 41.8401 48.2536C42.2745 48.2536 42.6553 48.3569 42.9812 48.5634C43.309 48.7699 43.5637 49.0602 43.7459 49.4335C43.9294 49.8069 44.0214 50.2445 44.0214 50.7451C44.0214 51.2418 43.9294 51.6757 43.7459 52.0471C43.5637 52.4186 43.309 52.7076 42.9812 52.9141C42.6553 53.1213 42.2745 53.2245 41.8401 53.2245ZM41.8401 52.5609C42.1704 52.5609 42.4421 52.4759 42.6552 52.3072C42.8683 52.1378 43.0259 51.9155 43.1281 51.6404C43.2308 51.3646 43.2819 51.0662 43.2819 50.7451C43.2819 50.424 43.2308 50.1242 43.1281 49.8466C43.0259 49.5689 42.8683 49.3448 42.6552 49.1735C42.4421 49.0029 42.1704 48.9172 41.8401 48.9172C41.5098 48.9172 41.238 49.0029 41.0249 49.1735C40.8118 49.3448 40.6542 49.5689 40.5521 49.8466C40.4493 50.1242 40.3983 50.424 40.3983 50.7451C40.3983 51.0662 40.4493 51.3646 40.5521 51.6404C40.6542 51.9155 40.8118 52.1378 41.0249 52.3072C41.238 52.4759 41.5098 52.5609 41.8401 52.5609ZM45.1505 53.1238V48.316H45.8906V53.1238H45.1505ZM45.5269 47.5144C45.3825 47.5144 45.2583 47.4659 45.1537 47.3677C45.0515 47.2695 45.0005 47.1518 45.0005 47.0139C45.0005 46.876 45.0515 46.7582 45.1537 46.66C45.2583 46.5618 45.3825 46.5127 45.5269 46.5127C45.6713 46.5127 45.7942 46.5618 45.8963 46.66C46.001 46.7582 46.0533 46.876 46.0533 47.0139C46.0533 47.1518 46.001 47.2695 45.8963 47.3677C45.7942 47.4659 45.6713 47.5144 45.5269 47.5144ZM49.2011 53.2245C48.7497 53.2245 48.3607 53.1181 48.0347 52.9047C47.7088 52.6919 47.4585 52.3991 47.2826 52.0251C47.1074 51.6517 47.0198 51.2248 47.0198 50.7451C47.0198 50.2571 47.1093 49.8258 47.289 49.4524C47.4705 49.0765 47.7233 48.7838 48.0474 48.5728C48.3733 48.36 48.7535 48.2536 49.1885 48.2536C49.527 48.2536 49.8321 48.3159 50.1038 48.4412C50.3749 48.5665 50.5975 48.7416 50.7715 48.967C50.9448 49.1924 51.052 49.4556 51.0943 49.7559H50.3541C50.298 49.5368 50.1726 49.3429 49.9784 49.1735C49.7861 49.0029 49.527 48.9172 49.2011 48.9172C48.9123 48.9172 48.6595 48.9922 48.4427 49.1426C48.227 49.2906 48.0587 49.5003 47.9377 49.7717C47.8185 50.0405 47.7592 50.3572 47.7592 50.7199C47.7592 51.0914 47.8179 51.415 47.9345 51.6901C48.0537 51.9659 48.2207 52.18 48.4363 52.3324C48.6532 52.4847 48.9086 52.5609 49.2011 52.5609C49.3934 52.5609 49.5673 52.5275 49.7243 52.4608C49.8813 52.3934 50.0137 52.2977 50.1221 52.1724C50.2312 52.0471 50.3081 51.8973 50.3541 51.7216H51.0943C51.052 52.0056 50.9486 52.2612 50.7834 52.4885C50.6208 52.7139 50.4045 52.8934 50.1347 53.0268C49.8674 53.1584 49.556 53.2245 49.2011 53.2245ZM54.1941 53.2245C53.7301 53.2245 53.3298 53.1219 52.9931 52.9173C52.659 52.7108 52.4012 52.423 52.219 52.0534C52.0393 51.6819 51.9498 51.25 51.9498 50.7577C51.9498 50.2653 52.0393 49.8308 52.219 49.4556C52.4012 49.0778 52.6539 48.7838 52.978 48.5728C53.3039 48.36 53.6841 48.2536 54.1185 48.2536C54.3694 48.2536 54.6171 48.2952 54.8611 48.3789C55.1057 48.462 55.3283 48.598 55.5287 48.7856C55.7298 48.9714 55.8893 49.2176 56.0085 49.5242C56.1276 49.8308 56.1869 50.2086 56.1869 50.6575V50.9705H52.4761V50.332H55.4348C55.4348 50.0607 55.3806 49.8182 55.2721 49.6054C55.1656 49.3926 55.013 49.2251 54.8145 49.1017C54.6178 48.9783 54.3858 48.9172 54.1185 48.9172C53.824 48.9172 53.5693 48.9903 53.3537 49.1364C53.1406 49.2799 52.9767 49.4682 52.862 49.6999C52.7466 49.931 52.6892 50.1797 52.6892 50.4447V50.8704C52.6892 51.2337 52.7523 51.5415 52.8771 51.794C53.0051 52.044 53.1816 52.2354 53.4073 52.3664C53.633 52.4961 53.8953 52.5609 54.1941 52.5609C54.3883 52.5609 54.5635 52.5338 54.7205 52.4791C54.8794 52.423 55.0162 52.3393 55.1309 52.2291C55.2456 52.1164 55.3346 51.9766 55.3976 51.8091L56.1119 52.01C56.0369 52.2518 55.9101 52.4646 55.733 52.6484C55.5552 52.8298 55.3358 52.9721 55.0748 53.0741C54.8132 53.1742 54.52 53.2245 54.1941 53.2245Z" fill="#222D39"/>
<path d="M1.09326 65.7163H134.745V97.8274H1.09326V65.7163Z" fill="white"/>
<mask id="mask2_175_1648" style="mask-type:luminance" maskUnits="userSpaceOnUse" x="1" y="65" width="134" height="33">
<path d="M1.09326 65.7163H134.745V97.8274H1.09326V65.7163Z" fill="white"/>
</mask>
<g mask="url(#mask2_175_1648)">
<path d="M134.745 97.1978H1.09326V98.457H134.745V97.1978Z" fill="#F5F5F5"/>
</g>
<path d="M13.7019 76.4199H20.0062C21.2249 76.4199 22.2128 77.4066 22.2128 78.6236V84.9199C22.2128 86.137 21.2249 87.1236 20.0062 87.1236H13.7019C12.4833 87.1236 11.4954 86.137 11.4954 84.9199V78.6236C11.4954 77.4066 12.4833 76.4199 13.7019 76.4199Z" fill="white"/>
<path d="M13.7019 76.4199H20.0062C21.2249 76.4199 22.2128 77.4066 22.2128 78.6236V84.9199C22.2128 86.137 21.2249 87.1236 20.0062 87.1236H13.7019C12.4833 87.1236 11.4954 86.137 11.4954 84.9199V78.6236C11.4954 77.4066 12.4833 76.4199 13.7019 76.4199Z" stroke="#B6BABE"/>
<path d="M33.5139 80.8275H32.7366C32.6906 80.6046 32.6099 80.4081 32.4952 80.2394C32.3823 80.07 32.2443 79.9284 32.0816 79.8138C31.9208 79.6967 31.7418 79.6091 31.5457 79.5506C31.349 79.492 31.1441 79.4631 30.931 79.4631C30.5427 79.4631 30.1903 79.5613 29.8751 79.7571C29.5618 79.9535 29.3121 80.2425 29.1261 80.6241C28.942 81.0063 28.85 81.4747 28.85 82.0301C28.85 82.5848 28.942 83.0532 29.1261 83.4354C29.3121 83.817 29.5618 84.106 29.8751 84.3024C30.1903 84.4982 30.5427 84.5964 30.931 84.5964C31.1441 84.5964 31.349 84.5675 31.5457 84.5089C31.7418 84.4504 31.9208 84.3641 32.0816 84.2489C32.2443 84.1324 32.3823 83.9895 32.4952 83.8201C32.6099 83.6495 32.6906 83.453 32.7366 83.232H33.5139C33.4553 83.5594 33.3488 83.8528 33.1943 84.1116C33.0399 84.3704 32.8476 84.5901 32.6175 84.7721C32.388 84.9516 32.1295 85.0882 31.8433 85.182C31.559 85.2758 31.2551 85.323 30.931 85.323C30.3838 85.323 29.8971 85.1896 29.471 84.922C29.0442 84.655 28.7094 84.2753 28.4648 83.783C28.2202 83.29 28.0979 82.7057 28.0979 82.0301C28.0979 81.3538 28.2202 80.7696 28.4648 80.2766C28.7094 79.7842 29.0442 79.4045 29.471 79.1376C29.8971 78.8706 30.3838 78.7365 30.931 78.7365C31.2551 78.7365 31.559 78.7837 31.8433 78.8775C32.1295 78.9713 32.388 79.1092 32.6175 79.2906C32.8476 79.47 33.0399 79.6891 33.1943 79.9479C33.3488 80.2048 33.4553 80.4982 33.5139 80.8275ZM35.4097 82.343V85.2349H34.6695V78.8246H35.4097V81.1782H35.4721C35.5849 80.9301 35.7539 80.733 35.9796 80.587C36.2078 80.4384 36.5104 80.3647 36.8887 80.3647C37.2165 80.3647 37.504 80.4302 37.7505 80.5618C37.997 80.6908 38.1886 80.8904 38.3241 81.1593C38.4622 81.4269 38.5309 81.7669 38.5309 82.1799V85.2349H37.7915V82.2303C37.7915 81.8481 37.6925 81.5528 37.4939 81.3444C37.2972 81.1335 37.0248 81.0283 36.6756 81.0283C36.4335 81.0283 36.216 81.0793 36.0237 81.1813C35.8333 81.284 35.6833 81.4332 35.5723 81.629C35.4639 81.8254 35.4097 82.0634 35.4097 82.343ZM41.8401 85.3356C41.4057 85.3356 41.0243 85.2324 40.6959 85.0252C40.3699 84.8187 40.1152 84.5297 39.9311 84.1582C39.7496 83.7867 39.6588 83.3529 39.6588 82.8561C39.6588 82.3556 39.7496 81.918 39.9311 81.5446C40.1152 81.1713 40.3699 80.881 40.6959 80.6745C41.0243 80.468 41.4057 80.3647 41.8401 80.3647C42.2745 80.3647 42.6553 80.468 42.9812 80.6745C43.309 80.881 43.5637 81.1713 43.7459 81.5446C43.9294 81.918 44.0214 82.3556 44.0214 82.8561C44.0214 83.3529 43.9294 83.7867 43.7459 84.1582C43.5637 84.5297 43.309 84.8187 42.9812 85.0252C42.6553 85.2324 42.2745 85.3356 41.8401 85.3356ZM41.8401 84.672C42.1704 84.672 42.4421 84.587 42.6552 84.4183C42.8683 84.2489 43.0259 84.0266 43.1281 83.7515C43.2308 83.4757 43.2819 83.1773 43.2819 82.8561C43.2819 82.535 43.2308 82.2353 43.1281 81.9577C43.0259 81.68 42.8683 81.4559 42.6552 81.2846C42.4421 81.114 42.1704 81.0283 41.8401 81.0283C41.5098 81.0283 41.238 81.114 41.0249 81.2846C40.8118 81.4559 40.6542 81.68 40.5521 81.9577C40.4493 82.2353 40.3983 82.535 40.3983 82.8561C40.3983 83.1773 40.4493 83.4757 40.5521 83.7515C40.6542 84.0266 40.8118 84.2489 41.0249 84.4183C41.238 84.587 41.5098 84.672 41.8401 84.672ZM45.1505 85.2349V80.427H45.8906V85.2349H45.1505ZM45.5269 79.6255C45.3825 79.6255 45.2583 79.577 45.1537 79.4788C45.0515 79.3806 45.0005 79.2628 45.0005 79.125C45.0005 78.9871 45.0515 78.8693 45.1537 78.7711C45.2583 78.6729 45.3825 78.6238 45.5269 78.6238C45.6713 78.6238 45.7942 78.6729 45.8963 78.7711C46.001 78.8693 46.0533 78.9871 46.0533 79.125C46.0533 79.2628 46.001 79.3806 45.8963 79.4788C45.7942 79.577 45.6713 79.6255 45.5269 79.6255ZM49.2011 85.3356C48.7497 85.3356 48.3607 85.2292 48.0347 85.0158C47.7088 84.803 47.4585 84.5102 47.2826 84.1362C47.1074 83.7628 47.0198 83.3359 47.0198 82.8561C47.0198 82.3682 47.1093 81.9369 47.289 81.5635C47.4705 81.1876 47.7233 80.8948 48.0474 80.6839C48.3733 80.4711 48.7535 80.3647 49.1885 80.3647C49.527 80.3647 49.8321 80.427 50.1038 80.5523C50.3749 80.6776 50.5975 80.8527 50.7715 81.0781C50.9448 81.3035 51.052 81.5667 51.0943 81.867H50.3541C50.298 81.6479 50.1726 81.454 49.9784 81.2846C49.7861 81.114 49.527 81.0283 49.2011 81.0283C48.9123 81.0283 48.6595 81.1033 48.4427 81.2537C48.227 81.4017 48.0587 81.6114 47.9377 81.8827C47.8185 82.1516 47.7592 82.4683 47.7592 82.831C47.7592 83.2024 47.8179 83.5261 47.9345 83.8012C48.0537 84.077 48.2207 84.2911 48.4363 84.4434C48.6532 84.5958 48.9086 84.672 49.2011 84.672C49.3934 84.672 49.5673 84.6386 49.7243 84.5719C49.8813 84.5045 50.0137 84.4088 50.1221 84.2835C50.2312 84.1582 50.3081 84.0084 50.3541 83.8327H51.0943C51.052 84.1167 50.9486 84.3723 50.7834 84.5996C50.6208 84.825 50.4045 85.0044 50.1347 85.1379C49.8674 85.2695 49.556 85.3356 49.2011 85.3356ZM54.1941 85.3356C53.7301 85.3356 53.3298 85.233 52.9931 85.0284C52.659 84.8219 52.4012 84.5341 52.219 84.1645C52.0393 83.793 51.9498 83.3611 51.9498 82.8687C51.9498 82.3764 52.0393 81.9419 52.219 81.5667C52.4012 81.1889 52.6539 80.8948 52.978 80.6839C53.3039 80.4711 53.6841 80.3647 54.1185 80.3647C54.3694 80.3647 54.6171 80.4063 54.8611 80.49C55.1057 80.5731 55.3283 80.7091 55.5287 80.8967C55.7298 81.0825 55.8893 81.3287 56.0085 81.6353C56.1276 81.9419 56.1869 82.3197 56.1869 82.7686V83.0815H52.4761V82.4431H55.4348C55.4348 82.1717 55.3806 81.9293 55.2721 81.7165C55.1656 81.5037 55.013 81.3362 54.8145 81.2128C54.6178 81.0894 54.3858 81.0283 54.1185 81.0283C53.824 81.0283 53.5693 81.1014 53.3537 81.2474C53.1406 81.391 52.9767 81.5793 52.862 81.811C52.7466 82.042 52.6892 82.2907 52.6892 82.5558V82.9814C52.6892 83.3447 52.7523 83.6526 52.8771 83.9051C53.0051 84.1551 53.1816 84.3465 53.4073 84.4774C53.633 84.6071 53.8953 84.672 54.1941 84.672C54.3883 84.672 54.5635 84.6449 54.7205 84.5901C54.8794 84.5341 55.0162 84.4504 55.1309 84.3402C55.2456 84.2275 55.3346 84.0877 55.3976 83.9202L56.1119 84.1211C56.0369 84.3628 55.9101 84.5757 55.733 84.7595C55.5552 84.9409 55.3358 85.0831 55.0748 85.1851C54.8132 85.2853 54.52 85.3356 54.1941 85.3356Z" fill="#222D39"/>
<path d="M1.09326 97.8274H134.745V129.938H1.09326V97.8274Z" fill="white"/>
<mask id="mask3_175_1648" style="mask-type:luminance" maskUnits="userSpaceOnUse" x="1" y="97" width="134" height="33">
<path d="M1.09326 97.8274H134.745V129.938H1.09326V97.8274Z" fill="white"/>
</mask>
<g mask="url(#mask3_175_1648)">
<path d="M134.745 129.309H1.09326V130.568H134.745V129.309Z" fill="#F5F5F5"/>
</g>
<path d="M13.7019 108.531H20.0062C21.2249 108.531 22.2128 109.518 22.2128 110.735V117.031C22.2128 118.248 21.2249 119.235 20.0062 119.235H13.7019C12.4833 119.235 11.4954 118.248 11.4954 117.031V110.735C11.4954 109.518 12.4833 108.531 13.7019 108.531Z" fill="white"/>
<path d="M13.7019 108.531H20.0062C21.2249 108.531 22.2128 109.518 22.2128 110.735V117.031C22.2128 118.248 21.2249 119.235 20.0062 119.235H13.7019C12.4833 119.235 11.4954 118.248 11.4954 117.031V110.735C11.4954 109.518 12.4833 108.531 13.7019 108.531Z" stroke="#B6BABE"/>
<path d="M33.5139 112.939H32.7366C32.6906 112.716 32.6099 112.519 32.4952 112.35C32.3823 112.181 32.2443 112.039 32.0816 111.925C31.9208 111.808 31.7418 111.72 31.5457 111.662C31.349 111.603 31.1441 111.574 30.931 111.574C30.5427 111.574 30.1903 111.672 29.8751 111.868C29.5618 112.065 29.3121 112.354 29.1261 112.735C28.942 113.117 28.85 113.586 28.85 114.141C28.85 114.696 28.942 115.164 29.1261 115.546C29.3121 115.928 29.5618 116.217 29.8751 116.413C30.1903 116.609 30.5427 116.708 30.931 116.708C31.1441 116.708 31.349 116.679 31.5457 116.62C31.7418 116.561 31.9208 116.475 32.0816 116.36C32.2443 116.243 32.3823 116.101 32.4952 115.931C32.6099 115.761 32.6906 115.564 32.7366 115.343H33.5139C33.4553 115.671 33.3488 115.964 33.1943 116.223C33.0399 116.481 32.8476 116.701 32.6175 116.883C32.388 117.063 32.1295 117.199 31.8433 117.293C31.559 117.387 31.2551 117.434 30.931 117.434C30.3838 117.434 29.8971 117.301 29.471 117.033C29.0442 116.766 28.7094 116.386 28.4648 115.894C28.2202 115.401 28.0979 114.817 28.0979 114.141C28.0979 113.465 28.2202 112.881 28.4648 112.388C28.7094 111.895 29.0442 111.516 29.471 111.249C29.8971 110.982 30.3838 110.848 30.931 110.848C31.2551 110.848 31.559 110.895 31.8433 110.989C32.1295 111.082 32.388 111.22 32.6175 111.402C32.8476 111.581 33.0399 111.8 33.1943 112.059C33.3488 112.316 33.4553 112.609 33.5139 112.939ZM35.4097 114.454V117.346H34.6695V110.936H35.4097V113.289H35.4721C35.5849 113.041 35.7539 112.844 35.9796 112.698C36.2078 112.549 36.5104 112.476 36.8887 112.476C37.2165 112.476 37.504 112.541 37.7505 112.673C37.997 112.802 38.1886 113.002 38.3241 113.27C38.4622 113.538 38.5309 113.878 38.5309 114.291V117.346H37.7915V114.341C37.7915 113.959 37.6925 113.664 37.4939 113.455C37.2972 113.245 37.0248 113.139 36.6756 113.139C36.4335 113.139 36.216 113.19 36.0237 113.292C35.8333 113.395 35.6833 113.544 35.5723 113.74C35.4639 113.937 35.4097 114.175 35.4097 114.454ZM41.8401 117.447C41.4057 117.447 41.0243 117.343 40.6959 117.136C40.3699 116.93 40.1152 116.641 39.9311 116.269C39.7496 115.898 39.6588 115.464 39.6588 114.967C39.6588 114.467 39.7496 114.029 39.9311 113.656C40.1152 113.282 40.3699 112.992 40.6959 112.786C41.0243 112.579 41.4057 112.476 41.8401 112.476C42.2745 112.476 42.6553 112.579 42.9812 112.786C43.309 112.992 43.5637 113.282 43.7459 113.656C43.9294 114.029 44.0214 114.467 44.0214 114.967C44.0214 115.464 43.9294 115.898 43.7459 116.269C43.5637 116.641 43.309 116.93 42.9812 117.136C42.6553 117.343 42.2745 117.447 41.8401 117.447ZM41.8401 116.783C42.1704 116.783 42.4421 116.698 42.6552 116.529C42.8683 116.36 43.0259 116.138 43.1281 115.863C43.2308 115.587 43.2819 115.288 43.2819 114.967C43.2819 114.646 43.2308 114.346 43.1281 114.069C43.0259 113.791 42.8683 113.567 42.6552 113.396C42.4421 113.225 42.1704 113.139 41.8401 113.139C41.5098 113.139 41.238 113.225 41.0249 113.396C40.8118 113.567 40.6542 113.791 40.5521 114.069C40.4493 114.346 40.3983 114.646 40.3983 114.967C40.3983 115.288 40.4493 115.587 40.5521 115.863C40.6542 116.138 40.8118 116.36 41.0249 116.529C41.238 116.698 41.5098 116.783 41.8401 116.783ZM45.1505 117.346V112.538H45.8906V117.346H45.1505ZM45.5269 111.737C45.3825 111.737 45.2583 111.688 45.1537 111.59C45.0515 111.492 45.0005 111.374 45.0005 111.236C45.0005 111.098 45.0515 110.98 45.1537 110.882C45.2583 110.784 45.3825 110.735 45.5269 110.735C45.6713 110.735 45.7942 110.784 45.8963 110.882C46.001 110.98 46.0533 111.098 46.0533 111.236C46.0533 111.374 46.001 111.492 45.8963 111.59C45.7942 111.688 45.6713 111.737 45.5269 111.737ZM49.2011 117.447C48.7497 117.447 48.3607 117.34 48.0347 117.127C47.7088 116.914 47.4585 116.621 47.2826 116.247C47.1074 115.874 47.0198 115.447 47.0198 114.967C47.0198 114.479 47.1093 114.048 47.289 113.675C47.4705 113.299 47.7233 113.006 48.0474 112.795C48.3733 112.582 48.7535 112.476 49.1885 112.476C49.527 112.476 49.8321 112.538 50.1038 112.663C50.3749 112.789 50.5975 112.964 50.7715 113.189C50.9448 113.415 51.052 113.678 51.0943 113.978H50.3541C50.298 113.759 50.1726 113.565 49.9784 113.396C49.7861 113.225 49.527 113.139 49.2011 113.139C48.9123 113.139 48.6595 113.214 48.4427 113.365C48.227 113.513 48.0587 113.722 47.9377 113.994C47.8185 114.263 47.7592 114.579 47.7592 114.942C47.7592 115.314 47.8179 115.637 47.9345 115.912C48.0537 116.188 48.2207 116.402 48.4363 116.555C48.6532 116.707 48.9086 116.783 49.2011 116.783C49.3934 116.783 49.5673 116.75 49.7243 116.683C49.8813 116.616 50.0137 116.52 50.1221 116.395C50.2312 116.269 50.3081 116.119 50.3541 115.944H51.0943C51.052 116.228 50.9486 116.483 50.7834 116.711C50.6208 116.936 50.4045 117.116 50.1347 117.249C49.8674 117.381 49.556 117.447 49.2011 117.447ZM54.1941 117.447C53.7301 117.447 53.3298 117.344 52.9931 117.139C52.659 116.933 52.4012 116.645 52.219 116.276C52.0393 115.904 51.9498 115.472 51.9498 114.98C51.9498 114.487 52.0393 114.053 52.219 113.678C52.4012 113.3 52.6539 113.006 52.978 112.795C53.3039 112.582 53.6841 112.476 54.1185 112.476C54.3694 112.476 54.6171 112.517 54.8611 112.601C55.1057 112.684 55.3283 112.82 55.5287 113.008C55.7298 113.194 55.8893 113.44 56.0085 113.746C56.1276 114.053 56.1869 114.431 56.1869 114.88V115.193H52.4761V114.554H55.4348C55.4348 114.283 55.3806 114.04 55.2721 113.828C55.1656 113.615 55.013 113.447 54.8145 113.324C54.6178 113.2 54.3858 113.139 54.1185 113.139C53.824 113.139 53.5693 113.212 53.3537 113.359C53.1406 113.502 52.9767 113.69 52.862 113.922C52.7466 114.153 52.6892 114.402 52.6892 114.667V115.093C52.6892 115.456 52.7523 115.764 52.8771 116.016C53.0051 116.266 53.1816 116.458 53.4073 116.589C53.633 116.718 53.8953 116.783 54.1941 116.783C54.3883 116.783 54.5635 116.756 54.7205 116.701C54.8794 116.645 55.0162 116.561 55.1309 116.451C55.2456 116.339 55.3346 116.199 55.3976 116.031L56.1119 116.232C56.0369 116.474 55.9101 116.687 55.733 116.871C55.5552 117.052 55.3358 117.194 55.0748 117.296C54.8132 117.396 54.52 117.447 54.1941 117.447Z" fill="#222D39"/>
<path d="M1.09326 129.938H134.745V162.05H1.09326V129.938Z" fill="white"/>
<mask id="mask4_175_1648" style="mask-type:luminance" maskUnits="userSpaceOnUse" x="1" y="129" width="134" height="34">
<path d="M1.09326 129.938H134.745V162.05H1.09326V129.938Z" fill="white"/>
</mask>
<g mask="url(#mask4_175_1648)">
<path d="M134.745 161.42H1.09326V162.679H134.745V161.42Z" fill="#F5F5F5"/>
</g>
<path d="M13.7019 140.642H20.0062C21.2249 140.642 22.2128 141.629 22.2128 142.846V149.142C22.2128 150.359 21.2249 151.346 20.0062 151.346H13.7019C12.4833 151.346 11.4954 150.359 11.4954 149.142V142.846C11.4954 141.629 12.4833 140.642 13.7019 140.642Z" fill="white"/>
<path d="M13.7019 140.642H20.0062C21.2249 140.642 22.2128 141.629 22.2128 142.846V149.142C22.2128 150.359 21.2249 151.346 20.0062 151.346H13.7019C12.4833 151.346 11.4954 150.359 11.4954 149.142V142.846C11.4954 141.629 12.4833 140.642 13.7019 140.642Z" stroke="#B6BABE"/>
<path d="M33.5139 145.05H32.7366C32.6906 144.827 32.6099 144.63 32.4952 144.462C32.3823 144.292 32.2443 144.151 32.0816 144.036C31.9208 143.919 31.7418 143.831 31.5457 143.773C31.349 143.714 31.1441 143.685 30.931 143.685C30.5427 143.685 30.1903 143.783 29.8751 143.979C29.5618 144.176 29.3121 144.465 29.1261 144.846C28.942 145.228 28.85 145.697 28.85 146.252C28.85 146.807 28.942 147.275 29.1261 147.658C29.3121 148.039 29.5618 148.328 29.8751 148.525C30.1903 148.72 30.5427 148.819 30.931 148.819C31.1441 148.819 31.349 148.79 31.5457 148.731C31.7418 148.673 31.9208 148.586 32.0816 148.471C32.2443 148.355 32.3823 148.212 32.4952 148.042C32.6099 147.872 32.6906 147.675 32.7366 147.454H33.5139C33.4553 147.782 33.3488 148.075 33.1943 148.334C33.0399 148.593 32.8476 148.812 32.6175 148.994C32.388 149.174 32.1295 149.31 31.8433 149.404C31.559 149.498 31.2551 149.545 30.931 149.545C30.3838 149.545 29.8971 149.412 29.471 149.144C29.0442 148.877 28.7094 148.498 28.4648 148.005C28.2202 147.512 28.0979 146.928 28.0979 146.252C28.0979 145.576 28.2202 144.992 28.4648 144.499C28.7094 144.006 29.0442 143.627 29.471 143.36C29.8971 143.093 30.3838 142.959 30.931 142.959C31.2551 142.959 31.559 143.006 31.8433 143.1C32.1295 143.194 32.388 143.331 32.6175 143.513C32.8476 143.692 33.0399 143.911 33.1943 144.17C33.3488 144.427 33.4553 144.72 33.5139 145.05ZM35.4097 146.565V149.457H34.6695V143.047H35.4097V145.4H35.4721C35.5849 145.152 35.7539 144.955 35.9796 144.809C36.2078 144.661 36.5104 144.587 36.8887 144.587C37.2165 144.587 37.504 144.652 37.7505 144.784C37.997 144.913 38.1886 145.113 38.3241 145.381C38.4622 145.649 38.5309 145.989 38.5309 146.402V149.457H37.7915V146.452C37.7915 146.07 37.6925 145.775 37.4939 145.567C37.2972 145.356 37.0248 145.251 36.6756 145.251C36.4335 145.251 36.216 145.302 36.0237 145.404C35.8333 145.506 35.6833 145.655 35.5723 145.851C35.4639 146.048 35.4097 146.286 35.4097 146.565ZM41.8401 149.558C41.4057 149.558 41.0243 149.455 40.6959 149.247C40.3699 149.041 40.1152 148.752 39.9311 148.38C39.7496 148.009 39.6588 147.575 39.6588 147.078C39.6588 146.578 39.7496 146.14 39.9311 145.767C40.1152 145.393 40.3699 145.103 40.6959 144.897C41.0243 144.69 41.4057 144.587 41.8401 144.587C42.2745 144.587 42.6553 144.69 42.9812 144.897C43.309 145.103 43.5637 145.393 43.7459 145.767C43.9294 146.14 44.0214 146.578 44.0214 147.078C44.0214 147.575 43.9294 148.009 43.7459 148.38C43.5637 148.752 43.309 149.041 42.9812 149.247C42.6553 149.455 42.2745 149.558 41.8401 149.558ZM41.8401 148.894C42.1704 148.894 42.4421 148.809 42.6552 148.64C42.8683 148.471 43.0259 148.249 43.1281 147.974C43.2308 147.698 43.2819 147.399 43.2819 147.078C43.2819 146.757 43.2308 146.458 43.1281 146.18C43.0259 145.902 42.8683 145.678 42.6552 145.507C42.4421 145.336 42.1704 145.251 41.8401 145.251C41.5098 145.251 41.238 145.336 41.0249 145.507C40.8118 145.678 40.6542 145.902 40.5521 146.18C40.4493 146.458 40.3983 146.757 40.3983 147.078C40.3983 147.399 40.4493 147.698 40.5521 147.974C40.6542 148.249 40.8118 148.471 41.0249 148.64C41.238 148.809 41.5098 148.894 41.8401 148.894ZM45.1505 149.457V144.649H45.8906V149.457H45.1505ZM45.5269 143.848C45.3825 143.848 45.2583 143.799 45.1537 143.701C45.0515 143.603 45.0005 143.485 45.0005 143.347C45.0005 143.209 45.0515 143.092 45.1537 142.993C45.2583 142.895 45.3825 142.846 45.5269 142.846C45.6713 142.846 45.7942 142.895 45.8963 142.993C46.001 143.092 46.0533 143.209 46.0533 143.347C46.0533 143.485 46.001 143.603 45.8963 143.701C45.7942 143.799 45.6713 143.848 45.5269 143.848ZM49.2011 149.558C48.7497 149.558 48.3607 149.451 48.0347 149.238C47.7088 149.025 47.4585 148.732 47.2826 148.358C47.1074 147.985 47.0198 147.558 47.0198 147.078C47.0198 146.59 47.1093 146.159 47.289 145.786C47.4705 145.41 47.7233 145.117 48.0474 144.906C48.3733 144.693 48.7535 144.587 49.1885 144.587C49.527 144.587 49.8321 144.649 50.1038 144.775C50.3749 144.9 50.5975 145.075 50.7715 145.3C50.9448 145.526 51.052 145.789 51.0943 146.089H50.3541C50.298 145.87 50.1726 145.676 49.9784 145.507C49.7861 145.336 49.527 145.251 49.2011 145.251C48.9123 145.251 48.6595 145.325 48.4427 145.476C48.227 145.624 48.0587 145.834 47.9377 146.105C47.8185 146.374 47.7592 146.69 47.7592 147.053C47.7592 147.425 47.8179 147.748 47.9345 148.023C48.0537 148.299 48.2207 148.513 48.4363 148.666C48.6532 148.818 48.9086 148.894 49.2011 148.894C49.3934 148.894 49.5673 148.861 49.7243 148.794C49.8813 148.727 50.0137 148.631 50.1221 148.506C50.2312 148.38 50.3081 148.231 50.3541 148.055H51.0943C51.052 148.339 50.9486 148.594 50.7834 148.822C50.6208 149.047 50.4045 149.227 50.1347 149.36C49.8674 149.492 49.556 149.558 49.2011 149.558ZM54.1941 149.558C53.7301 149.558 53.3298 149.455 52.9931 149.251C52.659 149.044 52.4012 148.756 52.219 148.387C52.0393 148.015 51.9498 147.583 51.9498 147.091C51.9498 146.599 52.0393 146.164 52.219 145.789C52.4012 145.411 52.6539 145.117 52.978 144.906C53.3039 144.693 53.6841 144.587 54.1185 144.587C54.3694 144.587 54.6171 144.628 54.8611 144.712C55.1057 144.795 55.3283 144.931 55.5287 145.119C55.7298 145.305 55.8893 145.551 56.0085 145.857C56.1276 146.164 56.1869 146.542 56.1869 146.991V147.304H52.4761V146.665H55.4348C55.4348 146.394 55.3806 146.152 55.2721 145.939C55.1656 145.726 55.013 145.558 54.8145 145.435C54.6178 145.312 54.3858 145.251 54.1185 145.251C53.824 145.251 53.5693 145.324 53.3537 145.47C53.1406 145.613 52.9767 145.801 52.862 146.033C52.7466 146.264 52.6892 146.513 52.6892 146.778V147.204C52.6892 147.567 52.7523 147.875 52.8771 148.127C53.0051 148.377 53.1816 148.569 53.4073 148.7C53.633 148.829 53.8953 148.894 54.1941 148.894C54.3883 148.894 54.5635 148.867 54.7205 148.812C54.8794 148.756 55.0162 148.673 55.1309 148.562C55.2456 148.45 55.3346 148.31 55.3976 148.142L56.1119 148.343C56.0369 148.585 55.9101 148.798 55.733 148.982C55.5552 149.163 55.3358 149.305 55.0748 149.407C54.8132 149.507 54.52 149.558 54.1941 149.558Z" fill="#222D39"/>
<path d="M1.09326 162.05H134.745V194.161H1.09326V162.05Z" fill="white"/>
<mask id="mask5_175_1648" style="mask-type:luminance" maskUnits="userSpaceOnUse" x="1" y="162" width="134" height="33">
<path d="M1.09326 162.05H134.745V194.161H1.09326V162.05Z" fill="white"/>
</mask>
<g mask="url(#mask5_175_1648)">
<path d="M134.745 193.531H1.09326V194.79H134.745V193.531Z" fill="#F5F5F5"/>
</g>
<path d="M13.7019 172.753H20.0062C21.2249 172.753 22.2128 173.74 22.2128 174.957V181.253C22.2128 182.47 21.2249 183.457 20.0062 183.457H13.7019C12.4833 183.457 11.4954 182.47 11.4954 181.253V174.957C11.4954 173.74 12.4833 172.753 13.7019 172.753Z" fill="white"/>
<path d="M13.7019 172.753H20.0062C21.2249 172.753 22.2128 173.74 22.2128 174.957V181.253C22.2128 182.47 21.2249 183.457 20.0062 183.457H13.7019C12.4833 183.457 11.4954 182.47 11.4954 181.253V174.957C11.4954 173.74 12.4833 172.753 13.7019 172.753Z" stroke="#B6BABE"/>
<path d="M33.5139 177.161H32.7366C32.6906 176.938 32.6099 176.741 32.4952 176.573C32.3823 176.403 32.2443 176.262 32.0816 176.147C31.9208 176.03 31.7418 175.942 31.5457 175.884C31.349 175.825 31.1441 175.796 30.931 175.796C30.5427 175.796 30.1903 175.895 29.8751 176.09C29.5618 176.287 29.3121 176.576 29.1261 176.957C28.942 177.34 28.85 177.808 28.85 178.363C28.85 178.918 28.942 179.386 29.1261 179.769C29.3121 180.15 29.5618 180.439 29.8751 180.636C30.1903 180.831 30.5427 180.93 30.931 180.93C31.1441 180.93 31.349 180.901 31.5457 180.842C31.7418 180.784 31.9208 180.697 32.0816 180.582C32.2443 180.466 32.3823 180.323 32.4952 180.153C32.6099 179.983 32.6906 179.786 32.7366 179.565H33.5139C33.4553 179.893 33.3488 180.186 33.1943 180.445C33.0399 180.704 32.8476 180.923 32.6175 181.105C32.388 181.285 32.1295 181.421 31.8433 181.515C31.559 181.609 31.2551 181.656 30.931 181.656C30.3838 181.656 29.8971 181.523 29.471 181.255C29.0442 180.988 28.7094 180.609 28.4648 180.116C28.2202 179.623 28.0979 179.039 28.0979 178.363C28.0979 177.687 28.2202 177.103 28.4648 176.61C28.7094 176.117 29.0442 175.738 29.471 175.471C29.8971 175.204 30.3838 175.07 30.931 175.07C31.2551 175.07 31.559 175.117 31.8433 175.211C32.1295 175.305 32.388 175.442 32.6175 175.624C32.8476 175.803 33.0399 176.022 33.1943 176.281C33.3488 176.538 33.4553 176.831 33.5139 177.161ZM35.4097 178.676V181.568H34.6695V175.158H35.4097V177.511H35.4721C35.5849 177.263 35.7539 177.066 35.9796 176.92C36.2078 176.772 36.5104 176.698 36.8887 176.698C37.2165 176.698 37.504 176.763 37.7505 176.895C37.997 177.024 38.1886 177.224 38.3241 177.493C38.4622 177.76 38.5309 178.1 38.5309 178.513V181.568H37.7915V178.564C37.7915 178.181 37.6925 177.886 37.4939 177.678C37.2972 177.467 37.0248 177.362 36.6756 177.362C36.4335 177.362 36.216 177.413 36.0237 177.515C35.8333 177.617 35.6833 177.766 35.5723 177.962C35.4639 178.159 35.4097 178.397 35.4097 178.676ZM41.8401 181.669C41.4057 181.669 41.0243 181.566 40.6959 181.358C40.3699 181.152 40.1152 180.863 39.9311 180.491C39.7496 180.12 39.6588 179.686 39.6588 179.189C39.6588 178.689 39.7496 178.251 39.9311 177.878C40.1152 177.505 40.3699 177.214 40.6959 177.008C41.0243 176.801 41.4057 176.698 41.8401 176.698C42.2745 176.698 42.6553 176.801 42.9812 177.008C43.309 177.214 43.5637 177.505 43.7459 177.878C43.9294 178.251 44.0214 178.689 44.0214 179.189C44.0214 179.686 43.9294 180.12 43.7459 180.491C43.5637 180.863 43.309 181.152 42.9812 181.358C42.6553 181.566 42.2745 181.669 41.8401 181.669ZM41.8401 181.005C42.1704 181.005 42.4421 180.92 42.6552 180.752C42.8683 180.582 43.0259 180.36 43.1281 180.085C43.2308 179.809 43.2819 179.511 43.2819 179.189C43.2819 178.868 43.2308 178.569 43.1281 178.291C43.0259 178.013 42.8683 177.789 42.6552 177.618C42.4421 177.447 42.1704 177.362 41.8401 177.362C41.5098 177.362 41.238 177.447 41.0249 177.618C40.8118 177.789 40.6542 178.013 40.5521 178.291C40.4493 178.569 40.3983 178.868 40.3983 179.189C40.3983 179.511 40.4493 179.809 40.5521 180.085C40.6542 180.36 40.8118 180.582 41.0249 180.752C41.238 180.92 41.5098 181.005 41.8401 181.005ZM45.1505 181.568V176.76H45.8906V181.568H45.1505ZM45.5269 175.959C45.3825 175.959 45.2583 175.91 45.1537 175.812C45.0515 175.714 45.0005 175.596 45.0005 175.458C45.0005 175.32 45.0515 175.203 45.1537 175.104C45.2583 175.006 45.3825 174.957 45.5269 174.957C45.6713 174.957 45.7942 175.006 45.8963 175.104C46.001 175.203 46.0533 175.32 46.0533 175.458C46.0533 175.596 46.001 175.714 45.8963 175.812C45.7942 175.91 45.6713 175.959 45.5269 175.959ZM49.2011 181.669C48.7497 181.669 48.3607 181.562 48.0347 181.349C47.7088 181.136 47.4585 180.843 47.2826 180.469C47.1074 180.096 47.0198 179.669 47.0198 179.189C47.0198 178.701 47.1093 178.27 47.289 177.897C47.4705 177.521 47.7233 177.228 48.0474 177.017C48.3733 176.804 48.7535 176.698 49.1885 176.698C49.527 176.698 49.8321 176.76 50.1038 176.886C50.3749 177.011 50.5975 177.186 50.7715 177.411C50.9448 177.637 51.052 177.9 51.0943 178.2H50.3541C50.298 177.981 50.1726 177.787 49.9784 177.618C49.7861 177.447 49.527 177.362 49.2011 177.362C48.9123 177.362 48.6595 177.437 48.4427 177.587C48.227 177.735 48.0587 177.945 47.9377 178.216C47.8185 178.485 47.7592 178.802 47.7592 179.164C47.7592 179.536 47.8179 179.859 47.9345 180.134C48.0537 180.41 48.2207 180.624 48.4363 180.777C48.6532 180.929 48.9086 181.005 49.2011 181.005C49.3934 181.005 49.5673 180.972 49.7243 180.905C49.8813 180.838 50.0137 180.742 50.1221 180.617C50.2312 180.491 50.3081 180.342 50.3541 180.166H51.0943C51.052 180.45 50.9486 180.706 50.7834 180.933C50.6208 181.158 50.4045 181.338 50.1347 181.471C49.8674 181.603 49.556 181.669 49.2011 181.669ZM54.1941 181.669C53.7301 181.669 53.3298 181.566 52.9931 181.362C52.659 181.155 52.4012 180.867 52.219 180.498C52.0393 180.126 51.9498 179.694 51.9498 179.202C51.9498 178.71 52.0393 178.275 52.219 177.9C52.4012 177.522 52.6539 177.228 52.978 177.017C53.3039 176.804 53.6841 176.698 54.1185 176.698C54.3694 176.698 54.6171 176.74 54.8611 176.823C55.1057 176.906 55.3283 177.042 55.5287 177.23C55.7298 177.416 55.8893 177.662 56.0085 177.969C56.1276 178.275 56.1869 178.653 56.1869 179.102V179.415H52.4761V178.776H55.4348C55.4348 178.505 55.3806 178.263 55.2721 178.05C55.1656 177.837 55.013 177.669 54.8145 177.546C54.6178 177.423 54.3858 177.362 54.1185 177.362C53.824 177.362 53.5693 177.435 53.3537 177.581C53.1406 177.724 52.9767 177.913 52.862 178.144C52.7466 178.375 52.6892 178.624 52.6892 178.889V179.315C52.6892 179.678 52.7523 179.986 52.8771 180.238C53.0051 180.488 53.1816 180.68 53.4073 180.811C53.633 180.94 53.8953 181.005 54.1941 181.005C54.3883 181.005 54.5635 180.978 54.7205 180.923C54.8794 180.867 55.0162 180.784 55.1309 180.673C55.2456 180.561 55.3346 180.421 55.3976 180.253L56.1119 180.454C56.0369 180.696 55.9101 180.909 55.733 181.093C55.5552 181.274 55.3358 181.416 55.0748 181.518C54.8132 181.619 54.52 181.669 54.1941 181.669Z" fill="#222D39"/>
<path d="M1.09326 194.161H134.745V226.272H1.09326V194.161Z" fill="white"/>
<mask id="mask6_175_1648" style="mask-type:luminance" maskUnits="userSpaceOnUse" x="1" y="194" width="134" height="33">
<path d="M1.09326 194.161H134.745V226.272H1.09326V194.161Z" fill="white"/>
</mask>
<g mask="url(#mask6_175_1648)">
<path d="M134.745 225.642H1.09326V226.902H134.745V225.642Z" fill="#F5F5F5"/>
</g>
<path d="M13.7019 204.865H20.0062C21.2249 204.865 22.2128 205.851 22.2128 207.068V213.365C22.2128 214.582 21.2249 215.568 20.0062 215.568H13.7019C12.4833 215.568 11.4954 214.582 11.4954 213.365V207.068C11.4954 205.851 12.4833 204.865 13.7019 204.865Z" fill="white"/>
<path d="M13.7019 204.865H20.0062C21.2249 204.865 22.2128 205.851 22.2128 207.068V213.365C22.2128 214.582 21.2249 215.568 20.0062 215.568H13.7019C12.4833 215.568 11.4954 214.582 11.4954 213.365V207.068C11.4954 205.851 12.4833 204.865 13.7019 204.865Z" stroke="#B6BABE"/>
<path d="M33.5139 209.272H32.7366C32.6906 209.049 32.6099 208.852 32.4952 208.684C32.3823 208.514 32.2443 208.373 32.0816 208.258C31.9208 208.141 31.7418 208.053 31.5457 207.995C31.349 207.936 31.1441 207.907 30.931 207.907C30.5427 207.907 30.1903 208.006 29.8751 208.201C29.5618 208.398 29.3121 208.687 29.1261 209.068C28.942 209.451 28.85 209.919 28.85 210.474C28.85 211.029 28.942 211.498 29.1261 211.88C29.3121 212.261 29.5618 212.55 29.8751 212.747C30.1903 212.943 30.5427 213.041 30.931 213.041C31.1441 213.041 31.349 213.012 31.5457 212.953C31.7418 212.895 31.9208 212.808 32.0816 212.693C32.2443 212.577 32.3823 212.434 32.4952 212.264C32.6099 212.094 32.6906 211.897 32.7366 211.676H33.5139C33.4553 212.004 33.3488 212.297 33.1943 212.556C33.0399 212.815 32.8476 213.034 32.6175 213.216C32.388 213.396 32.1295 213.533 31.8433 213.626C31.559 213.72 31.2551 213.767 30.931 213.767C30.3838 213.767 29.8971 213.634 29.471 213.366C29.0442 213.099 28.7094 212.72 28.4648 212.227C28.2202 211.734 28.0979 211.15 28.0979 210.474C28.0979 209.798 28.2202 209.214 28.4648 208.721C28.7094 208.229 29.0442 207.849 29.471 207.582C29.8971 207.315 30.3838 207.181 30.931 207.181C31.2551 207.181 31.559 207.228 31.8433 207.322C32.1295 207.416 32.388 207.554 32.6175 207.735C32.8476 207.914 33.0399 208.133 33.1943 208.392C33.3488 208.649 33.4553 208.943 33.5139 209.272ZM35.4097 210.787V213.679H34.6695V207.269H35.4097V209.623H35.4721C35.5849 209.374 35.7539 209.177 35.9796 209.031C36.2078 208.883 36.5104 208.809 36.8887 208.809C37.2165 208.809 37.504 208.875 37.7505 209.006C37.997 209.135 38.1886 209.335 38.3241 209.604C38.4622 209.871 38.5309 210.211 38.5309 210.624V213.679H37.7915V210.675C37.7915 210.292 37.6925 209.997 37.4939 209.789C37.2972 209.578 37.0248 209.473 36.6756 209.473C36.4335 209.473 36.216 209.524 36.0237 209.626C35.8333 209.728 35.6833 209.878 35.5723 210.073C35.4639 210.27 35.4097 210.508 35.4097 210.787ZM41.8401 213.78C41.4057 213.78 41.0243 213.677 40.6959 213.47C40.3699 213.263 40.1152 212.974 39.9311 212.603C39.7496 212.231 39.6588 211.797 39.6588 211.3C39.6588 210.8 39.7496 210.362 39.9311 209.989C40.1152 209.616 40.3699 209.325 40.6959 209.119C41.0243 208.912 41.4057 208.809 41.8401 208.809C42.2745 208.809 42.6553 208.912 42.9812 209.119C43.309 209.325 43.5637 209.616 43.7459 209.989C43.9294 210.362 44.0214 210.8 44.0214 211.3C44.0214 211.797 43.9294 212.231 43.7459 212.603C43.5637 212.974 43.309 213.263 42.9812 213.47C42.6553 213.677 42.2745 213.78 41.8401 213.78ZM41.8401 213.116C42.1704 213.116 42.4421 213.031 42.6552 212.863C42.8683 212.693 43.0259 212.471 43.1281 212.196C43.2308 211.92 43.2819 211.622 43.2819 211.3C43.2819 210.979 43.2308 210.68 43.1281 210.402C43.0259 210.124 42.8683 209.9 42.6552 209.729C42.4421 209.558 42.1704 209.473 41.8401 209.473C41.5098 209.473 41.238 209.558 41.0249 209.729C40.8118 209.9 40.6542 210.124 40.5521 210.402C40.4493 210.68 40.3983 210.979 40.3983 211.3C40.3983 211.622 40.4493 211.92 40.5521 212.196C40.6542 212.471 40.8118 212.693 41.0249 212.863C41.238 213.031 41.5098 213.116 41.8401 213.116ZM45.1505 213.679V208.871H45.8906V213.679H45.1505ZM45.5269 208.07C45.3825 208.07 45.2583 208.021 45.1537 207.923C45.0515 207.825 45.0005 207.707 45.0005 207.569C45.0005 207.431 45.0515 207.314 45.1537 207.215C45.2583 207.117 45.3825 207.068 45.5269 207.068C45.6713 207.068 45.7942 207.117 45.8963 207.215C46.001 207.314 46.0533 207.431 46.0533 207.569C46.0533 207.707 46.001 207.825 45.8963 207.923C45.7942 208.021 45.6713 208.07 45.5269 208.07ZM49.2011 213.78C48.7497 213.78 48.3607 213.674 48.0347 213.46C47.7088 213.247 47.4585 212.955 47.2826 212.581C47.1074 212.207 47.0198 211.78 47.0198 211.3C47.0198 210.813 47.1093 210.381 47.289 210.008C47.4705 209.632 47.7233 209.339 48.0474 209.128C48.3733 208.915 48.7535 208.809 49.1885 208.809C49.527 208.809 49.8321 208.871 50.1038 208.997C50.3749 209.122 50.5975 209.297 50.7715 209.522C50.9448 209.748 51.052 210.011 51.0943 210.311H50.3541C50.298 210.092 50.1726 209.898 49.9784 209.729C49.7861 209.558 49.527 209.473 49.2011 209.473C48.9123 209.473 48.6595 209.548 48.4427 209.698C48.227 209.846 48.0587 210.056 47.9377 210.327C47.8185 210.596 47.7592 210.913 47.7592 211.275C47.7592 211.647 47.8179 211.97 47.9345 212.246C48.0537 212.521 48.2207 212.735 48.4363 212.888C48.6532 213.04 48.9086 213.116 49.2011 213.116C49.3934 213.116 49.5673 213.083 49.7243 213.016C49.8813 212.949 50.0137 212.853 50.1221 212.728C50.2312 212.603 50.3081 212.453 50.3541 212.277H51.0943C51.052 212.561 50.9486 212.817 50.7834 213.044C50.6208 213.269 50.4045 213.449 50.1347 213.582C49.8674 213.714 49.556 213.78 49.2011 213.78ZM54.1941 213.78C53.7301 213.78 53.3298 213.677 52.9931 213.473C52.659 213.266 52.4012 212.978 52.219 212.609C52.0393 212.237 51.9498 211.805 51.9498 211.313C51.9498 210.821 52.0393 210.386 52.219 210.011C52.4012 209.633 52.6539 209.339 52.978 209.128C53.3039 208.915 53.6841 208.809 54.1185 208.809C54.3694 208.809 54.6171 208.851 54.8611 208.934C55.1057 209.017 55.3283 209.153 55.5287 209.341C55.7298 209.527 55.8893 209.773 56.0085 210.08C56.1276 210.386 56.1869 210.764 56.1869 211.213V211.526H52.4761V210.887H55.4348C55.4348 210.616 55.3806 210.374 55.2721 210.161C55.1656 209.948 55.013 209.781 54.8145 209.657C54.6178 209.534 54.3858 209.473 54.1185 209.473C53.824 209.473 53.5693 209.546 53.3537 209.692C53.1406 209.835 52.9767 210.024 52.862 210.255C52.7466 210.486 52.6892 210.735 52.6892 211V211.426C52.6892 211.789 52.7523 212.097 52.8771 212.349C53.0051 212.599 53.1816 212.791 53.4073 212.922C53.633 213.051 53.8953 213.116 54.1941 213.116C54.3883 213.116 54.5635 213.089 54.7205 213.034C54.8794 212.978 55.0162 212.895 55.1309 212.785C55.2456 212.672 55.3346 212.532 55.3976 212.365L56.1119 212.565C56.0369 212.807 55.9101 213.02 55.733 213.204C55.5552 213.385 55.3358 213.527 55.0748 213.629C54.8132 213.73 54.52 213.78 54.1941 213.78Z" fill="#222D39"/>
<path d="M134.745 226.272H1.09326V258.383H134.745V226.272Z" fill="white"/>
<path d="M11.1802 234.142H62.8758C64.0944 234.142 65.0823 235.129 65.0823 236.346V248.309C65.0823 249.526 64.0944 250.513 62.8758 250.513H11.1802C9.96152 250.513 8.97363 249.526 8.97363 248.309V236.346C8.97363 235.129 9.96152 234.142 11.1802 234.142Z" fill="white"/>
<path d="M11.1802 234.142H62.8758C64.0944 234.142 65.0823 235.129 65.0823 236.346V248.309C65.0823 249.526 64.0944 250.513 62.8758 250.513H11.1802C9.96152 250.513 8.97363 249.526 8.97363 248.309V236.346C8.97363 235.129 9.96152 234.142 11.1802 234.142Z" stroke="#E1E1E1"/>
<path d="M23.1609 245.79V239.38H25.6183C26.0823 239.38 26.4676 239.453 26.7746 239.599C27.0841 239.743 27.3149 239.941 27.4674 240.19C27.6219 240.441 27.6994 240.725 27.6994 241.042C27.6994 241.303 27.649 241.527 27.5487 241.712C27.4485 241.895 27.3136 242.045 27.1446 242.159C26.9757 242.275 26.7865 242.357 26.5772 242.407V242.47C26.8048 242.482 27.0236 242.552 27.2322 242.679C27.4434 242.805 27.6156 242.982 27.7492 243.211C27.8835 243.441 27.9503 243.718 27.9503 244.044C27.9503 244.376 27.8696 244.674 27.7089 244.939C27.5481 245.202 27.3054 245.41 26.9813 245.562C26.6579 245.715 26.25 245.79 25.7595 245.79H23.1609ZM24.3241 244.82H25.5742C25.9966 244.82 26.3005 244.74 26.4864 244.579C26.6743 244.417 26.7683 244.208 26.7683 243.953C26.7683 243.764 26.7216 243.592 26.6277 243.44C26.5337 243.286 26.3994 243.164 26.2261 243.077C26.0527 242.987 25.8459 242.942 25.6057 242.942H24.3241V244.82ZM24.3241 242.106H25.474C25.6744 242.106 25.8554 242.07 26.0162 241.997C26.1769 241.922 26.3036 241.816 26.3957 241.681C26.4896 241.543 26.5362 241.38 26.5362 241.192C26.5362 240.944 26.4486 240.74 26.2734 240.579C26.1 240.418 25.8415 240.338 25.4992 240.338H24.3241V242.106ZM31.98 243.769V240.983H33.1148V245.79H32.0147V244.936H31.9643C31.8559 245.205 31.6768 245.425 31.4284 245.596C31.1819 245.768 30.8781 245.853 30.5162 245.853C30.201 245.853 29.9217 245.783 29.6796 245.644C29.4394 245.501 29.2509 245.296 29.1153 245.027C28.9792 244.756 28.9117 244.428 28.9117 244.044V240.983H30.0459V243.869C30.0459 244.173 30.1297 244.415 30.2968 244.595C30.4639 244.774 30.6833 244.864 30.955 244.864C31.122 244.864 31.2841 244.823 31.441 244.742C31.5974 244.661 31.726 244.54 31.8262 244.379C31.929 244.216 31.98 244.013 31.98 243.769ZM36.6856 240.983V241.859H33.918V240.983H36.6856ZM34.6008 239.831H35.7356V244.345C35.7356 244.497 35.7589 244.614 35.8043 244.695C35.8528 244.774 35.9152 244.829 35.9928 244.858C36.0697 244.887 36.1554 244.902 36.2494 244.902C36.3206 244.902 36.3855 244.896 36.4442 244.886C36.5047 244.876 36.5507 244.866 36.5816 244.858L36.7733 245.744C36.7127 245.765 36.6257 245.788 36.5129 245.812C36.4019 245.838 36.2664 245.852 36.1056 245.857C35.8213 245.865 35.5653 245.822 35.3377 245.728C35.1095 245.632 34.9292 245.484 34.7956 245.284C34.6638 245.083 34.5989 244.833 34.6008 244.532V239.831ZM40.0383 240.983V241.859H37.2707V240.983H40.0383ZM37.9541 239.831H39.0882V244.345C39.0882 244.497 39.1115 244.614 39.1576 244.695C39.2055 244.774 39.2685 244.829 39.3454 244.858C39.423 244.887 39.5087 244.902 39.6026 244.902C39.6732 244.902 39.7382 244.896 39.7968 244.886C39.8573 244.876 39.9034 244.866 39.9349 244.858L40.1259 245.744C40.0654 245.765 39.9784 245.788 39.8655 245.812C39.7552 245.838 39.619 245.852 39.4583 245.857C39.1739 245.865 38.918 245.822 38.6904 245.728C38.4628 245.632 38.2819 245.484 38.1482 245.284C38.0165 245.083 37.9515 244.833 37.9541 244.532V239.831ZM43.0354 245.885C42.5651 245.885 42.1578 245.782 41.8129 245.574C41.4681 245.368 41.2008 245.079 41.0104 244.707C40.8225 244.336 40.7286 243.902 40.7286 243.405C40.7286 242.909 40.8225 242.474 41.0104 242.1C41.2008 241.727 41.4681 241.437 41.8129 241.23C42.1578 241.023 42.5651 240.92 43.0354 240.92C43.5057 240.92 43.9129 241.023 44.2578 241.23C44.6026 241.437 44.8687 241.727 45.0572 242.1C45.2469 242.474 45.3421 242.909 45.3421 243.405C45.3421 243.902 45.2469 244.336 45.0572 244.707C44.8687 245.079 44.6026 245.368 44.2578 245.574C43.9129 245.782 43.5057 245.885 43.0354 245.885ZM43.0417 244.977C43.2964 244.977 43.5094 244.907 43.6809 244.767C43.8524 244.625 43.9797 244.435 44.0636 244.197C44.1493 243.959 44.1916 243.694 44.1916 243.402C44.1916 243.108 44.1493 242.842 44.0636 242.604C43.9797 242.364 43.8524 242.173 43.6809 242.031C43.5094 241.889 43.2964 241.819 43.0417 241.819C42.7807 241.819 42.5632 241.889 42.3898 242.031C42.2183 242.173 42.0897 242.364 42.004 242.604C41.9208 242.842 41.8785 243.108 41.8785 243.402C41.8785 243.694 41.9208 243.959 42.004 244.197C42.0897 244.435 42.2183 244.625 42.3898 244.767C42.5632 244.907 42.7807 244.977 43.0417 244.977ZM47.4396 242.973V245.79H46.3054V240.983H47.3898V241.8H47.4459C47.5568 241.53 47.7334 241.316 47.9754 241.158C48.2201 241 48.522 240.92 48.8814 240.92C49.2136 240.92 49.503 240.991 49.7495 241.133C49.9985 241.275 50.1908 241.481 50.3263 241.749C50.4644 242.019 50.5325 242.345 50.53 242.729V245.79H49.3958V242.905C49.3958 242.583 49.312 242.332 49.1449 242.15C48.9797 241.969 48.7509 241.878 48.4584 241.878C48.2598 241.878 48.0833 241.922 47.9288 242.009C47.7762 242.095 47.6558 242.219 47.5682 242.382C47.4824 242.545 47.4396 242.742 47.4396 242.973Z" fill="#222D39"/>
<path d="M70.4412 236.346C70.4412 234.955 71.5703 233.827 72.9629 233.827H124.659C126.052 233.827 127.18 234.955 127.18 236.346V248.309C127.18 249.7 126.052 250.827 124.659 250.827H72.9629C71.5703 250.827 70.4412 249.7 70.4412 248.309V236.346Z" fill="#00A0FF"/>
<path d="M84.9412 245.79V239.38H87.3998C87.8664 239.38 88.2509 239.453 88.5599 239.599C88.8688 239.743 89.0957 239.941 89.2533 240.19C89.4046 240.441 89.4803 240.725 89.4803 241.042C89.4803 241.303 89.4299 241.527 89.329 241.712C89.2344 241.895 89.0957 242.045 88.9255 242.159C88.7553 242.275 88.5662 242.357 88.3581 242.407V242.47C88.5851 242.482 88.8057 242.552 89.0138 242.679C89.2281 242.805 89.3983 242.982 89.5307 243.211C89.6631 243.441 89.7325 243.718 89.7325 244.044C89.7325 244.376 89.6505 244.674 89.4929 244.939C89.329 245.202 89.0894 245.41 88.7616 245.562C88.4401 245.715 88.0303 245.79 87.5449 245.79H84.9412ZM86.1075 244.82H87.3557C87.7781 244.82 88.0807 244.74 88.2698 244.579C88.459 244.417 88.5535 244.208 88.5535 243.953C88.5535 243.764 88.5031 243.592 88.4086 243.44C88.314 243.286 88.1816 243.164 88.0114 243.077C87.8349 242.987 87.6268 242.942 87.3873 242.942H86.1075V244.82ZM86.1075 242.106H87.2548C87.4566 242.106 87.6394 242.07 87.797 241.997C87.9609 241.922 88.087 241.816 88.1753 241.681C88.2699 241.543 88.3203 241.38 88.3203 241.192C88.3203 240.944 88.232 240.74 88.0555 240.579C87.8853 240.418 87.6268 240.338 87.2801 240.338H86.1075V242.106ZM93.761 243.769V240.983H94.8957V245.79H93.7988V244.936H93.7484C93.6412 245.205 93.4583 245.425 93.2125 245.596C92.9666 245.768 92.6577 245.853 92.2983 245.853C91.9831 245.853 91.7057 245.783 91.4598 245.644C91.2203 245.501 91.0312 245.296 90.8988 245.027C90.7601 244.756 90.697 244.428 90.697 244.044V240.983H91.8318V243.869C91.8318 244.173 91.9138 244.415 92.0777 244.595C92.2479 244.774 92.4686 244.864 92.7396 244.864C92.9036 244.864 93.0675 244.823 93.2251 244.742C93.3827 244.661 93.5087 244.54 93.6096 244.379C93.7105 244.216 93.761 244.013 93.761 243.769ZM98.4703 240.983V241.859H95.7027V240.983H98.4703ZM96.3835 239.831H97.5183V244.345C97.5183 244.497 97.5436 244.614 97.5877 244.695C97.6381 244.774 97.7012 244.829 97.7768 244.858C97.8525 244.887 97.9407 244.902 98.0353 244.902C98.1046 244.902 98.1677 244.896 98.2244 244.886C98.2875 244.876 98.3316 244.866 98.3631 244.858L98.5586 245.744C98.4955 245.765 98.4072 245.788 98.2938 245.812C98.1866 245.838 98.0479 245.852 97.8903 245.857C97.6066 245.865 97.3481 245.822 97.1212 245.728C96.8942 245.632 96.7114 245.484 96.579 245.284C96.4466 245.083 96.3835 244.833 96.3835 244.532V239.831ZM101.818 240.983V241.859H99.0503V240.983H101.818ZM99.7375 239.831H100.872V244.345C100.872 244.497 100.891 244.614 100.942 244.695C100.986 244.774 101.049 244.829 101.131 244.858C101.206 244.887 101.288 244.902 101.383 244.902C101.459 244.902 101.522 244.896 101.578 244.886C101.641 244.876 101.686 244.866 101.717 244.858L101.906 245.744C101.849 245.765 101.761 245.788 101.648 245.812C101.54 245.838 101.402 245.852 101.244 245.857C100.954 245.865 100.702 245.822 100.475 245.728C100.248 245.632 100.065 245.484 99.9329 245.284C99.8005 245.083 99.7375 244.833 99.7375 244.532V239.831ZM104.819 245.885C104.346 245.885 103.942 245.782 103.596 245.574C103.249 245.368 102.984 245.079 102.795 244.707C102.606 244.336 102.511 243.902 102.511 243.405C102.511 242.909 102.606 242.474 102.795 242.1C102.984 241.727 103.249 241.437 103.596 241.23C103.942 241.023 104.346 240.92 104.819 240.92C105.285 240.92 105.695 241.023 106.042 241.23C106.382 241.437 106.653 241.727 106.843 242.1C107.032 242.474 107.126 242.909 107.126 243.405C107.126 243.902 107.032 244.336 106.843 244.707C106.653 245.079 106.382 245.368 106.042 245.574C105.695 245.782 105.285 245.885 104.819 245.885ZM104.825 244.977C105.077 244.977 105.292 244.907 105.462 244.767C105.632 244.625 105.764 244.435 105.846 244.197C105.935 243.959 105.972 243.694 105.972 243.402C105.972 243.108 105.935 242.842 105.846 242.604C105.764 242.364 105.632 242.173 105.462 242.031C105.292 241.889 105.077 241.819 104.825 241.819C104.56 241.819 104.346 241.889 104.169 242.031C103.999 242.173 103.873 242.364 103.785 242.604C103.703 242.842 103.659 243.108 103.659 243.402C103.659 243.694 103.703 243.959 103.785 244.197C103.873 244.435 103.999 244.625 104.169 244.767C104.346 244.907 104.56 244.977 104.825 244.977ZM109.225 242.973V245.79H108.091V240.983H109.175V241.8H109.232C109.339 241.53 109.515 241.316 109.761 241.158C110.001 241 110.304 240.92 110.663 240.92C110.997 240.92 111.287 240.991 111.533 241.133C111.779 241.275 111.974 241.481 112.107 241.749C112.245 242.019 112.315 242.345 112.315 242.729V245.79H111.18V242.905C111.18 242.583 111.092 242.332 110.928 242.15C110.764 241.969 110.537 241.878 110.24 241.878C110.045 241.878 109.869 241.922 109.711 242.009C109.56 242.095 109.44 242.219 109.352 242.382C109.263 242.545 109.225 242.742 109.225 242.973Z" fill="white"/>
</g>
<mask id="mask7_175_1648" style="mask-type:luminance" maskUnits="userSpaceOnUse" x="1" y="33" width="134" height="226">
<path d="M1.09326 36.1237C1.09326 34.7329 2.22237 33.6052 3.615 33.6052H132.224C133.617 33.6052 134.745 34.7329 134.745 36.1237V255.864C134.745 257.256 133.617 258.383 132.224 258.383H3.615C2.22237 258.383 1.09326 257.256 1.09326 255.864V36.1237Z" fill="white"/>
</mask>
<g mask="url(#mask7_175_1648)">
<path d="M3.61506 34.2348H132.224V32.9756H3.61506V34.2348ZM134.115 36.1237V255.864H135.376V36.1237H134.115ZM132.224 257.753H3.61506V259.013H132.224V257.753ZM1.72376 255.864V36.1237H0.462891V255.864H1.72376ZM3.61506 257.753C2.57043 257.753 1.72376 256.908 1.72376 255.864H0.462891C0.462891 257.604 1.8738 259.013 3.61506 259.013V257.753ZM134.115 255.864C134.115 256.908 133.27 257.753 132.224 257.753V259.013C133.964 259.013 135.376 257.604 135.376 255.864H134.115ZM132.224 34.2348C133.27 34.2348 134.115 35.0811 134.115 36.1237H135.376C135.376 34.3853 133.964 32.9756 132.224 32.9756V34.2348ZM3.61506 32.9756C1.8738 32.9756 0.462891 34.3853 0.462891 36.1237H1.72376C1.72376 35.0811 2.57043 34.2348 3.61506 34.2348V32.9756Z" fill="#E1E1E1"/>
</g>
<path d="M1.09326 8.42037C1.09326 7.0294 2.22237 5.90186 3.615 5.90186H132.224C133.617 5.90186 134.745 7.0294 134.745 8.42037V28.5682C134.745 29.9597 133.617 31.0867 132.224 31.0867H3.615C2.22237 31.0867 1.09326 29.9597 1.09326 28.5682V8.42037Z" fill="white"/>
<path d="M3.61497 6.21655H132.224C133.44 6.21655 134.43 7.20318 134.43 8.42026V28.5681C134.43 29.7852 133.44 30.7718 132.224 30.7718H3.61497C2.39634 30.7718 1.40845 29.7852 1.40845 28.5681V8.42026C1.40845 7.20318 2.39634 6.21655 3.61497 6.21655Z" stroke="#00A0FF"/>
<path d="M12.0937 18.8647V19.5534H9.28516V18.8647H12.0937Z" fill="white"/>
<path d="M118.984 19.7536L122.137 16.6055L125.289 19.7536" stroke="#222D39" stroke-width="1.5" stroke-linecap="round" stroke-linejoin="round"/>
<path d="M50.7886 0.864746H6.6582V10.3092H50.7886V0.864746Z" fill="url(#paint0_linear_175_1648)"/>
<path d="M8.58545 8.42051V2.92554H9.25117V7.83023H11.8088V8.42051H8.58545ZM13.9687 8.51709C13.7077 8.51709 13.47 8.46792 13.257 8.3695C13.0439 8.26933 12.8749 8.12533 12.7495 7.93751C12.624 7.74793 12.561 7.519 12.561 7.25065C12.561 7.01454 12.6076 6.82313 12.7009 6.67649C12.7942 6.52802 12.9184 6.41173 13.0741 6.32768C13.2305 6.24362 13.4019 6.18104 13.5904 6.13986C13.7802 6.09692 13.9706 6.06298 14.1623 6.03792C14.4132 6.00575 14.6162 5.98157 14.7725 5.96545C14.9301 5.94757 15.0443 5.91804 15.1161 5.87693C15.1893 5.83581 15.2264 5.76422 15.2264 5.66228V5.64081C15.2264 5.37612 15.1539 5.17035 15.0089 5.02371C14.8652 4.87701 14.6477 4.80372 14.3558 4.80372C14.0532 4.80372 13.8162 4.8699 13.644 5.00225C13.4719 5.13459 13.3509 5.27594 13.2815 5.42617L12.6795 5.21153C12.7866 4.96113 12.9304 4.76613 13.1094 4.62661C13.2904 4.48532 13.4871 4.38691 13.7002 4.3315C13.9151 4.27427 14.1263 4.24562 14.3344 4.24562C14.4667 4.24562 14.6193 4.26174 14.7908 4.29391C14.9648 4.32432 15.1325 4.38785 15.2933 4.48444C15.4566 4.58102 15.5915 4.72678 15.6993 4.92178C15.8064 5.11671 15.86 5.37788 15.86 5.70523V8.42051H15.2264V7.8624H15.1943C15.1508 7.95187 15.0795 8.04757 14.9793 8.14951C14.8791 8.25145 14.7454 8.33821 14.579 8.40974C14.4125 8.48132 14.2089 8.51709 13.9687 8.51709ZM14.0658 7.94828C14.3167 7.94828 14.5279 7.89911 14.7 7.80069C14.8734 7.70235 15.0039 7.57535 15.0922 7.41971C15.1817 7.26406 15.2264 7.10042 15.2264 6.92872V6.34915C15.1993 6.38132 15.1401 6.41085 15.0487 6.43768C14.9592 6.46273 14.8558 6.48509 14.7372 6.50479C14.6212 6.52267 14.5071 6.53873 14.3962 6.55308C14.2871 6.56561 14.1982 6.57632 14.1301 6.58526C13.9656 6.60673 13.8111 6.64161 13.668 6.6899C13.5268 6.73643 13.412 6.80708 13.3244 6.90184C13.238 6.9949 13.1952 7.12189 13.1952 7.28289C13.1952 7.50288 13.2765 7.66923 13.4398 7.78193C13.6043 7.89281 13.813 7.94828 14.0658 7.94828ZM17.1032 8.42051V2.92554H17.7375V4.95395H17.7911C17.8377 4.88242 17.902 4.79119 17.9846 4.68025C18.0691 4.56761 18.1889 4.46744 18.3446 4.37979C18.5022 4.29032 18.7152 4.24562 18.9838 4.24562C19.3312 4.24562 19.6376 4.33238 19.903 4.50591C20.1678 4.67937 20.3746 4.9253 20.5233 5.24371C20.6721 5.56211 20.7465 5.93775 20.7465 6.37062C20.7465 6.80708 20.6721 7.18536 20.5233 7.50559C20.3746 7.82393 20.1691 8.07081 19.9055 8.2461C19.642 8.41962 19.3388 8.50632 18.9945 8.50632C18.7298 8.50632 18.5173 8.4625 18.3578 8.37486C18.1989 8.28545 18.076 8.18439 17.9903 8.07169C17.9039 7.95722 17.8377 7.8624 17.7911 7.78728H17.716V8.42051H17.1032ZM17.7268 6.35991C17.7268 6.67114 17.7721 6.94572 17.8635 7.1836C17.955 7.41971 18.0886 7.60482 18.2639 7.73899C18.4398 7.87134 18.6548 7.93751 18.9088 7.93751C19.1736 7.93751 19.3949 7.86775 19.5727 7.72823C19.7517 7.58694 19.886 7.39735 19.9755 7.15942C20.0669 6.91978 20.1123 6.65326 20.1123 6.35991C20.1123 6.07009 20.0675 5.80899 19.978 5.5764C19.8904 5.34212 19.7567 5.15695 19.5777 5.02101C19.4005 4.88331 19.1774 4.81443 18.9088 4.81443C18.651 4.81443 18.4341 4.87972 18.2588 5.0103C18.0829 5.13906 17.9506 5.31977 17.861 5.55229C17.7715 5.78305 17.7268 6.05221 17.7268 6.35991ZM23.446 8.50632C23.0489 8.50632 22.7059 8.41868 22.4172 8.24339C22.131 8.06634 21.9097 7.81946 21.754 7.50288C21.5995 7.18448 21.5226 6.81419 21.5226 6.39209C21.5226 5.96992 21.5995 5.59788 21.754 5.27595C21.9097 4.95219 22.1266 4.69996 22.404 4.51932C22.6832 4.33685 23.0091 4.24562 23.3817 4.24562C23.5967 4.24562 23.8092 4.28138 24.0185 4.35297C24.2278 4.42449 24.4188 4.54073 24.5909 4.70172C24.763 4.86095 24.8998 5.07201 25.002 5.33494C25.1041 5.59787 25.1551 5.92163 25.1551 6.30621V6.57456H21.974V6.02716H24.5102C24.5102 5.79463 24.4636 5.58717 24.3703 5.4047C24.2788 5.22224 24.1484 5.07824 23.9782 4.97271C23.8098 4.86719 23.6112 4.81443 23.3817 4.81443C23.1296 4.81443 22.9108 4.87701 22.7261 5.00225C22.5439 5.12565 22.4033 5.28665 22.3043 5.48517C22.206 5.68376 22.1568 5.89663 22.1568 6.1238V6.48867C22.1568 6.7999 22.2104 7.06378 22.3182 7.28018C22.4272 7.49482 22.5786 7.65853 22.7721 7.77117C22.9657 7.88211 23.1901 7.93751 23.446 7.93751C23.6131 7.93751 23.7631 7.91428 23.8974 7.86775C24.0336 7.81946 24.1509 7.74793 24.2499 7.65311C24.3482 7.55653 24.4245 7.43671 24.4781 7.29359L25.0902 7.46529C25.0259 7.67282 24.9175 7.85528 24.7655 8.01269C24.613 8.16827 24.4251 8.28992 24.2013 8.37756C23.9775 8.46344 23.7259 8.50632 23.446 8.50632ZM26.7533 2.92554V8.42051H26.1191V2.92554H26.7533ZM30.6765 5.94134V8.42051H30.0423V4.29926H30.6551V4.94325H30.7087C30.8051 4.73396 30.952 4.56578 31.1494 4.43879C31.346 4.31003 31.6007 4.24562 31.9122 4.24562C32.1914 4.24562 32.4361 4.30285 32.6454 4.41732C32.8553 4.53002 33.018 4.70172 33.1346 4.93248C33.2512 5.16141 33.3092 5.45123 33.3092 5.80181V8.42051H32.675V5.84475C32.675 5.521 32.5911 5.26877 32.4228 5.08813C32.2545 4.90566 32.0231 4.81443 31.7293 4.81443C31.527 4.81443 31.346 4.85825 31.1865 4.94589C31.0289 5.03354 30.9047 5.16141 30.8133 5.32959C30.7219 5.4977 30.6765 5.70164 30.6765 5.94134ZM35.6821 8.51709C35.4205 8.51709 35.1835 8.46792 34.9704 8.3695C34.7567 8.26933 34.5877 8.12533 34.4623 7.93751C34.3368 7.74793 34.2744 7.519 34.2744 7.25065C34.2744 7.01454 34.3211 6.82313 34.4137 6.67649C34.507 6.52802 34.6319 6.41173 34.7876 6.32768C34.9433 6.24362 35.1154 6.18104 35.3033 6.13986C35.493 6.09692 35.684 6.06298 35.8757 6.03792C36.126 6.00575 36.3296 5.98157 36.4853 5.96545C36.643 5.94757 36.7577 5.91804 36.8289 5.87693C36.9027 5.83581 36.9392 5.76422 36.9392 5.66228V5.64081C36.9392 5.37612 36.8668 5.17035 36.7218 5.02371C36.5786 4.87701 36.3611 4.80372 36.0686 4.80372C35.766 4.80372 35.5289 4.8699 35.3568 5.00225C35.1847 5.13459 35.0644 5.27594 34.9944 5.42617L34.3923 5.21153C34.5001 4.96113 34.6432 4.76613 34.8223 4.62661C35.0032 4.48532 35.2005 4.38691 35.4136 4.3315C35.6286 4.27427 35.8398 4.24562 36.0472 4.24562C36.1802 4.24562 36.3321 4.26174 36.5042 4.29391C36.6776 4.32432 36.8453 4.38785 37.0067 4.48444C37.1693 4.58102 37.3049 4.72678 37.4121 4.92178C37.5199 5.11671 37.5734 5.37788 37.5734 5.70523V8.42051H36.9392V7.8624H36.9071C36.8642 7.95187 36.7924 8.04757 36.6921 8.14951C36.5919 8.25145 36.4582 8.33821 36.2918 8.40974C36.1254 8.48132 35.9223 8.51709 35.6821 8.51709ZM35.7786 7.94828C36.0295 7.94828 36.2407 7.89911 36.4129 7.80069C36.5862 7.70235 36.7173 7.57535 36.8049 7.41971C36.8945 7.26406 36.9392 7.10042 36.9392 6.92872V6.34915C36.9128 6.38132 36.8535 6.41085 36.7621 6.43768C36.6726 6.46273 36.5686 6.48509 36.4507 6.50479C36.334 6.52267 36.2205 6.53873 36.1089 6.55308C35.9999 6.56561 35.911 6.57632 35.8436 6.58526C35.6784 6.60673 35.5245 6.64161 35.3814 6.6899C35.2396 6.73643 35.1249 6.80708 35.0372 6.90184C34.9515 6.9949 34.9086 7.12189 34.9086 7.28289C34.9086 7.50288 34.9899 7.66923 35.1526 7.78193C35.3178 7.89281 35.5264 7.94828 35.7786 7.94828ZM38.7303 8.42051V4.29926H39.3431V4.94325H39.3967C39.4831 4.72319 39.6218 4.55238 39.8134 4.43073C40.0051 4.30732 40.2351 4.24562 40.5037 4.24562C40.7761 4.24562 41.0024 4.30732 41.1833 4.43073C41.3661 4.55238 41.5087 4.72319 41.6108 4.94325H41.6536C41.7589 4.73037 41.9178 4.56132 42.129 4.43614C42.3402 4.30915 42.5936 4.24562 42.8893 4.24562C43.2581 4.24562 43.5601 4.36097 43.7946 4.59173C44.0291 4.82072 44.1464 5.17753 44.1464 5.66228V8.42051H43.5128V5.66228C43.5128 5.35817 43.4296 5.14089 43.2625 5.0103C43.0961 4.87972 42.9 4.81443 42.6743 4.81443C42.3843 4.81443 42.1593 4.90207 41.9998 5.07736C41.8409 5.25089 41.7608 5.47088 41.7608 5.7374V8.42051H41.1159V5.59787C41.1159 5.36359 41.0402 5.17489 40.8877 5.03177C40.7357 4.8869 40.5397 4.81443 40.2995 4.81443C40.1349 4.81443 39.9804 4.85825 39.8373 4.94589C39.6961 5.03354 39.5814 5.15518 39.4938 5.31083C39.4074 5.46464 39.3645 5.64258 39.3645 5.84475V8.42051H38.7303ZM47.0357 8.50632C46.6385 8.50632 46.2955 8.41868 46.0068 8.24339C45.7206 8.06634 45.4993 7.81946 45.3436 7.50288C45.1891 7.18448 45.1122 6.81419 45.1122 6.39209C45.1122 5.96992 45.1891 5.59788 45.3436 5.27595C45.4993 4.95219 45.7162 4.69996 45.9935 4.51932C46.2728 4.33685 46.5988 4.24562 46.9714 4.24562C47.1863 4.24562 47.3988 4.28138 47.6081 4.35297C47.8174 4.42449 48.0084 4.54073 48.1805 4.70172C48.352 4.86095 48.4895 5.07201 48.5916 5.33494C48.6937 5.59787 48.7448 5.92163 48.7448 6.30621V6.57456H45.5636V6.02716H48.0998C48.0998 5.79463 48.0532 5.58717 47.9599 5.4047C47.8685 5.22224 47.738 5.07824 47.5677 4.97271C47.3994 4.86719 47.2008 4.81443 46.9714 4.81443C46.7192 4.81443 46.5004 4.87701 46.3157 5.00225C46.1335 5.12565 45.9929 5.28665 45.894 5.48517C45.7956 5.68376 45.7464 5.89663 45.7464 6.1238V6.48867C45.7464 6.7999 45.8 7.06378 45.9078 7.28018C46.0169 7.49482 46.1682 7.65853 46.3617 7.77117C46.5553 7.88211 46.7797 7.93751 47.0357 7.93751C47.2027 7.93751 47.3528 7.91428 47.4871 7.86775C47.6232 7.81946 47.7405 7.74793 47.8395 7.65311C47.9378 7.55653 48.0141 7.43671 48.0677 7.29359L48.6798 7.46529C48.6155 7.67282 48.5071 7.85528 48.3552 8.01269C48.2026 8.16827 48.0147 8.28992 47.7909 8.37756C47.5671 8.46344 47.3156 8.50632 47.0357 8.50632Z" fill="#6E7881"/>
<defs>
<linearGradient id="paint0_linear_175_1648" x1="28.7234" y1="0.864746" x2="28.7234" y2="10.3092" gradientUnits="userSpaceOnUse">
<stop offset="0.33" stop-color="white" stop-opacity="0"/>
<stop offset="0.3301" stop-color="white"/>
<stop offset="0.734275" stop-color="white"/>
<stop offset="0.734375" stop-color="white" stop-opacity="0"/>
</linearGradient>
</defs>
</svg>
